<svg width="101" height="69" viewBox="0 0 101 69" fill="none" xmlns="http://www.w3.org/2000/svg">
<rect x="0.480469" y="0.484375" width="99.851" height="68.2315" rx="4.99255" fill="white"/>
<path d="M18.9555 23.7958L37.0926 13.3244L55.2298 23.7958V44.7388L37.0926 55.2103L18.9555 44.7388V23.7958Z" stroke="#EEEEF7" stroke-width="0.332837"/>
<path d="M25.2968 27.457L37.0925 20.6468L48.8882 27.457V41.0776L37.0925 47.8879L25.2968 41.0776V27.457Z" stroke="#EEEEF7" stroke-width="0.332837"/>
<path d="M27.509 28.7781L37.153 20.836L50.7521 26.1784L51.7258 42.4889L37.15 51.1534L26.4545 39.9718L27.509 28.7781Z" stroke="#0088F0" stroke-width="0.665673"/>
<path d="M23.1999 26.3445L36.986 18.73L44.6209 30.1012L49.6472 41.5897H37.1379L28.4035 39.1496L23.1999 26.3445Z" stroke="#EF2A82" stroke-width="0.665673"/>
<path d="M33.0796 31.9503L37.0927 29.6333L41.1059 31.9503V36.5843L37.0927 38.9013L33.0796 36.5843V31.9503Z" stroke="#EEEEF7" stroke-width="0.332837"/>
<path d="M77.1209 23.1649H77.5438C77.751 23.1649 77.9219 23.1308 78.0564 23.0624C78.1931 22.9919 78.2946 22.8969 78.3608 22.7773C78.4292 22.6555 78.4633 22.5188 78.4633 22.3672C78.4633 22.1877 78.4334 22.0371 78.3736 21.9154C78.3138 21.7936 78.2241 21.7018 78.1045 21.6399C77.9849 21.5779 77.8332 21.5469 77.6495 21.5469C77.4829 21.5469 77.3356 21.5801 77.2074 21.6463C77.0814 21.7103 76.9821 21.8022 76.9094 21.9218C76.839 22.0414 76.8037 22.1824 76.8037 22.3447H76.211C76.211 22.1076 76.2708 21.8919 76.3904 21.6975C76.51 21.5032 76.6777 21.3483 76.8934 21.233C77.1113 21.1176 77.3633 21.0599 77.6495 21.0599C77.9315 21.0599 78.1782 21.1101 78.3897 21.2105C78.6011 21.3088 78.7656 21.4562 78.8831 21.6527C79.0005 21.847 79.0593 22.0895 79.0593 22.38C79.0593 22.4974 79.0315 22.6235 78.976 22.758C78.9226 22.8905 78.8382 23.0143 78.7229 23.1297C78.6097 23.245 78.4623 23.3401 78.2807 23.4148C78.0992 23.4875 77.8813 23.5238 77.6271 23.5238H77.1209V23.1649ZM77.1209 23.6519V23.2963H77.6271C77.924 23.2963 78.1696 23.3315 78.364 23.402C78.5584 23.4725 78.7111 23.5665 78.8222 23.684C78.9354 23.8014 79.0144 23.9307 79.0593 24.0716C79.1063 24.2105 79.1298 24.3493 79.1298 24.4881C79.1298 24.706 79.0924 24.8993 79.0176 25.0681C78.945 25.2368 78.8414 25.3799 78.7068 25.4974C78.5744 25.6149 78.4185 25.7035 78.2391 25.7633C78.0596 25.8231 77.8642 25.853 77.6527 25.853C77.4498 25.853 77.2587 25.8242 77.0792 25.7665C76.902 25.7088 76.745 25.6255 76.6083 25.5166C76.4716 25.4055 76.3648 25.2699 76.2879 25.1097C76.211 24.9474 76.1725 24.7626 76.1725 24.5554H76.7653C76.7653 24.7178 76.8005 24.8598 76.871 24.9816C76.9436 25.1033 77.0461 25.1984 77.1786 25.2667C77.3131 25.3329 77.4712 25.366 77.6527 25.366C77.8343 25.366 77.9902 25.3351 78.1205 25.2731C78.253 25.209 78.3544 25.1129 78.4249 24.9848C78.4975 24.8566 78.5338 24.6953 78.5338 24.501C78.5338 24.3066 78.4932 24.1475 78.4121 24.0236C78.3309 23.8976 78.2156 23.8046 78.0661 23.7448C77.9187 23.6829 77.7446 23.6519 77.5438 23.6519H77.1209ZM83.0994 24.219V24.706H79.7289V24.3568L81.8178 21.124H82.3016L81.7826 22.0596L80.4017 24.219H83.0994ZM82.449 21.124V25.7889H81.8563V21.124H82.449ZM83.5864 22.2678V22.0211C83.5864 21.8438 83.6249 21.6826 83.7018 21.5373C83.7787 21.3921 83.8887 21.2757 84.0318 21.1881C84.1749 21.1005 84.3447 21.0567 84.5412 21.0567C84.742 21.0567 84.9128 21.1005 85.0538 21.1881C85.1969 21.2757 85.3069 21.3921 85.3838 21.5373C85.4607 21.6826 85.4992 21.8438 85.4992 22.0211V22.2678C85.4992 22.4408 85.4607 22.6 85.3838 22.7452C85.3091 22.8905 85.2001 23.0069 85.057 23.0944C84.916 23.182 84.7462 23.2258 84.5476 23.2258C84.3489 23.2258 84.177 23.182 84.0318 23.0944C83.8887 23.0069 83.7787 22.8905 83.7018 22.7452C83.6249 22.6 83.5864 22.4408 83.5864 22.2678ZM84.0318 22.0211V22.2678C84.0318 22.3661 84.0499 22.459 84.0862 22.5466C84.1247 22.6341 84.1823 22.7057 84.2592 22.7612C84.3361 22.8146 84.4323 22.8413 84.5476 22.8413C84.6629 22.8413 84.758 22.8146 84.8327 22.7612C84.9075 22.7057 84.963 22.6341 84.9993 22.5466C85.0357 22.459 85.0538 22.3661 85.0538 22.2678V22.0211C85.0538 21.9207 85.0346 21.8268 84.9961 21.7392C84.9598 21.6495 84.9032 21.5779 84.8263 21.5245C84.7516 21.469 84.6565 21.4412 84.5412 21.4412C84.428 21.4412 84.3329 21.469 84.256 21.5245C84.1813 21.5779 84.1247 21.6495 84.0862 21.7392C84.0499 21.8268 84.0318 21.9207 84.0318 22.0211ZM85.858 24.895V24.6451C85.858 24.47 85.8964 24.3098 85.9733 24.1646C86.0502 24.0193 86.1602 23.9029 86.3033 23.8153C86.4465 23.7277 86.6163 23.684 86.8128 23.684C87.0135 23.684 87.1844 23.7277 87.3254 23.8153C87.4685 23.9029 87.5785 24.0193 87.6554 24.1646C87.7323 24.3098 87.7707 24.47 87.7707 24.6451V24.895C87.7707 25.0702 87.7323 25.2304 87.6554 25.3756C87.5806 25.5209 87.4717 25.6373 87.3286 25.7249C87.1876 25.8124 87.0178 25.8562 86.8192 25.8562C86.6205 25.8562 86.4497 25.8124 86.3065 25.7249C86.1634 25.6373 86.0524 25.5209 85.9733 25.3756C85.8964 25.2304 85.858 25.0702 85.858 24.895ZM86.3033 24.6451V24.895C86.3033 24.9933 86.3215 25.0873 86.3578 25.177C86.3963 25.2646 86.4539 25.3361 86.5308 25.3917C86.6077 25.4451 86.7038 25.4718 86.8192 25.4718C86.9345 25.4718 87.0296 25.4451 87.1043 25.3917C87.1812 25.3361 87.2378 25.2646 87.2741 25.177C87.3104 25.0894 87.3286 24.9954 87.3286 24.895V24.6451C87.3286 24.5448 87.3094 24.4508 87.2709 24.3632C87.2346 24.2756 87.178 24.2051 87.1011 24.1517C87.0264 24.0962 86.9302 24.0684 86.8128 24.0684C86.6996 24.0684 86.6045 24.0962 86.5276 24.1517C86.4529 24.2051 86.3963 24.2756 86.3578 24.3632C86.3215 24.4508 86.3033 24.5448 86.3033 24.6451ZM86.9601 21.7872L84.6822 25.4333L84.3489 25.2218L86.6269 21.5758L86.9601 21.7872Z" fill="#EF2A82"/>
<path d="M76.0027 29.8368V29.8032C76.0027 29.6891 76.0193 29.5833 76.0525 29.4858C76.0856 29.3873 76.1334 29.302 76.1958 29.2298C76.2582 29.1567 76.3338 29.1002 76.4225 29.0602C76.5112 29.0192 76.6107 28.9987 76.7209 28.9987C76.8321 28.9987 76.932 29.0192 77.0207 29.0602C77.1105 29.1002 77.1865 29.1567 77.2489 29.2298C77.3123 29.302 77.3606 29.3873 77.3937 29.4858C77.4269 29.5833 77.4434 29.6891 77.4434 29.8032V29.8368C77.4434 29.9509 77.4269 30.0567 77.3937 30.1542C77.3606 30.2518 77.3123 30.3371 77.2489 30.4102C77.1865 30.4824 77.1109 30.5389 77.0222 30.5799C76.9344 30.6199 76.835 30.6398 76.7238 30.6398C76.6127 30.6398 76.5127 30.6199 76.424 30.5799C76.3352 30.5389 76.2592 30.4824 76.1958 30.4102C76.1334 30.3371 76.0856 30.2518 76.0525 30.1542C76.0193 30.0567 76.0027 29.9509 76.0027 29.8368ZM76.2733 29.8032V29.8368C76.2733 29.9158 76.2826 29.9904 76.3011 30.0606C76.3196 30.1299 76.3474 30.1913 76.3845 30.2449C76.4225 30.2986 76.4698 30.341 76.5264 30.3722C76.5829 30.4024 76.6487 30.4175 76.7238 30.4175C76.7979 30.4175 76.8628 30.4024 76.9184 30.3722C76.9749 30.341 77.0217 30.2986 77.0588 30.2449C77.0958 30.1913 77.1236 30.1299 77.1421 30.0606C77.1616 29.9904 77.1714 29.9158 77.1714 29.8368V29.8032C77.1714 29.7252 77.1616 29.6516 77.1421 29.5823C77.1236 29.5121 77.0953 29.4502 77.0573 29.3966C77.0203 29.342 76.9734 29.2991 76.9169 29.2679C76.8613 29.2367 76.796 29.2211 76.7209 29.2211C76.6468 29.2211 76.5815 29.2367 76.5249 29.2679C76.4693 29.2991 76.4225 29.342 76.3845 29.3966C76.3474 29.4502 76.3196 29.5121 76.3011 29.5823C76.2826 29.6516 76.2733 29.7252 76.2733 29.8032ZM78.0534 29.3322V31.2191H77.7813V29.028H78.03L78.0534 29.3322ZM79.1197 29.8061V29.8368C79.1197 29.9519 79.106 30.0587 79.0787 30.1572C79.0514 30.2547 79.0114 30.3395 78.9588 30.4117C78.9071 30.4838 78.8432 30.5399 78.7672 30.5799C78.6911 30.6199 78.6038 30.6398 78.5053 30.6398C78.4049 30.6398 78.3162 30.6233 78.2391 30.5901C78.1621 30.557 78.0968 30.5087 78.0431 30.4453C77.9895 30.3819 77.9466 30.3059 77.9144 30.2171C77.8832 30.1284 77.8618 30.0285 77.8501 29.9173V29.7535C77.8618 29.6365 77.8837 29.5316 77.9159 29.439C77.9481 29.3464 77.9905 29.2674 78.0431 29.2021C78.0968 29.1357 78.1616 29.0855 78.2377 29.0514C78.3137 29.0163 78.4015 28.9987 78.501 28.9987C78.6004 28.9987 78.6887 29.0182 78.7657 29.0573C78.8427 29.0953 78.9076 29.1499 78.9602 29.2211C79.0129 29.2923 79.0524 29.3776 79.0787 29.477C79.106 29.5755 79.1197 29.6852 79.1197 29.8061ZM78.8476 29.8368V29.8061C78.8476 29.7271 78.8393 29.653 78.8227 29.5838C78.8062 29.5136 78.7803 29.4522 78.7452 29.3995C78.7111 29.3459 78.6672 29.304 78.6136 29.2737C78.5599 29.2425 78.4961 29.2269 78.422 29.2269C78.3537 29.2269 78.2942 29.2386 78.2435 29.262C78.1938 29.2854 78.1514 29.3171 78.1163 29.3571C78.0812 29.3961 78.0524 29.441 78.03 29.4917C78.0085 29.5414 77.9924 29.5931 77.9817 29.6467V30.0255C78.0012 30.0938 78.0285 30.1581 78.0636 30.2186C78.0987 30.2781 78.1455 30.3264 78.204 30.3634C78.2625 30.3995 78.3362 30.4175 78.4249 30.4175C78.498 30.4175 78.5609 30.4024 78.6136 30.3722C78.6672 30.341 78.7111 30.2986 78.7452 30.2449C78.7803 30.1913 78.8062 30.1299 78.8227 30.0606C78.8393 29.9904 78.8476 29.9158 78.8476 29.8368ZM80.1274 29.028V29.2357H79.2718V29.028H80.1274ZM79.5614 28.6433H79.832V30.2186C79.832 30.2722 79.8403 30.3127 79.8568 30.34C79.8734 30.3673 79.8949 30.3853 79.9212 30.3941C79.9475 30.4029 79.9758 30.4073 80.006 30.4073C80.0285 30.4073 80.0519 30.4053 80.0762 30.4014C80.1016 30.3966 80.1206 30.3927 80.1333 30.3897L80.1347 30.6106C80.1133 30.6174 80.085 30.6238 80.0499 30.6296C80.0158 30.6364 79.9743 30.6398 79.9256 30.6398C79.8593 30.6398 79.7983 30.6267 79.7428 30.6004C79.6872 30.574 79.6428 30.5301 79.6097 30.4687C79.5775 30.4063 79.5614 30.3225 79.5614 30.2171V28.6433ZM80.7388 29.028V30.6106H80.4668V29.028H80.7388ZM80.4463 28.6082C80.4463 28.5643 80.4595 28.5273 80.4858 28.4971C80.5131 28.4668 80.5531 28.4517 80.6057 28.4517C80.6574 28.4517 80.6969 28.4668 80.7242 28.4971C80.7525 28.5273 80.7666 28.5643 80.7666 28.6082C80.7666 28.6501 80.7525 28.6862 80.7242 28.7165C80.6969 28.7457 80.6574 28.7603 80.6057 28.7603C80.5531 28.7603 80.5131 28.7457 80.4858 28.7165C80.4595 28.6862 80.4463 28.6501 80.4463 28.6082ZM81.1016 29.8368V29.8032C81.1016 29.6891 81.1181 29.5833 81.1513 29.4858C81.1844 29.3873 81.2322 29.302 81.2946 29.2298C81.357 29.1567 81.4326 29.1002 81.5213 29.0602C81.6101 29.0192 81.7095 28.9987 81.8197 28.9987C81.9309 28.9987 82.0308 29.0192 82.1196 29.0602C82.2093 29.1002 82.2853 29.1567 82.3478 29.2298C82.4111 29.302 82.4594 29.3873 82.4926 29.4858C82.5257 29.5833 82.5423 29.6891 82.5423 29.8032V29.8368C82.5423 29.9509 82.5257 30.0567 82.4926 30.1542C82.4594 30.2518 82.4111 30.3371 82.3478 30.4102C82.2853 30.4824 82.2098 30.5389 82.121 30.5799C82.0333 30.6199 81.9338 30.6398 81.8227 30.6398C81.7115 30.6398 81.6115 30.6199 81.5228 30.5799C81.4341 30.5389 81.358 30.4824 81.2946 30.4102C81.2322 30.3371 81.1844 30.2518 81.1513 30.1542C81.1181 30.0567 81.1016 29.9509 81.1016 29.8368ZM81.3722 29.8032V29.8368C81.3722 29.9158 81.3814 29.9904 81.3999 30.0606C81.4185 30.1299 81.4463 30.1913 81.4833 30.2449C81.5213 30.2986 81.5686 30.341 81.6252 30.3722C81.6818 30.4024 81.7476 30.4175 81.8227 30.4175C81.8968 30.4175 81.9616 30.4024 82.0172 30.3722C82.0737 30.341 82.1206 30.2986 82.1576 30.2449C82.1947 30.1913 82.2224 30.1299 82.241 30.0606C82.2605 29.9904 82.2702 29.9158 82.2702 29.8368V29.8032C82.2702 29.7252 82.2605 29.6516 82.241 29.5823C82.2224 29.5121 82.1942 29.4502 82.1561 29.3966C82.1191 29.342 82.0723 29.2991 82.0157 29.2679C81.9601 29.2367 81.8948 29.2211 81.8197 29.2211C81.7456 29.2211 81.6803 29.2367 81.6237 29.2679C81.5682 29.2991 81.5213 29.342 81.4833 29.3966C81.4463 29.4502 81.4185 29.5121 81.3999 29.5823C81.3814 29.6516 81.3722 29.7252 81.3722 29.8032ZM83.1522 29.3659V30.6106H82.8816V29.028H83.1376L83.1522 29.3659ZM83.0879 29.7593L82.9752 29.7549C82.9762 29.6467 82.9923 29.5468 83.0235 29.4551C83.0547 29.3625 83.0986 29.282 83.1551 29.2138C83.2117 29.1455 83.279 29.0928 83.357 29.0558C83.436 29.0178 83.5232 28.9987 83.6188 28.9987C83.6968 28.9987 83.767 29.0095 83.8294 29.0309C83.8918 29.0514 83.945 29.0846 83.9889 29.1304C84.0337 29.1762 84.0678 29.2357 84.0912 29.3088C84.1146 29.381 84.1263 29.4692 84.1263 29.5736V30.6106H83.8543V29.5706C83.8543 29.4878 83.8421 29.4215 83.8177 29.3717C83.7933 29.321 83.7578 29.2844 83.711 29.262C83.6641 29.2386 83.6066 29.2269 83.5384 29.2269C83.4711 29.2269 83.4096 29.2411 83.3541 29.2693C83.2995 29.2976 83.2522 29.3366 83.2122 29.3863C83.1732 29.4361 83.1425 29.4931 83.12 29.5575C83.0986 29.6209 83.0879 29.6881 83.0879 29.7593ZM86.1404 28.4693V30.6106H85.8698V28.8071L85.3243 29.0061V28.7618L86.098 28.4693H86.1404Z" fill="#8794BA"/>
<path d="M79.3124 43.9407V44.4277H76.259V44.0016L77.7873 42.3003C77.9753 42.091 78.1205 41.9137 78.223 41.7685C78.3277 41.6211 78.4003 41.4897 78.4409 41.3744C78.4836 41.2569 78.505 41.1373 78.505 41.0156C78.505 40.8618 78.473 40.7229 78.4089 40.599C78.3469 40.473 78.2551 40.3726 78.1333 40.2979C78.0116 40.2231 77.8642 40.1857 77.6912 40.1857C77.484 40.1857 77.311 40.2263 77.1722 40.3075C77.0355 40.3865 76.9329 40.4976 76.8646 40.6407C76.7962 40.7838 76.7621 40.9483 76.7621 41.1341H76.1693C76.1693 40.8714 76.227 40.6311 76.3423 40.4132C76.4577 40.1954 76.6286 40.0223 76.855 39.8942C77.0814 39.7639 77.3601 39.6987 77.6912 39.6987C77.986 39.6987 78.238 39.7511 78.4473 39.8557C78.6566 39.9583 78.8168 40.1035 78.9279 40.2915C79.0411 40.4773 79.0977 40.6952 79.0977 40.9451C79.0977 41.0818 79.0742 41.2206 79.0272 41.3616C78.9824 41.5004 78.9194 41.6393 78.8382 41.7781C78.7592 41.9169 78.6663 42.0536 78.5595 42.1882C78.4548 42.3228 78.3427 42.4552 78.223 42.5855L76.9735 43.9407H79.3124ZM80.5363 43.9311H80.5972C80.9389 43.9311 81.2166 43.8831 81.4302 43.7869C81.6438 43.6908 81.8082 43.5616 81.9236 43.3993C82.0389 43.2369 82.118 43.0543 82.1607 42.8514C82.2034 42.6464 82.2247 42.436 82.2247 42.2202V41.5058C82.2247 41.2943 82.2002 41.1063 82.1511 40.9419C82.1041 40.7774 82.0379 40.6396 81.9524 40.5286C81.8691 40.4175 81.7741 40.3331 81.6673 40.2754C81.5605 40.2178 81.4473 40.1889 81.3276 40.1889C81.1909 40.1889 81.0681 40.2167 80.9592 40.2722C80.8524 40.3256 80.7616 40.4015 80.6869 40.4997C80.6142 40.598 80.5587 40.7133 80.5203 40.8457C80.4818 40.9782 80.4626 41.1224 80.4626 41.2783C80.4626 41.4171 80.4797 41.5517 80.5139 41.682C80.548 41.8123 80.6004 41.9297 80.6708 42.0344C80.7413 42.1391 80.8289 42.2224 80.9336 42.2843C81.0404 42.3441 81.1653 42.374 81.3084 42.374C81.4409 42.374 81.5647 42.3484 81.6801 42.2971C81.7976 42.2437 81.9012 42.1722 81.9909 42.0825C82.0827 41.9906 82.1553 41.887 82.2087 41.7717C82.2643 41.6563 82.2963 41.5357 82.3048 41.4096H82.5868C82.5868 41.5869 82.5515 41.7621 82.4811 41.9351C82.4127 42.106 82.3166 42.2619 82.1927 42.4029C82.0688 42.5438 81.9236 42.657 81.757 42.7425C81.5904 42.8258 81.4088 42.8674 81.2123 42.8674C80.9816 42.8674 80.7819 42.8226 80.6132 42.7329C80.4444 42.6431 80.3056 42.5235 80.1967 42.374C80.0899 42.2245 80.0098 42.0579 79.9564 41.8742C79.9051 41.6884 79.8795 41.5004 79.8795 41.3103C79.8795 41.0882 79.9104 40.8799 79.9724 40.6856C80.0343 40.4912 80.1262 40.3203 80.2479 40.1729C80.3697 40.0234 80.5203 39.907 80.6997 39.8237C80.8812 39.7404 81.0906 39.6987 81.3276 39.6987C81.5946 39.6987 81.8221 39.7521 82.0101 39.8589C82.198 39.9657 82.3508 40.1088 82.4682 40.2883C82.5879 40.4677 82.6754 40.6695 82.731 40.8938C82.7865 41.1181 82.8143 41.3488 82.8143 41.5859V41.8005C82.8143 42.0419 82.7983 42.2875 82.7662 42.5374C82.7363 42.7852 82.6776 43.0223 82.59 43.2487C82.5046 43.4751 82.3796 43.678 82.2151 43.8574C82.0507 44.0347 81.836 44.1757 81.5711 44.2804C81.3084 44.3829 80.9838 44.4341 80.5972 44.4341H80.5363V43.9311ZM83.5864 40.9066V40.6599C83.5864 40.4826 83.6249 40.3214 83.7018 40.1761C83.7787 40.0309 83.8887 39.9145 84.0318 39.8269C84.1749 39.7393 84.3447 39.6955 84.5412 39.6955C84.742 39.6955 84.9128 39.7393 85.0538 39.8269C85.1969 39.9145 85.3069 40.0309 85.3838 40.1761C85.4607 40.3214 85.4992 40.4826 85.4992 40.6599V40.9066C85.4992 41.0796 85.4607 41.2388 85.3838 41.384C85.3091 41.5293 85.2001 41.6457 85.057 41.7332C84.916 41.8208 84.7462 41.8646 84.5476 41.8646C84.3489 41.8646 84.177 41.8208 84.0318 41.7332C83.8887 41.6457 83.7787 41.5293 83.7018 41.384C83.6249 41.2388 83.5864 41.0796 83.5864 40.9066ZM84.0318 40.6599V40.9066C84.0318 41.0049 84.0499 41.0978 84.0862 41.1854C84.1247 41.2729 84.1823 41.3445 84.2592 41.4C84.3361 41.4534 84.4323 41.4801 84.5476 41.4801C84.6629 41.4801 84.758 41.4534 84.8327 41.4C84.9075 41.3445 84.963 41.2729 84.9993 41.1854C85.0357 41.0978 85.0538 41.0049 85.0538 40.9066V40.6599C85.0538 40.5595 85.0346 40.4655 84.9961 40.378C84.9598 40.2883 84.9032 40.2167 84.8263 40.1633C84.7516 40.1078 84.6565 40.08 84.5412 40.08C84.428 40.08 84.3329 40.1078 84.256 40.1633C84.1813 40.2167 84.1247 40.2883 84.0862 40.378C84.0499 40.4655 84.0318 40.5595 84.0318 40.6599ZM85.858 43.5338V43.2839C85.858 43.1088 85.8964 42.9486 85.9733 42.8033C86.0502 42.6581 86.1602 42.5417 86.3033 42.4541C86.4465 42.3665 86.6163 42.3228 86.8128 42.3228C87.0135 42.3228 87.1844 42.3665 87.3254 42.4541C87.4685 42.5417 87.5785 42.6581 87.6554 42.8033C87.7323 42.9486 87.7707 43.1088 87.7707 43.2839V43.5338C87.7707 43.709 87.7323 43.8692 87.6554 44.0144C87.5806 44.1597 87.4717 44.2761 87.3286 44.3637C87.1876 44.4512 87.0178 44.495 86.8192 44.495C86.6205 44.495 86.4497 44.4512 86.3065 44.3637C86.1634 44.2761 86.0524 44.1597 85.9733 44.0144C85.8964 43.8692 85.858 43.709 85.858 43.5338ZM86.3033 43.2839V43.5338C86.3033 43.6321 86.3215 43.7261 86.3578 43.8158C86.3963 43.9034 86.4539 43.9749 86.5308 44.0304C86.6077 44.0838 86.7038 44.1105 86.8192 44.1105C86.9345 44.1105 87.0296 44.0838 87.1043 44.0304C87.1812 43.9749 87.2378 43.9034 87.2741 43.8158C87.3104 43.7282 87.3286 43.6342 87.3286 43.5338V43.2839C87.3286 43.1835 87.3094 43.0896 87.2709 43.002C87.2346 42.9144 87.178 42.8439 87.1011 42.7905C87.0264 42.735 86.9302 42.7072 86.8128 42.7072C86.6996 42.7072 86.6045 42.735 86.5276 42.7905C86.4529 42.8439 86.3963 42.9144 86.3578 43.002C86.3215 43.0896 86.3033 43.1835 86.3033 43.2839ZM86.9601 40.426L84.6822 44.0721L84.3489 43.8606L86.6269 40.2146L86.9601 40.426Z" fill="#0088F0"/>
<path d="M76.0027 48.4756V48.442C76.0027 48.3279 76.0193 48.2221 76.0525 48.1246C76.0856 48.0261 76.1334 47.9408 76.1958 47.8686C76.2582 47.7955 76.3338 47.7389 76.4225 47.699C76.5112 47.658 76.6107 47.6375 76.7209 47.6375C76.8321 47.6375 76.932 47.658 77.0207 47.699C77.1105 47.7389 77.1865 47.7955 77.2489 47.8686C77.3123 47.9408 77.3606 48.0261 77.3937 48.1246C77.4269 48.2221 77.4434 48.3279 77.4434 48.442V48.4756C77.4434 48.5897 77.4269 48.6955 77.3937 48.793C77.3606 48.8906 77.3123 48.9759 77.2489 49.049C77.1865 49.1212 77.1109 49.1777 77.0222 49.2187C76.9344 49.2587 76.835 49.2786 76.7238 49.2786C76.6127 49.2786 76.5127 49.2587 76.424 49.2187C76.3352 49.1777 76.2592 49.1212 76.1958 49.049C76.1334 48.9759 76.0856 48.8906 76.0525 48.793C76.0193 48.6955 76.0027 48.5897 76.0027 48.4756ZM76.2733 48.442V48.4756C76.2733 48.5546 76.2826 48.6292 76.3011 48.6994C76.3196 48.7687 76.3474 48.8301 76.3845 48.8837C76.4225 48.9374 76.4698 48.9798 76.5264 49.011C76.5829 49.0412 76.6487 49.0563 76.7238 49.0563C76.7979 49.0563 76.8628 49.0412 76.9184 49.011C76.9749 48.9798 77.0217 48.9374 77.0588 48.8837C77.0958 48.8301 77.1236 48.7687 77.1421 48.6994C77.1616 48.6292 77.1714 48.5546 77.1714 48.4756V48.442C77.1714 48.364 77.1616 48.2904 77.1421 48.2211C77.1236 48.1509 77.0953 48.089 77.0573 48.0354C77.0203 47.9808 76.9734 47.9379 76.9169 47.9067C76.8613 47.8755 76.796 47.8599 76.7209 47.8599C76.6468 47.8599 76.5815 47.8755 76.5249 47.9067C76.4693 47.9379 76.4225 47.9808 76.3845 48.0354C76.3474 48.089 76.3196 48.1509 76.3011 48.2211C76.2826 48.2904 76.2733 48.364 76.2733 48.442ZM78.0534 47.971V49.8579H77.7813V47.6668H78.03L78.0534 47.971ZM79.1197 48.4449V48.4756C79.1197 48.5907 79.106 48.6975 79.0787 48.796C79.0514 48.8935 79.0114 48.9783 78.9588 49.0505C78.9071 49.1226 78.8432 49.1787 78.7672 49.2187C78.6911 49.2587 78.6038 49.2786 78.5053 49.2786C78.4049 49.2786 78.3162 49.2621 78.2391 49.2289C78.1621 49.1958 78.0968 49.1475 78.0431 49.0841C77.9895 49.0207 77.9466 48.9447 77.9144 48.8559C77.8832 48.7672 77.8618 48.6673 77.8501 48.5561V48.3923C77.8618 48.2753 77.8837 48.1704 77.9159 48.0778C77.9481 47.9852 77.9905 47.9062 78.0431 47.8408C78.0968 47.7745 78.1616 47.7243 78.2377 47.6902C78.3137 47.6551 78.4015 47.6375 78.501 47.6375C78.6004 47.6375 78.6887 47.657 78.7657 47.696C78.8427 47.7341 78.9076 47.7887 78.9602 47.8599C79.0129 47.931 79.0524 48.0164 79.0787 48.1158C79.106 48.2143 79.1197 48.324 79.1197 48.4449ZM78.8476 48.4756V48.4449C78.8476 48.3659 78.8393 48.2918 78.8227 48.2226C78.8062 48.1524 78.7803 48.091 78.7452 48.0383C78.7111 47.9847 78.6672 47.9427 78.6136 47.9125C78.5599 47.8813 78.4961 47.8657 78.422 47.8657C78.3537 47.8657 78.2942 47.8774 78.2435 47.9008C78.1938 47.9242 78.1514 47.9559 78.1163 47.9959C78.0812 48.0349 78.0524 48.0797 78.03 48.1305C78.0085 48.1802 77.9924 48.2319 77.9817 48.2855V48.6643C78.0012 48.7326 78.0285 48.7969 78.0636 48.8574C78.0987 48.9169 78.1455 48.9651 78.204 49.0022C78.2625 49.0383 78.3362 49.0563 78.4249 49.0563C78.498 49.0563 78.5609 49.0412 78.6136 49.011C78.6672 48.9798 78.7111 48.9374 78.7452 48.8837C78.7803 48.8301 78.8062 48.7687 78.8227 48.6994C78.8393 48.6292 78.8476 48.5546 78.8476 48.4756ZM80.1274 47.6668V47.8745H79.2718V47.6668H80.1274ZM79.5614 47.2821H79.832V48.8574C79.832 48.911 79.8403 48.9515 79.8568 48.9788C79.8734 49.0061 79.8949 49.0241 79.9212 49.0329C79.9475 49.0417 79.9758 49.0461 80.006 49.0461C80.0285 49.0461 80.0519 49.0441 80.0762 49.0402C80.1016 49.0354 80.1206 49.0315 80.1333 49.0285L80.1347 49.2494C80.1133 49.2562 80.085 49.2626 80.0499 49.2684C80.0158 49.2752 79.9743 49.2786 79.9256 49.2786C79.8593 49.2786 79.7983 49.2655 79.7428 49.2392C79.6872 49.2128 79.6428 49.1689 79.6097 49.1075C79.5775 49.0451 79.5614 48.9612 79.5614 48.8559V47.2821ZM80.7388 47.6668V49.2494H80.4668V47.6668H80.7388ZM80.4463 47.247C80.4463 47.2031 80.4595 47.1661 80.4858 47.1358C80.5131 47.1056 80.5531 47.0905 80.6057 47.0905C80.6574 47.0905 80.6969 47.1056 80.7242 47.1358C80.7525 47.1661 80.7666 47.2031 80.7666 47.247C80.7666 47.2889 80.7525 47.325 80.7242 47.3552C80.6969 47.3845 80.6574 47.3991 80.6057 47.3991C80.5531 47.3991 80.5131 47.3845 80.4858 47.3552C80.4595 47.325 80.4463 47.2889 80.4463 47.247ZM81.1016 48.4756V48.442C81.1016 48.3279 81.1181 48.2221 81.1513 48.1246C81.1844 48.0261 81.2322 47.9408 81.2946 47.8686C81.357 47.7955 81.4326 47.7389 81.5213 47.699C81.6101 47.658 81.7095 47.6375 81.8197 47.6375C81.9309 47.6375 82.0308 47.658 82.1196 47.699C82.2093 47.7389 82.2853 47.7955 82.3478 47.8686C82.4111 47.9408 82.4594 48.0261 82.4926 48.1246C82.5257 48.2221 82.5423 48.3279 82.5423 48.442V48.4756C82.5423 48.5897 82.5257 48.6955 82.4926 48.793C82.4594 48.8906 82.4111 48.9759 82.3478 49.049C82.2853 49.1212 82.2098 49.1777 82.121 49.2187C82.0333 49.2587 81.9338 49.2786 81.8227 49.2786C81.7115 49.2786 81.6115 49.2587 81.5228 49.2187C81.4341 49.1777 81.358 49.1212 81.2946 49.049C81.2322 48.9759 81.1844 48.8906 81.1513 48.793C81.1181 48.6955 81.1016 48.5897 81.1016 48.4756ZM81.3722 48.442V48.4756C81.3722 48.5546 81.3814 48.6292 81.3999 48.6994C81.4185 48.7687 81.4463 48.8301 81.4833 48.8837C81.5213 48.9374 81.5686 48.9798 81.6252 49.011C81.6818 49.0412 81.7476 49.0563 81.8227 49.0563C81.8968 49.0563 81.9616 49.0412 82.0172 49.011C82.0737 48.9798 82.1206 48.9374 82.1576 48.8837C82.1947 48.8301 82.2224 48.7687 82.241 48.6994C82.2605 48.6292 82.2702 48.5546 82.2702 48.4756V48.442C82.2702 48.364 82.2605 48.2904 82.241 48.2211C82.2224 48.1509 82.1942 48.089 82.1561 48.0354C82.1191 47.9808 82.0723 47.9379 82.0157 47.9067C81.9601 47.8755 81.8948 47.8599 81.8197 47.8599C81.7456 47.8599 81.6803 47.8755 81.6237 47.9067C81.5682 47.9379 81.5213 47.9808 81.4833 48.0354C81.4463 48.089 81.4185 48.1509 81.3999 48.2211C81.3814 48.2904 81.3722 48.364 81.3722 48.442ZM83.1522 48.0047V49.2494H82.8816V47.6668H83.1376L83.1522 48.0047ZM83.0879 48.3981L82.9752 48.3937C82.9762 48.2855 82.9923 48.1855 83.0235 48.0939C83.0547 48.0013 83.0986 47.9208 83.1551 47.8525C83.2117 47.7843 83.279 47.7316 83.357 47.6946C83.436 47.6566 83.5232 47.6375 83.6188 47.6375C83.6968 47.6375 83.767 47.6483 83.8294 47.6697C83.8918 47.6902 83.945 47.7233 83.9889 47.7692C84.0337 47.815 84.0678 47.8745 84.0912 47.9476C84.1146 48.0198 84.1263 48.108 84.1263 48.2124V49.2494H83.8543V48.2094C83.8543 48.1266 83.8421 48.0602 83.8177 48.0105C83.7933 47.9598 83.7578 47.9232 83.711 47.9008C83.6641 47.8774 83.6066 47.8657 83.5384 47.8657C83.4711 47.8657 83.4096 47.8799 83.3541 47.9081C83.2995 47.9364 83.2522 47.9754 83.2122 48.0251C83.1732 48.0749 83.1425 48.1319 83.12 48.1963C83.0986 48.2597 83.0879 48.3269 83.0879 48.3981ZM86.6465 49.0271V49.2494H85.2526V49.0549L85.9503 48.2782C86.0361 48.1826 86.1024 48.1017 86.1492 48.0354C86.197 47.9681 86.2301 47.9081 86.2487 47.8555C86.2682 47.8018 86.2779 47.7472 86.2779 47.6917C86.2779 47.6214 86.2633 47.5581 86.234 47.5015C86.2058 47.444 86.1638 47.3981 86.1083 47.364C86.0527 47.3299 85.9854 47.3128 85.9064 47.3128C85.8118 47.3128 85.7328 47.3314 85.6695 47.3684C85.607 47.4045 85.5602 47.4552 85.529 47.5205C85.4978 47.5859 85.4822 47.6609 85.4822 47.7458H85.2116C85.2116 47.6258 85.238 47.5161 85.2906 47.4167C85.3433 47.3172 85.4213 47.2382 85.5247 47.1797C85.628 47.1202 85.7553 47.0905 85.9064 47.0905C86.041 47.0905 86.156 47.1144 86.2516 47.1622C86.3472 47.209 86.4203 47.2753 86.471 47.3611C86.5227 47.4459 86.5485 47.5454 86.5485 47.6595C86.5485 47.7219 86.5378 47.7853 86.5163 47.8496C86.4959 47.913 86.4671 47.9764 86.43 48.0398C86.394 48.1032 86.3515 48.1656 86.3028 48.227C86.255 48.2884 86.2038 48.3489 86.1492 48.4084L85.5788 49.0271H86.6465Z" fill="#8794BA"/>
<path d="M35.3644 9.54412V10.9717H35.184V9.76937L34.8203 9.90199V9.73914L35.3361 9.54412H35.3644ZM36.79 10.5875C36.79 10.6739 36.7699 10.7474 36.7296 10.8079C36.6899 10.8677 36.636 10.9132 36.5677 10.9444C36.5001 10.9756 36.4237 10.9912 36.3385 10.9912C36.2534 10.9912 36.1767 10.9756 36.1084 10.9444C36.0402 10.9132 35.9862 10.8677 35.9466 10.8079C35.9069 10.7474 35.8871 10.6739 35.8871 10.5875C35.8871 10.5309 35.8978 10.4793 35.9192 10.4324C35.9414 10.385 35.9722 10.3437 36.0119 10.3086C36.0522 10.2735 36.0996 10.2465 36.1543 10.2277C36.2095 10.2082 36.2703 10.1984 36.3366 10.1984C36.4237 10.1984 36.5014 10.2153 36.5696 10.2491C36.6379 10.2823 36.6915 10.3281 36.7305 10.3866C36.7702 10.4451 36.79 10.5121 36.79 10.5875ZM36.6087 10.5836C36.6087 10.5309 36.5973 10.4845 36.5745 10.4441C36.5518 10.4032 36.5199 10.3713 36.479 10.3486C36.438 10.3258 36.3906 10.3145 36.3366 10.3145C36.2813 10.3145 36.2336 10.3258 36.1933 10.3486C36.1536 10.3713 36.1227 10.4032 36.1006 10.4441C36.0785 10.4845 36.0675 10.5309 36.0675 10.5836C36.0675 10.6382 36.0782 10.685 36.0996 10.724C36.1217 10.7624 36.153 10.7919 36.1933 10.8127C36.2342 10.8329 36.2826 10.843 36.3385 10.843C36.3945 10.843 36.4426 10.8329 36.4829 10.8127C36.5232 10.7919 36.554 10.7624 36.5755 10.724C36.5976 10.685 36.6087 10.6382 36.6087 10.5836ZM36.7569 9.92149C36.7569 9.9904 36.7387 10.0525 36.7023 10.1077C36.6659 10.163 36.6161 10.2065 36.5531 10.2384C36.49 10.2703 36.4185 10.2862 36.3385 10.2862C36.2573 10.2862 36.1848 10.2703 36.1211 10.2384C36.058 10.2065 36.0086 10.163 35.9729 10.1077C35.9371 10.0525 35.9192 9.9904 35.9192 9.92149C35.9192 9.83893 35.9371 9.76872 35.9729 9.71087C36.0093 9.65301 36.059 9.6088 36.1221 9.57825C36.1851 9.5477 36.257 9.53242 36.3376 9.53242C36.4188 9.53242 36.491 9.5477 36.554 9.57825C36.6171 9.6088 36.6665 9.65301 36.7023 9.71087C36.7387 9.76872 36.7569 9.83893 36.7569 9.92149ZM36.5765 9.92441C36.5765 9.87696 36.5664 9.83503 36.5462 9.79863C36.5261 9.76222 36.4981 9.73362 36.4624 9.71282C36.4266 9.69136 36.385 9.68064 36.3376 9.68064C36.2901 9.68064 36.2485 9.69071 36.2128 9.71087C36.1777 9.73037 36.15 9.75832 36.1299 9.79473C36.1104 9.83113 36.1006 9.87436 36.1006 9.92441C36.1006 9.97317 36.1104 10.0157 36.1299 10.0522C36.15 10.0886 36.178 10.1168 36.2137 10.137C36.2495 10.1571 36.2911 10.1672 36.3385 10.1672C36.386 10.1672 36.4273 10.1571 36.4624 10.137C36.4981 10.1168 36.5261 10.0886 36.5462 10.0522C36.5664 10.0157 36.5765 9.97317 36.5765 9.92441ZM37.4131 10.294V10.4422H36.9373V10.294H37.4131ZM38.5004 10.8235V10.9717H37.5711V10.842L38.0362 10.3242C38.0934 10.2605 38.1376 10.2065 38.1688 10.1623C38.2007 10.1175 38.2228 10.0775 38.2351 10.0424C38.2481 10.0066 38.2546 9.97024 38.2546 9.93319C38.2546 9.88639 38.2449 9.84413 38.2254 9.80643C38.2065 9.76807 38.1786 9.73752 38.1415 9.71477C38.1045 9.69201 38.0596 9.68064 38.007 9.68064C37.9439 9.68064 37.8912 9.69299 37.849 9.71769C37.8074 9.74174 37.7762 9.77555 37.7554 9.8191C37.7346 9.86266 37.7242 9.91271 37.7242 9.96927H37.5438C37.5438 9.88931 37.5613 9.81618 37.5964 9.74987C37.6315 9.68356 37.6835 9.63091 37.7525 9.5919C37.8214 9.55225 37.9062 9.53242 38.007 9.53242C38.0967 9.53242 38.1734 9.54835 38.2371 9.5802C38.3008 9.61141 38.3495 9.65561 38.3833 9.71282C38.4178 9.76937 38.435 9.83568 38.435 9.91174C38.435 9.95334 38.4279 9.9956 38.4136 10.0385C38.3999 10.0808 38.3807 10.123 38.356 10.1653C38.332 10.2075 38.3037 10.2491 38.2712 10.2901C38.2394 10.331 38.2052 10.3713 38.1688 10.411L37.7885 10.8235H38.5004ZM39.6529 10.4939V10.6421H38.6271V10.5358L39.2629 9.55192H39.4101L39.2522 9.83665L38.8319 10.4939H39.6529ZM39.455 9.55192V10.9717H39.2746V9.55192H39.455Z" fill="#8794BA"/>
<path d="M59.1666 23.8041V23.9523H58.2374V23.8226L58.7025 23.3048C58.7597 23.2411 58.8039 23.1871 58.8351 23.1429C58.867 23.0981 58.8891 23.0581 58.9014 23.023C58.9144 22.9872 58.9209 22.9508 58.9209 22.9138C58.9209 22.867 58.9112 22.8247 58.8917 22.787C58.8728 22.7487 58.8449 22.7181 58.8078 22.6954C58.7708 22.6726 58.7259 22.6612 58.6732 22.6612C58.6102 22.6612 58.5575 22.6736 58.5153 22.6983C58.4737 22.7223 58.4425 22.7561 58.4217 22.7997C58.4009 22.8432 58.3905 22.8933 58.3905 22.9499H58.2101C58.2101 22.8699 58.2276 22.7968 58.2627 22.7305C58.2978 22.6642 58.3498 22.6115 58.4187 22.5725C58.4876 22.5328 58.5725 22.513 58.6732 22.513C58.763 22.513 58.8397 22.5289 58.9034 22.5608C58.9671 22.592 59.0158 22.6362 59.0496 22.6934C59.0841 22.75 59.1013 22.8163 59.1013 22.8923C59.1013 22.9339 59.0942 22.9762 59.0799 23.0191C59.0662 23.0613 59.047 23.1036 59.0223 23.1459C58.9983 23.1881 58.97 23.2297 58.9375 23.2707C58.9056 23.3116 58.8715 23.3519 58.8351 23.3916L58.4548 23.8041H59.1666ZM59.5879 23.2765L59.4436 23.2395L59.5148 22.5325H60.2432V22.6993H59.6678L59.6249 23.0854C59.6509 23.0704 59.6838 23.0565 59.7234 23.0435C59.7637 23.0305 59.8099 23.024 59.8619 23.024C59.9276 23.024 59.9864 23.0353 60.0384 23.0581C60.0904 23.0802 60.1346 23.1121 60.171 23.1537C60.2081 23.1953 60.2363 23.2453 60.2558 23.3038C60.2753 23.3623 60.2851 23.4277 60.2851 23.4998C60.2851 23.5681 60.2757 23.6308 60.2568 23.688C60.2386 23.7452 60.211 23.7953 60.1739 23.8382C60.1369 23.8804 60.0901 23.9133 60.0335 23.9367C59.9776 23.9601 59.9116 23.9718 59.8356 23.9718C59.7784 23.9718 59.7241 23.964 59.6727 23.9484C59.622 23.9321 59.5765 23.9077 59.5362 23.8752C59.4966 23.8421 59.4641 23.8011 59.4387 23.7524C59.414 23.703 59.3984 23.6451 59.3919 23.5788H59.5635C59.5713 23.6321 59.5869 23.677 59.6103 23.7134C59.6337 23.7498 59.6643 23.7774 59.702 23.7963C59.7403 23.8145 59.7849 23.8236 59.8356 23.8236C59.8785 23.8236 59.9165 23.8161 59.9497 23.8011C59.9828 23.7862 60.0108 23.7647 60.0335 23.7368C60.0563 23.7088 60.0735 23.675 60.0852 23.6354C60.0975 23.5957 60.1037 23.5512 60.1037 23.5018C60.1037 23.4569 60.0975 23.4153 60.0852 23.377C60.0728 23.3386 60.0543 23.3051 60.0296 23.2765C60.0056 23.2479 59.976 23.2258 59.9409 23.2102C59.9058 23.194 59.8655 23.1858 59.82 23.1858C59.7595 23.1858 59.7137 23.194 59.6825 23.2102C59.6519 23.2265 59.6204 23.2486 59.5879 23.2765ZM60.878 23.2746V23.4228H60.4021V23.2746H60.878ZM61.2982 23.1537H61.4269C61.49 23.1537 61.542 23.1433 61.583 23.1225C61.6246 23.101 61.6554 23.0721 61.6756 23.0357C61.6964 22.9986 61.7068 22.957 61.7068 22.9109C61.7068 22.8563 61.6977 22.8104 61.6795 22.7734C61.6613 22.7363 61.634 22.7084 61.5976 22.6895C61.5612 22.6707 61.515 22.6612 61.4591 22.6612C61.4084 22.6612 61.3636 22.6713 61.3246 22.6915C61.2862 22.711 61.256 22.7389 61.2339 22.7753C61.2124 22.8117 61.2017 22.8546 61.2017 22.904H61.0213C61.0213 22.8319 61.0395 22.7662 61.0759 22.7071C61.1123 22.6479 61.1633 22.6008 61.229 22.5657C61.2953 22.5306 61.372 22.513 61.4591 22.513C61.5449 22.513 61.62 22.5283 61.6844 22.5588C61.7487 22.5887 61.7988 22.6336 61.8345 22.6934C61.8703 22.7526 61.8882 22.8263 61.8882 22.9148C61.8882 22.9505 61.8797 22.9889 61.8628 23.0298C61.8466 23.0701 61.8209 23.1078 61.7858 23.1429C61.7513 23.178 61.7065 23.207 61.6512 23.2297C61.596 23.2518 61.5297 23.2629 61.4523 23.2629H61.2982V23.1537ZM61.2982 23.3019V23.1936H61.4523C61.5427 23.1936 61.6174 23.2044 61.6766 23.2258C61.7357 23.2473 61.7822 23.2759 61.816 23.3116C61.8505 23.3474 61.8745 23.3867 61.8882 23.4296C61.9025 23.4719 61.9096 23.5141 61.9096 23.5564C61.9096 23.6227 61.8982 23.6815 61.8755 23.7329C61.8534 23.7842 61.8219 23.8278 61.7809 23.8635C61.7406 23.8993 61.6931 23.9263 61.6385 23.9445C61.5839 23.9627 61.5245 23.9718 61.4601 23.9718C61.3983 23.9718 61.3402 23.963 61.2856 23.9454C61.2316 23.9279 61.1838 23.9025 61.1422 23.8694C61.1006 23.8356 61.0681 23.7943 61.0447 23.7455C61.0213 23.6961 61.0096 23.6399 61.0096 23.5769H61.19C61.19 23.6263 61.2007 23.6695 61.2222 23.7065C61.2443 23.7436 61.2755 23.7725 61.3158 23.7933C61.3567 23.8135 61.4048 23.8236 61.4601 23.8236C61.5154 23.8236 61.5628 23.8141 61.6025 23.7953C61.6428 23.7758 61.6736 23.7465 61.6951 23.7075C61.7172 23.6685 61.7283 23.6194 61.7283 23.5603C61.7283 23.5011 61.7159 23.4527 61.6912 23.415C61.6665 23.3766 61.6314 23.3484 61.5859 23.3302C61.541 23.3113 61.488 23.3019 61.4269 23.3019H61.2982ZM63.1178 23.4745V23.6227H62.092V23.5164L62.7277 22.5325H62.875L62.717 22.8172L62.2967 23.4745H63.1178ZM62.9198 22.5325V23.9523H62.7394V22.5325H62.9198Z" fill="#8794BA"/>
<path d="M58.4997 44.9546H58.6284C58.6914 44.9546 58.7434 44.9442 58.7844 44.9234C58.826 44.9019 58.8569 44.873 58.877 44.8366C58.8978 44.7995 58.9082 44.7579 58.9082 44.7118C58.9082 44.6572 58.8991 44.6113 58.8809 44.5743C58.8627 44.5372 58.8354 44.5093 58.799 44.4904C58.7626 44.4716 58.7165 44.4621 58.6606 44.4621C58.6099 44.4621 58.565 44.4722 58.526 44.4924C58.4876 44.5119 58.4574 44.5398 58.4353 44.5762C58.4139 44.6126 58.4031 44.6555 58.4031 44.7049H58.2227C58.2227 44.6328 58.2409 44.5671 58.2773 44.508C58.3138 44.4488 58.3648 44.4017 58.4304 44.3666C58.4967 44.3315 58.5735 44.3139 58.6606 44.3139C58.7464 44.3139 58.8215 44.3292 58.8858 44.3597C58.9502 44.3896 59.0002 44.4345 59.036 44.4943C59.0717 44.5535 59.0896 44.6273 59.0896 44.7157C59.0896 44.7514 59.0812 44.7898 59.0643 44.8307C59.048 44.871 59.0223 44.9087 58.9872 44.9438C58.9528 44.9789 58.9079 45.0079 58.8527 45.0306C58.7974 45.0527 58.7311 45.0638 58.6537 45.0638H58.4997V44.9546ZM58.4997 45.1028V44.9945H58.6537C58.7441 44.9945 58.8189 45.0053 58.878 45.0267C58.9372 45.0482 58.9836 45.0768 59.0175 45.1125C59.0519 45.1483 59.076 45.1876 59.0896 45.2305C59.1039 45.2728 59.1111 45.315 59.1111 45.3573C59.1111 45.4236 59.0997 45.4824 59.0769 45.5338C59.0548 45.5851 59.0233 45.6287 58.9823 45.6644C58.942 45.7002 58.8946 45.7272 58.84 45.7454C58.7854 45.7636 58.7259 45.7727 58.6615 45.7727C58.5998 45.7727 58.5416 45.7639 58.487 45.7463C58.433 45.7288 58.3853 45.7034 58.3437 45.6703C58.302 45.6365 58.2695 45.5952 58.2461 45.5465C58.2227 45.497 58.211 45.4408 58.211 45.3778H58.3914C58.3914 45.4272 58.4022 45.4704 58.4236 45.5074C58.4457 45.5445 58.4769 45.5734 58.5172 45.5942C58.5582 45.6144 58.6063 45.6245 58.6615 45.6245C58.7168 45.6245 58.7643 45.615 58.8039 45.5962C58.8442 45.5767 58.8751 45.5474 58.8965 45.5084C58.9186 45.4694 58.9297 45.4203 58.9297 45.3612C58.9297 45.302 58.9173 45.2536 58.8926 45.2159C58.8679 45.1775 58.8328 45.1493 58.7873 45.1311C58.7425 45.1122 58.6895 45.1028 58.6284 45.1028H58.4997ZM59.5879 45.0774L59.4436 45.0404L59.5148 44.3334H60.2432V44.5002H59.6678L59.6249 44.8863C59.6509 44.8714 59.6838 44.8574 59.7234 44.8444C59.7637 44.8314 59.8099 44.8249 59.8619 44.8249C59.9276 44.8249 59.9864 44.8362 60.0384 44.859C60.0904 44.8811 60.1346 44.913 60.171 44.9546C60.2081 44.9962 60.2363 45.0462 60.2558 45.1047C60.2753 45.1632 60.2851 45.2286 60.2851 45.3007C60.2851 45.369 60.2757 45.4317 60.2568 45.4889C60.2386 45.5461 60.211 45.5962 60.1739 45.6391C60.1369 45.6813 60.0901 45.7142 60.0335 45.7376C59.9776 45.761 59.9116 45.7727 59.8356 45.7727C59.7784 45.7727 59.7241 45.7649 59.6727 45.7493C59.622 45.733 59.5765 45.7086 59.5362 45.6761C59.4966 45.643 59.4641 45.602 59.4387 45.5533C59.414 45.5039 59.3984 45.446 59.3919 45.3797H59.5635C59.5713 45.433 59.5869 45.4779 59.6103 45.5143C59.6337 45.5507 59.6643 45.5783 59.702 45.5972C59.7403 45.6154 59.7849 45.6245 59.8356 45.6245C59.8785 45.6245 59.9165 45.617 59.9497 45.602C59.9828 45.5871 60.0108 45.5656 60.0335 45.5377C60.0563 45.5097 60.0735 45.4759 60.0852 45.4363C60.0975 45.3966 60.1037 45.3521 60.1037 45.3027C60.1037 45.2578 60.0975 45.2162 60.0852 45.1779C60.0728 45.1395 60.0543 45.106 60.0296 45.0774C60.0056 45.0488 59.976 45.0267 59.9409 45.0111C59.9058 44.9949 59.8655 44.9867 59.82 44.9867C59.7595 44.9867 59.7137 44.9949 59.6825 45.0111C59.6519 45.0274 59.6204 45.0495 59.5879 45.0774ZM60.878 45.0755V45.2237H60.4021V45.0755H60.878ZM61.9945 45.2754V45.4236H60.9686V45.3173L61.6044 44.3334H61.7517L61.5937 44.6181L61.1734 45.2754H61.9945ZM61.7965 44.3334V45.7532H61.6161V44.3334H61.7965ZM63.1178 45.2754V45.4236H62.092V45.3173L62.7277 44.3334H62.875L62.717 44.6181L62.2967 45.2754H63.1178ZM62.9198 44.3334V45.7532H62.7394V44.3334H62.9198Z" fill="#8794BA"/>
<path d="M35.7311 59.4209V59.5691H34.7052V59.4628L35.341 58.4789H35.4883L35.3303 58.7637L34.91 59.4209H35.7311ZM35.5331 58.4789V59.8987H35.3527V58.4789H35.5331ZM36.123 59.2229L35.9787 59.1859L36.0499 58.4789H36.7783V58.6457H36.203L36.1601 59.0318C36.1861 59.0169 36.2189 59.0029 36.2586 58.9899C36.2989 58.9769 36.345 58.9704 36.3971 58.9704C36.4627 58.9704 36.5215 58.9818 36.5735 59.0045C36.6256 59.0266 36.6698 59.0585 36.7062 59.1001C36.7432 59.1417 36.7715 59.1917 36.791 59.2502C36.8105 59.3087 36.8202 59.3741 36.8202 59.4462C36.8202 59.5145 36.8108 59.5772 36.792 59.6344C36.7738 59.6916 36.7461 59.7417 36.7091 59.7846C36.672 59.8268 36.6252 59.8597 36.5687 59.8831C36.5128 59.9065 36.4468 59.9182 36.3707 59.9182C36.3135 59.9182 36.2592 59.9104 36.2079 59.8948C36.1572 59.8785 36.1117 59.8542 36.0714 59.8216C36.0317 59.7885 35.9992 59.7475 35.9739 59.6988C35.9492 59.6494 35.9336 59.5915 35.9271 59.5252H36.0987C36.1065 59.5785 36.1221 59.6234 36.1455 59.6598C36.1689 59.6962 36.1994 59.7238 36.2371 59.7427C36.2755 59.7609 36.32 59.77 36.3707 59.77C36.4136 59.77 36.4517 59.7625 36.4848 59.7475C36.518 59.7326 36.5459 59.7111 36.5687 59.6832C36.5914 59.6552 36.6087 59.6214 36.6204 59.5818C36.6327 59.5421 36.6389 59.4976 36.6389 59.4482C36.6389 59.4033 36.6327 59.3617 36.6204 59.3234C36.608 59.285 36.5895 59.2515 36.5648 59.2229C36.5407 59.1943 36.5111 59.1722 36.476 59.1566C36.4409 59.1404 36.4006 59.1322 36.3551 59.1322C36.2947 59.1322 36.2488 59.1404 36.2176 59.1566C36.1871 59.1729 36.1556 59.195 36.123 59.2229ZM37.4131 59.221V59.3692H36.9373V59.221H37.4131ZM37.7983 59.2229L37.654 59.1859L37.7251 58.4789H38.4536V58.6457H37.8782L37.8353 59.0318C37.8613 59.0169 37.8942 59.0029 37.9338 58.9899C37.9741 58.9769 38.0203 58.9704 38.0723 58.9704C38.1379 58.9704 38.1968 58.9818 38.2488 59.0045C38.3008 59.0266 38.345 59.0585 38.3814 59.1001C38.4184 59.1417 38.4467 59.1917 38.4662 59.2502C38.4857 59.3087 38.4955 59.3741 38.4955 59.4462C38.4955 59.5145 38.4861 59.5772 38.4672 59.6344C38.449 59.6916 38.4214 59.7417 38.3843 59.7846C38.3473 59.8268 38.3005 59.8597 38.2439 59.8831C38.188 59.9065 38.122 59.9182 38.046 59.9182C37.9888 59.9182 37.9345 59.9104 37.8831 59.8948C37.8324 59.8785 37.7869 59.8542 37.7466 59.8216C37.7069 59.7885 37.6744 59.7475 37.6491 59.6988C37.6244 59.6494 37.6088 59.5915 37.6023 59.5252H37.7739C37.7817 59.5785 37.7973 59.6234 37.8207 59.6598C37.8441 59.6962 37.8747 59.7238 37.9124 59.7427C37.9507 59.7609 37.9953 59.77 38.046 59.77C38.0889 59.77 38.1269 59.7625 38.16 59.7475C38.1932 59.7326 38.2212 59.7111 38.2439 59.6832C38.2667 59.6552 38.2839 59.6214 38.2956 59.5818C38.3079 59.5421 38.3141 59.4976 38.3141 59.4482C38.3141 59.4033 38.3079 59.3617 38.2956 59.3234C38.2832 59.285 38.2647 59.2515 38.24 59.2229C38.216 59.1943 38.1864 59.1722 38.1513 59.1566C38.1162 59.1404 38.0759 59.1322 38.0304 59.1322C37.9699 59.1322 37.9241 59.1404 37.8929 59.1566C37.8623 59.1729 37.8308 59.195 37.7983 59.2229ZM39.6529 59.4209V59.5691H38.6271V59.4628L39.2629 58.4789H39.4101L39.2522 58.7637L38.8319 59.4209H39.6529ZM39.455 58.4789V59.8987H39.2746V58.4789H39.455Z" fill="#8794BA"/>
<path d="M11.5344 45.0774L11.3901 45.0404L11.4613 44.3334H12.1897V44.5002H11.6144L11.5714 44.8863C11.5974 44.8714 11.6303 44.8574 11.6699 44.8444C11.7102 44.8314 11.7564 44.8249 11.8084 44.8249C11.8741 44.8249 11.9329 44.8362 11.9849 44.859C12.0369 44.8811 12.0811 44.913 12.1175 44.9546C12.1546 44.9962 12.1828 45.0462 12.2023 45.1047C12.2218 45.1632 12.2316 45.2286 12.2316 45.3007C12.2316 45.369 12.2222 45.4317 12.2033 45.4889C12.1851 45.5461 12.1575 45.5962 12.1204 45.6391C12.0834 45.6813 12.0366 45.7142 11.98 45.7376C11.9241 45.761 11.8581 45.7727 11.7821 45.7727C11.7249 45.7727 11.6706 45.7649 11.6192 45.7493C11.5685 45.733 11.523 45.7086 11.4827 45.6761C11.4431 45.643 11.4106 45.602 11.3852 45.5533C11.3605 45.5039 11.3449 45.446 11.3384 45.3797H11.51C11.5178 45.433 11.5334 45.4779 11.5568 45.5143C11.5802 45.5507 11.6108 45.5783 11.6485 45.5972C11.6868 45.6154 11.7314 45.6245 11.7821 45.6245C11.825 45.6245 11.863 45.617 11.8962 45.602C11.9293 45.5871 11.9573 45.5656 11.98 45.5377C12.0028 45.5097 12.02 45.4759 12.0317 45.4363C12.044 45.3966 12.0502 45.3521 12.0502 45.3027C12.0502 45.2578 12.044 45.2162 12.0317 45.1779C12.0193 45.1395 12.0008 45.106 11.9761 45.0774C11.9521 45.0488 11.9225 45.0267 11.8874 45.0111C11.8523 44.9949 11.812 44.9867 11.7665 44.9867C11.706 44.9867 11.6602 44.9949 11.629 45.0111C11.5984 45.0274 11.5669 45.0495 11.5344 45.0774ZM12.6577 45.0774L12.5134 45.0404L12.5846 44.3334H13.313V44.5002H12.7377L12.6948 44.8863C12.7208 44.8714 12.7536 44.8574 12.7933 44.8444C12.8336 44.8314 12.8797 44.8249 12.9317 44.8249C12.9974 44.8249 13.0562 44.8362 13.1082 44.859C13.1602 44.8811 13.2044 44.913 13.2408 44.9546C13.2779 44.9962 13.3062 45.0462 13.3257 45.1047C13.3452 45.1632 13.3549 45.2286 13.3549 45.3007C13.3549 45.369 13.3455 45.4317 13.3266 45.4889C13.3084 45.5461 13.2808 45.5962 13.2438 45.6391C13.2067 45.6813 13.1599 45.7142 13.1033 45.7376C13.0474 45.761 12.9815 45.7727 12.9054 45.7727C12.8482 45.7727 12.7939 45.7649 12.7425 45.7493C12.6918 45.733 12.6463 45.7086 12.606 45.6761C12.5664 45.643 12.5339 45.602 12.5085 45.5533C12.4838 45.5039 12.4682 45.446 12.4617 45.3797H12.6333C12.6411 45.433 12.6567 45.4779 12.6801 45.5143C12.7035 45.5507 12.7341 45.5783 12.7718 45.5972C12.8102 45.6154 12.8547 45.6245 12.9054 45.6245C12.9483 45.6245 12.9863 45.617 13.0195 45.602C13.0526 45.5871 13.0806 45.5656 13.1033 45.5377C13.1261 45.5097 13.1433 45.4759 13.155 45.4363C13.1674 45.3966 13.1735 45.3521 13.1735 45.3027C13.1735 45.2578 13.1674 45.2162 13.155 45.1779C13.1427 45.1395 13.1241 45.106 13.0994 45.0774C13.0754 45.0488 13.0458 45.0267 13.0107 45.0111C12.9756 44.9949 12.9353 44.9867 12.8898 44.9867C12.8293 44.9867 12.7835 44.9949 12.7523 45.0111C12.7217 45.0274 12.6902 45.0495 12.6577 45.0774ZM13.9478 45.0755V45.2237H13.4719V45.0755H13.9478ZM14.7971 44.3315H14.8127V44.4846H14.7971C14.7015 44.4846 14.6216 44.5002 14.5572 44.5314C14.4929 44.5619 14.4418 44.6032 14.4041 44.6552C14.3664 44.7066 14.3391 44.7644 14.3222 44.8288C14.306 44.8931 14.2978 44.9585 14.2978 45.0248V45.2334C14.2978 45.2965 14.3053 45.3524 14.3203 45.4012C14.3352 45.4493 14.3557 45.4899 14.3817 45.523C14.4077 45.5562 14.437 45.5812 14.4695 45.5981C14.5026 45.615 14.5371 45.6235 14.5728 45.6235C14.6144 45.6235 14.6515 45.6157 14.684 45.6001C14.7165 45.5838 14.7438 45.5614 14.7659 45.5328C14.7886 45.5035 14.8059 45.4691 14.8176 45.4294C14.8293 45.3898 14.8351 45.3462 14.8351 45.2988C14.8351 45.2565 14.8299 45.2159 14.8195 45.1769C14.8091 45.1372 14.7932 45.1021 14.7717 45.0716C14.7503 45.0404 14.7233 45.016 14.6908 44.9984C14.659 44.9802 14.6209 44.9711 14.5767 44.9711C14.5267 44.9711 14.4799 44.9835 14.4363 45.0082C14.3934 45.0322 14.358 45.0641 14.33 45.1038C14.3027 45.1428 14.2871 45.1853 14.2832 45.2315L14.1877 45.2305C14.1968 45.1577 14.2137 45.0956 14.2384 45.0443C14.2637 44.9923 14.2949 44.95 14.332 44.9175C14.3697 44.8844 14.4116 44.8603 14.4578 44.8453C14.5046 44.8297 14.554 44.8219 14.606 44.8219C14.6768 44.8219 14.7379 44.8353 14.7893 44.8619C14.8407 44.8886 14.8829 44.9243 14.9161 44.9692C14.9492 45.0134 14.9736 45.0634 14.9892 45.1194C15.0054 45.1746 15.0136 45.2315 15.0136 45.29C15.0136 45.357 15.0041 45.4197 14.9853 45.4782C14.9664 45.5367 14.9382 45.5881 14.9005 45.6323C14.8634 45.6765 14.8176 45.7109 14.763 45.7356C14.7084 45.7603 14.645 45.7727 14.5728 45.7727C14.4961 45.7727 14.4292 45.7571 14.372 45.7259C14.3147 45.694 14.2673 45.6518 14.2296 45.5991C14.1919 45.5465 14.1636 45.4879 14.1448 45.4236C14.1259 45.3592 14.1165 45.2939 14.1165 45.2276V45.1428C14.1165 45.0426 14.1266 44.9445 14.1467 44.8483C14.1669 44.7521 14.2016 44.665 14.251 44.5869C14.3011 44.5089 14.3703 44.4469 14.4587 44.4007C14.5471 44.3545 14.6599 44.3315 14.7971 44.3315ZM16.1876 45.2754V45.4236H15.1618V45.3173L15.7976 44.3334H15.9448L15.7868 44.6181L15.3666 45.2754H16.1876ZM15.9897 44.3334V45.7532H15.8093V44.3334H15.9897Z" fill="#8794BA"/>
<path d="M12.8312 22.5306H12.8468V22.6837H12.8312C12.7357 22.6837 12.6557 22.6993 12.5913 22.7305C12.527 22.761 12.476 22.8023 12.4383 22.8543C12.4006 22.9057 12.3732 22.9635 12.3563 23.0279C12.3401 23.0922 12.332 23.1576 12.332 23.2239V23.4325C12.332 23.4956 12.3394 23.5515 12.3544 23.6003C12.3693 23.6484 12.3898 23.689 12.4158 23.7221C12.4418 23.7553 12.4711 23.7803 12.5036 23.7972C12.5367 23.8141 12.5712 23.8226 12.6069 23.8226C12.6486 23.8226 12.6856 23.8148 12.7181 23.7992C12.7506 23.7829 12.7779 23.7605 12.8 23.7319C12.8228 23.7026 12.84 23.6682 12.8517 23.6285C12.8634 23.5889 12.8693 23.5453 12.8693 23.4979C12.8693 23.4556 12.8641 23.415 12.8537 23.376C12.8433 23.3363 12.8273 23.3012 12.8059 23.2707C12.7844 23.2395 12.7574 23.2151 12.7249 23.1975C12.6931 23.1793 12.6551 23.1702 12.6108 23.1702C12.5608 23.1702 12.514 23.1826 12.4704 23.2073C12.4275 23.2313 12.3921 23.2632 12.3641 23.3028C12.3368 23.3419 12.3212 23.3844 12.3173 23.4306L12.2218 23.4296C12.2309 23.3568 12.2478 23.2947 12.2725 23.2434C12.2978 23.1914 12.329 23.1491 12.3661 23.1166C12.4038 23.0835 12.4457 23.0594 12.4919 23.0444C12.5387 23.0288 12.5881 23.021 12.6401 23.021C12.711 23.021 12.7721 23.0344 12.8234 23.061C12.8748 23.0877 12.917 23.1234 12.9502 23.1683C12.9833 23.2125 13.0077 23.2625 13.0233 23.3185C13.0396 23.3737 13.0477 23.4306 13.0477 23.4891C13.0477 23.5561 13.0383 23.6188 13.0194 23.6773C13.0006 23.7358 12.9723 23.7872 12.9346 23.8314C12.8975 23.8756 12.8517 23.91 12.7971 23.9347C12.7425 23.9594 12.6791 23.9718 12.6069 23.9718C12.5302 23.9718 12.4633 23.9562 12.4061 23.925C12.3489 23.8931 12.3014 23.8509 12.2637 23.7982C12.226 23.7455 12.1977 23.687 12.1789 23.6227C12.16 23.5583 12.1506 23.493 12.1506 23.4267V23.3419C12.1506 23.2417 12.1607 23.1436 12.1808 23.0474C12.201 22.9512 12.2358 22.8641 12.2852 22.786C12.3352 22.708 12.4045 22.646 12.4929 22.5998C12.5813 22.5536 12.6941 22.5306 12.8312 22.5306ZM13.4904 23.2765L13.3461 23.2395L13.4173 22.5325H14.1457V22.6993H13.5704L13.5275 23.0854C13.5535 23.0704 13.5863 23.0565 13.6259 23.0435C13.6662 23.0305 13.7124 23.024 13.7644 23.024C13.8301 23.024 13.8889 23.0353 13.9409 23.0581C13.9929 23.0802 14.0371 23.1121 14.0735 23.1537C14.1106 23.1953 14.1388 23.2453 14.1583 23.3038C14.1778 23.3623 14.1876 23.4277 14.1876 23.4998C14.1876 23.5681 14.1782 23.6308 14.1593 23.688C14.1411 23.7452 14.1135 23.7953 14.0764 23.8382C14.0394 23.8804 13.9926 23.9133 13.936 23.9367C13.8801 23.9601 13.8141 23.9718 13.7381 23.9718C13.6809 23.9718 13.6266 23.964 13.5752 23.9484C13.5245 23.9321 13.479 23.9077 13.4387 23.8752C13.3991 23.8421 13.3666 23.8011 13.3412 23.7524C13.3165 23.703 13.3009 23.6451 13.2944 23.5788H13.466C13.4738 23.6321 13.4894 23.677 13.5128 23.7134C13.5362 23.7498 13.5668 23.7774 13.6045 23.7963C13.6428 23.8145 13.6874 23.8236 13.7381 23.8236C13.781 23.8236 13.819 23.8161 13.8522 23.8011C13.8853 23.7862 13.9133 23.7647 13.936 23.7368C13.9588 23.7088 13.976 23.675 13.9877 23.6354C14.0001 23.5957 14.0062 23.5512 14.0062 23.5018C14.0062 23.4569 14.0001 23.4153 13.9877 23.377C13.9753 23.3386 13.9568 23.3051 13.9321 23.2765C13.9081 23.2479 13.8785 23.2258 13.8434 23.2102C13.8083 23.194 13.768 23.1858 13.7225 23.1858C13.662 23.1858 13.6162 23.194 13.585 23.2102C13.5544 23.2265 13.5229 23.2486 13.4904 23.2765ZM15.3168 23.1907V23.3604H14.3436V23.1907H15.3168ZM14.9209 22.7763V23.8099H14.7405V22.7763H14.9209Z" fill="#8794BA"/>
</svg>
