<svg width="101" height="69" viewBox="0 0 101 69" fill="none" xmlns="http://www.w3.org/2000/svg">
<rect x="0.65625" y="0.604126" width="99.851" height="68.2315" rx="4.99255" fill="white"/>
<rect x="10.8081" y="58.3512" width="0.166419" height="79.5479" transform="rotate(-90 10.8081 58.3512)" fill="#EEEEF7"/>
<rect x="10.8076" y="51.5281" width="0.166419" height="79.5479" transform="rotate(-90 10.8076 51.5281)" fill="#EEEEF7"/>
<rect x="10.8076" y="44.7049" width="0.166419" height="79.5479" transform="rotate(-90 10.8076 44.7049)" fill="#EEEEF7"/>
<rect x="10.8076" y="37.8818" width="0.166419" height="79.5479" transform="rotate(-90 10.8076 37.8818)" fill="#EEEEF7"/>
<rect x="10.8076" y="31.0587" width="0.166419" height="79.5479" transform="rotate(-90 10.8076 31.0587)" fill="#EEEEF7"/>
<rect x="10.8076" y="24.2355" width="0.166419" height="79.5479" transform="rotate(-90 10.8076 24.2355)" fill="#EEEEF7"/>
<rect x="10.8076" y="17.4123" width="0.166419" height="79.5479" transform="rotate(-90 10.8076 17.4123)" fill="#EEEEF7"/>
<rect x="10.8076" y="10.5892" width="0.166419" height="79.5479" transform="rotate(-90 10.8076 10.5892)" fill="#EEEEF7"/>
<path d="M10.8007 60.0886V61.5161H10.6203V60.3138L10.2566 60.4464V60.2836L10.7724 60.0886H10.8007ZM12.2263 61.1319C12.2263 61.2184 12.2061 61.2918 12.1658 61.3523C12.1262 61.4121 12.0722 61.4576 12.004 61.4888C11.9364 61.52 11.86 61.5356 11.7748 61.5356C11.6897 61.5356 11.613 61.52 11.5447 61.4888C11.4764 61.4576 11.4225 61.4121 11.3828 61.3523C11.3432 61.2918 11.3233 61.2184 11.3233 61.1319C11.3233 61.0754 11.3341 61.0237 11.3555 60.9769C11.3776 60.9294 11.4085 60.8881 11.4482 60.853C11.4885 60.8179 11.5359 60.791 11.5905 60.7721C11.6458 60.7526 11.7066 60.7429 11.7729 60.7429C11.86 60.7429 11.9377 60.7598 12.0059 60.7936C12.0742 60.8267 12.1278 60.8725 12.1668 60.931C12.2065 60.9896 12.2263 61.0565 12.2263 61.1319ZM12.0449 61.128C12.0449 61.0754 12.0336 61.0289 12.0108 60.9886C11.988 60.9476 11.9562 60.9158 11.9152 60.893C11.8743 60.8703 11.8268 60.8589 11.7729 60.8589C11.7176 60.8589 11.6698 60.8703 11.6295 60.893C11.5899 60.9158 11.559 60.9476 11.5369 60.9886C11.5148 61.0289 11.5037 61.0754 11.5037 61.128C11.5037 61.1826 11.5145 61.2294 11.5359 61.2684C11.558 61.3068 11.5892 61.3364 11.6295 61.3572C11.6705 61.3773 11.7189 61.3874 11.7748 61.3874C11.8307 61.3874 11.8788 61.3773 11.9191 61.3572C11.9594 61.3364 11.9903 61.3068 12.0118 61.2684C12.0339 61.2294 12.0449 61.1826 12.0449 61.128ZM12.1931 60.4659C12.1931 60.5348 12.1749 60.5969 12.1385 60.6522C12.1021 60.7074 12.0524 60.751 11.9893 60.7828C11.9263 60.8147 11.8548 60.8306 11.7748 60.8306C11.6936 60.8306 11.6211 60.8147 11.5574 60.7828C11.4943 60.751 11.4449 60.7074 11.4092 60.6522C11.3734 60.5969 11.3555 60.5348 11.3555 60.4659C11.3555 60.3834 11.3734 60.3132 11.4092 60.2553C11.4456 60.1974 11.4953 60.1532 11.5583 60.1227C11.6214 60.0921 11.6932 60.0769 11.7738 60.0769C11.8551 60.0769 11.9273 60.0921 11.9903 60.1227C12.0534 60.1532 12.1028 60.1974 12.1385 60.2553C12.1749 60.3132 12.1931 60.3834 12.1931 60.4659ZM12.0127 60.4688C12.0127 60.4214 12.0027 60.3795 11.9825 60.3431C11.9624 60.3067 11.9344 60.2781 11.8987 60.2572C11.8629 60.2358 11.8213 60.2251 11.7738 60.2251C11.7264 60.2251 11.6848 60.2351 11.649 60.2553C11.6139 60.2748 11.5863 60.3028 11.5661 60.3392C11.5466 60.3756 11.5369 60.4188 11.5369 60.4688C11.5369 60.5176 11.5466 60.5602 11.5661 60.5966C11.5863 60.633 11.6143 60.6613 11.65 60.6814C11.6858 60.7016 11.7274 60.7116 11.7748 60.7116C11.8223 60.7116 11.8636 60.7016 11.8987 60.6814C11.9344 60.6613 11.9624 60.633 11.9825 60.5966C12.0027 60.5602 12.0127 60.5176 12.0127 60.4688ZM12.8494 60.8384V60.9866H12.3735V60.8384H12.8494ZM13.9366 61.3679V61.5161H13.0074V61.3864L13.4725 60.8686C13.5297 60.8049 13.5739 60.751 13.6051 60.7068C13.637 60.6619 13.6591 60.6219 13.6714 60.5868C13.6844 60.5511 13.6909 60.5147 13.6909 60.4776C13.6909 60.4308 13.6812 60.3886 13.6617 60.3509C13.6428 60.3125 13.6148 60.282 13.5778 60.2592C13.5407 60.2364 13.4959 60.2251 13.4432 60.2251C13.3802 60.2251 13.3275 60.2374 13.2853 60.2621C13.2437 60.2862 13.2125 60.32 13.1917 60.3635C13.1709 60.4071 13.1604 60.4571 13.1604 60.5137H12.9801C12.9801 60.4337 12.9976 60.3606 13.0327 60.2943C13.0678 60.228 13.1198 60.1753 13.1887 60.1363C13.2576 60.0967 13.3425 60.0769 13.4432 60.0769C13.5329 60.0769 13.6096 60.0928 13.6734 60.1246C13.7371 60.1558 13.7858 60.2 13.8196 60.2572C13.8541 60.3138 13.8713 60.3801 13.8713 60.4562C13.8713 60.4978 13.8642 60.54 13.8498 60.5829C13.8362 60.6252 13.817 60.6674 13.7923 60.7097C13.7683 60.752 13.74 60.7936 13.7075 60.8345C13.6756 60.8755 13.6415 60.9158 13.6051 60.9554L13.2248 61.3679H13.9366ZM15.0892 61.0383V61.1865H14.0634V61.0802L14.6992 60.0964H14.8464L14.6884 60.3811L14.2682 61.0383H15.0892ZM14.8913 60.0964V61.5161H14.7109V60.0964H14.8913Z" fill="#8794BA"/>
<path d="M48.414 60.7175H48.5427C48.6057 60.7175 48.6578 60.7071 48.6987 60.6863C48.7403 60.6648 48.7712 60.6359 48.7913 60.5995C48.8121 60.5625 48.8225 60.5209 48.8225 60.4747C48.8225 60.4201 48.8134 60.3743 48.7952 60.3372C48.777 60.3002 48.7497 60.2722 48.7133 60.2533C48.6769 60.2345 48.6308 60.2251 48.5749 60.2251C48.5242 60.2251 48.4793 60.2351 48.4403 60.2553C48.4019 60.2748 48.3717 60.3028 48.3496 60.3392C48.3282 60.3756 48.3174 60.4185 48.3174 60.4679H48.137C48.137 60.3957 48.1552 60.3301 48.1917 60.2709C48.2281 60.2117 48.2791 60.1646 48.3447 60.1295C48.411 60.0944 48.4878 60.0769 48.5749 60.0769C48.6607 60.0769 48.7358 60.0921 48.8001 60.1227C48.8645 60.1526 48.9145 60.1974 48.9503 60.2572C48.986 60.3164 49.0039 60.3902 49.0039 60.4786C49.0039 60.5144 48.9955 60.5527 48.9786 60.5937C48.9623 60.634 48.9366 60.6717 48.9015 60.7068C48.8671 60.7419 48.8222 60.7708 48.767 60.7936C48.7117 60.8157 48.6454 60.8267 48.568 60.8267H48.414V60.7175ZM48.414 60.8657V60.7575H48.568C48.6584 60.7575 48.7332 60.7682 48.7923 60.7897C48.8515 60.8111 48.898 60.8397 48.9318 60.8755C48.9662 60.9112 48.9903 60.9506 49.0039 60.9935C49.0182 61.0357 49.0254 61.078 49.0254 61.1202C49.0254 61.1865 49.014 61.2454 48.9912 61.2967C48.9691 61.3481 48.9376 61.3916 48.8967 61.4274C48.8563 61.4631 48.8089 61.4901 48.7543 61.5083C48.6997 61.5265 48.6402 61.5356 48.5758 61.5356C48.5141 61.5356 48.4559 61.5268 48.4013 61.5093C48.3473 61.4917 48.2996 61.4664 48.258 61.4332C48.2164 61.3994 48.1838 61.3581 48.1604 61.3094C48.137 61.26 48.1253 61.2038 48.1253 61.1407H48.3057C48.3057 61.1901 48.3165 61.2333 48.3379 61.2704C48.36 61.3074 48.3912 61.3364 48.4315 61.3572C48.4725 61.3773 48.5206 61.3874 48.5758 61.3874C48.6311 61.3874 48.6786 61.378 48.7182 61.3591C48.7585 61.3396 48.7894 61.3104 48.8108 61.2714C48.8329 61.2324 48.844 61.1833 48.844 61.1241C48.844 61.065 48.8316 61.0165 48.8069 60.9788C48.7822 60.9405 48.7471 60.9122 48.7016 60.894C48.6568 60.8751 48.6038 60.8657 48.5427 60.8657H48.414ZM49.5022 60.8404L49.3579 60.8033L49.4291 60.0964H50.1575V60.2631H49.5822L49.5392 60.6492C49.5653 60.6343 49.5981 60.6203 49.6377 60.6073C49.678 60.5943 49.7242 60.5878 49.7762 60.5878C49.8419 60.5878 49.9007 60.5992 49.9527 60.6219C50.0047 60.644 50.0489 60.6759 50.0853 60.7175C50.1224 60.7591 50.1506 60.8092 50.1701 60.8677C50.1896 60.9262 50.1994 60.9915 50.1994 61.0637C50.1994 61.1319 50.19 61.1947 50.1711 61.2519C50.1529 61.3091 50.1253 61.3591 50.0882 61.402C50.0512 61.4443 50.0044 61.4771 49.9478 61.5005C49.8919 61.5239 49.8259 61.5356 49.7499 61.5356C49.6927 61.5356 49.6384 61.5278 49.587 61.5122C49.5363 61.496 49.4908 61.4716 49.4505 61.4391C49.4109 61.4059 49.3784 61.365 49.353 61.3162C49.3283 61.2668 49.3127 61.209 49.3062 61.1426H49.4778C49.4856 61.196 49.5012 61.2408 49.5246 61.2772C49.548 61.3136 49.5786 61.3412 49.6163 61.3601C49.6546 61.3783 49.6992 61.3874 49.7499 61.3874C49.7928 61.3874 49.8308 61.3799 49.864 61.365C49.8971 61.35 49.9251 61.3286 49.9478 61.3006C49.9706 61.2727 49.9878 61.2389 49.9995 61.1992C50.0119 61.1595 50.018 61.115 50.018 61.0656C50.018 61.0208 50.0119 60.9792 49.9995 60.9408C49.9871 60.9024 49.9686 60.869 49.9439 60.8404C49.9199 60.8118 49.8903 60.7897 49.8552 60.7741C49.8201 60.7578 49.7798 60.7497 49.7343 60.7497C49.6738 60.7497 49.628 60.7578 49.5968 60.7741C49.5662 60.7903 49.5347 60.8124 49.5022 60.8404ZM50.7923 60.8384V60.9866H50.3164V60.8384H50.7923ZM51.9088 61.0383V61.1865H50.8829V61.0802L51.5187 60.0964H51.666L51.508 60.3811L51.0877 61.0383H51.9088ZM51.7108 60.0964V61.5161H51.5304V60.0964H51.7108ZM53.0321 61.0383V61.1865H52.0063V61.0802L52.642 60.0964H52.7893L52.6313 60.3811L52.211 61.0383H53.0321ZM52.8341 60.0964V61.5161H52.6537V60.0964H52.8341Z" fill="#8794BA"/>
<path d="M87.7867 60.0944H87.8023V60.2475H87.7867C87.6911 60.2475 87.6112 60.2631 87.5468 60.2943C87.4825 60.3249 87.4314 60.3661 87.3937 60.4181C87.356 60.4695 87.3287 60.5274 87.3118 60.5917C87.2956 60.6561 87.2874 60.7214 87.2874 60.7877V60.9964C87.2874 61.0594 87.2949 61.1153 87.3099 61.1641C87.3248 61.2122 87.3453 61.2528 87.3713 61.286C87.3973 61.3191 87.4266 61.3442 87.4591 61.3611C87.4922 61.378 87.5267 61.3864 87.5624 61.3864C87.604 61.3864 87.6411 61.3786 87.6736 61.363C87.7061 61.3468 87.7334 61.3243 87.7555 61.2957C87.7783 61.2665 87.7955 61.232 87.8072 61.1924C87.8189 61.1527 87.8247 61.1092 87.8247 61.0617C87.8247 61.0195 87.8195 60.9788 87.8091 60.9398C87.7987 60.9002 87.7828 60.8651 87.7614 60.8345C87.7399 60.8033 87.7129 60.7789 87.6804 60.7614C87.6486 60.7432 87.6105 60.7341 87.5663 60.7341C87.5163 60.7341 87.4695 60.7464 87.4259 60.7711C87.383 60.7952 87.3476 60.827 87.3196 60.8667C87.2923 60.9057 87.2767 60.9483 87.2728 60.9944L87.1773 60.9935C87.1864 60.9206 87.2033 60.8586 87.228 60.8072C87.2533 60.7552 87.2845 60.713 87.3216 60.6804C87.3593 60.6473 87.4012 60.6232 87.4474 60.6083C87.4942 60.5927 87.5436 60.5849 87.5956 60.5849C87.6664 60.5849 87.7275 60.5982 87.7789 60.6249C87.8303 60.6515 87.8725 60.6873 87.9057 60.7321C87.9388 60.7763 87.9632 60.8264 87.9788 60.8823C87.9951 60.9375 88.0032 60.9944 88.0032 61.0529C88.0032 61.1199 87.9938 61.1826 87.9749 61.2411C87.956 61.2996 87.9278 61.351 87.8901 61.3952C87.853 61.4394 87.8072 61.4739 87.7526 61.4986C87.698 61.5233 87.6346 61.5356 87.5624 61.5356C87.4857 61.5356 87.4188 61.52 87.3616 61.4888C87.3044 61.457 87.2569 61.4147 87.2192 61.362C87.1815 61.3094 87.1532 61.2509 87.1344 61.1865C87.1155 61.1222 87.1061 61.0568 87.1061 60.9905V60.9057C87.1061 60.8056 87.1162 60.7074 87.1363 60.6112C87.1565 60.515 87.1912 60.4279 87.2406 60.3499C87.2907 60.2719 87.3599 60.2098 87.4483 60.1636C87.5368 60.1175 87.6495 60.0944 87.7867 60.0944ZM88.4459 60.8404L88.3016 60.8033L88.3727 60.0964H89.1011V60.2631H88.5258L88.4829 60.6492C88.5089 60.6343 88.5418 60.6203 88.5814 60.6073C88.6217 60.5943 88.6679 60.5878 88.7199 60.5878C88.7855 60.5878 88.8444 60.5992 88.8964 60.6219C88.9484 60.644 88.9926 60.6759 89.029 60.7175C89.066 60.7591 89.0943 60.8092 89.1138 60.8677C89.1333 60.9262 89.1431 60.9915 89.1431 61.0637C89.1431 61.1319 89.1337 61.1947 89.1148 61.2519C89.0966 61.3091 89.069 61.3591 89.0319 61.402C88.9949 61.4443 88.9481 61.4771 88.8915 61.5005C88.8356 61.5239 88.7696 61.5356 88.6936 61.5356C88.6363 61.5356 88.5821 61.5278 88.5307 61.5122C88.48 61.496 88.4345 61.4716 88.3942 61.4391C88.3545 61.4059 88.322 61.365 88.2967 61.3162C88.272 61.2668 88.2564 61.209 88.2499 61.1426H88.4215C88.4293 61.196 88.4449 61.2408 88.4683 61.2772C88.4917 61.3136 88.5223 61.3412 88.56 61.3601C88.5983 61.3783 88.6428 61.3874 88.6936 61.3874C88.7365 61.3874 88.7745 61.3799 88.8076 61.365C88.8408 61.35 88.8687 61.3286 88.8915 61.3006C88.9143 61.2727 88.9315 61.2389 88.9432 61.1992C88.9555 61.1595 88.9617 61.115 88.9617 61.0656C88.9617 61.0208 88.9555 60.9792 88.9432 60.9408C88.9308 60.9024 88.9123 60.869 88.8876 60.8404C88.8635 60.8118 88.834 60.7897 88.7989 60.7741C88.7638 60.7578 88.7235 60.7497 88.678 60.7497C88.6175 60.7497 88.5717 60.7578 88.5405 60.7741C88.5099 60.7903 88.4784 60.8124 88.4459 60.8404ZM90.2723 60.7546V60.9242H89.2991V60.7546H90.2723ZM89.8764 60.3401V61.3737H89.696V60.3401H89.8764Z" fill="#8794BA"/>
<path opacity="0.1" d="M61.0495 33.8877L72.5305 35.3022L81.5264 28.7443L90.5225 19.9918V58.1848H10.8081V54.115L17.8541 49.8366L25.3167 45.7807L37.4426 48.1652L49.5686 48.3756L61.0495 33.8877Z" fill="#EF2A82"/>
<path d="M90.6057 19.9918L81.5264 28.3127L72.5305 35.1358L61.0495 33.8877L49.5686 48.4177L37.4426 48.206L25.3167 45.8075L17.8541 49.8872L10.8081 54.1907" stroke="#EF2A82" stroke-width="0.665673"/>
<path d="M90.6054 15.9977L81.5262 17.0795L72.5302 29.8105L61.0493 26.8981L49.5683 41.1269L37.4424 44.6217L25.3164 39.962L17.8539 38.654L10.8911 48.6157" stroke="#0088F0" stroke-width="0.665673"/>
</svg>
