<svg width="101" height="69" viewBox="0 0 101 69" fill="none" xmlns="http://www.w3.org/2000/svg">
<rect x="0.832031" y="0.484375" width="99.851" height="68.2315" rx="4.99255" fill="white"/>
<path d="M78.2908 21.2904V21.6236L76.3588 25.9553H75.734L77.6628 21.7774H75.1381V21.2904H78.2908ZM79.5563 25.4587H79.6172C79.9589 25.4587 80.2366 25.4107 80.4502 25.3145C80.6638 25.2184 80.8283 25.0892 80.9436 24.9269C81.0589 24.7645 81.138 24.5819 81.1807 24.379C81.2234 24.1739 81.2448 23.9635 81.2448 23.7478V23.0333C81.2448 22.8219 81.2202 22.6339 81.1711 22.4695C81.1241 22.305 81.0579 22.1672 80.9724 22.0561C80.8891 21.9451 80.7941 21.8607 80.6873 21.803C80.5805 21.7454 80.4673 21.7165 80.3477 21.7165C80.211 21.7165 80.0882 21.7443 79.9792 21.7998C79.8724 21.8532 79.7816 21.9291 79.7069 22.0273C79.6343 22.1256 79.5787 22.2409 79.5403 22.3733C79.5018 22.5058 79.4826 22.6499 79.4826 22.8059C79.4826 22.9447 79.4997 23.0793 79.5339 23.2096C79.568 23.3399 79.6204 23.4573 79.6909 23.562C79.7614 23.6667 79.8489 23.75 79.9536 23.8119C80.0604 23.8717 80.1853 23.9016 80.3284 23.9016C80.4609 23.9016 80.5848 23.876 80.7001 23.8247C80.8176 23.7713 80.9212 23.6998 81.0109 23.6101C81.1027 23.5182 81.1753 23.4146 81.2287 23.2993C81.2843 23.1839 81.3163 23.0632 81.3249 22.9372H81.6068C81.6068 23.1145 81.5716 23.2897 81.5011 23.4627C81.4327 23.6335 81.3366 23.7895 81.2127 23.9304C81.0888 24.0714 80.9436 24.1846 80.777 24.2701C80.6104 24.3534 80.4288 24.395 80.2323 24.395C80.0016 24.395 79.8019 24.3502 79.6332 24.2604C79.4645 24.1707 79.3256 24.0511 79.2167 23.9016C79.1099 23.7521 79.0298 23.5855 78.9764 23.4018C78.9251 23.216 78.8995 23.028 78.8995 22.8379C78.8995 22.6158 78.9305 22.4075 78.9924 22.2131C79.0544 22.0188 79.1462 21.8479 79.2679 21.7005C79.3897 21.551 79.5403 21.4346 79.7197 21.3513C79.9013 21.268 80.1106 21.2263 80.3477 21.2263C80.6147 21.2263 80.8421 21.2797 81.0301 21.3865C81.2181 21.4933 81.3708 21.6364 81.4883 21.8159C81.6079 21.9953 81.6955 22.1971 81.751 22.4214C81.8065 22.6457 81.8343 22.8764 81.8343 23.1134V23.3281C81.8343 23.5695 81.8183 23.8151 81.7862 24.065C81.7563 24.3128 81.6976 24.5499 81.61 24.7763C81.5246 25.0027 81.3996 25.2056 81.2352 25.385C81.0707 25.5623 80.856 25.7033 80.5912 25.8079C80.3284 25.9105 80.0038 25.9617 79.6172 25.9617H79.5563V25.4587ZM82.6064 22.4342V22.1875C82.6064 22.0102 82.6449 21.849 82.7218 21.7037C82.7987 21.5585 82.9087 21.4421 83.0518 21.3545C83.1949 21.2669 83.3647 21.2231 83.5612 21.2231C83.762 21.2231 83.9329 21.2669 84.0738 21.3545C84.2169 21.4421 84.3269 21.5585 84.4038 21.7037C84.4807 21.849 84.5192 22.0102 84.5192 22.1875V22.4342C84.5192 22.6072 84.4807 22.7664 84.4038 22.9116C84.3291 23.0568 84.2201 23.1732 84.077 23.2608C83.9361 23.3484 83.7663 23.3922 83.5676 23.3922C83.369 23.3922 83.197 23.3484 83.0518 23.2608C82.9087 23.1732 82.7987 23.0568 82.7218 22.9116C82.6449 22.7664 82.6064 22.6072 82.6064 22.4342ZM83.0518 22.1875V22.4342C83.0518 22.5325 83.0699 22.6254 83.1062 22.713C83.1447 22.8005 83.2024 22.8721 83.2793 22.9276C83.3562 22.981 83.4523 23.0077 83.5676 23.0077C83.683 23.0077 83.778 22.981 83.8528 22.9276C83.9275 22.8721 83.9831 22.8005 84.0194 22.713C84.0557 22.6254 84.0738 22.5325 84.0738 22.4342V22.1875C84.0738 22.0871 84.0546 21.9931 84.0162 21.9056C83.9798 21.8159 83.9232 21.7443 83.8464 21.6909C83.7716 21.6354 83.6765 21.6076 83.5612 21.6076C83.448 21.6076 83.3529 21.6354 83.2761 21.6909C83.2013 21.7443 83.1447 21.8159 83.1062 21.9056C83.0699 21.9931 83.0518 22.0871 83.0518 22.1875ZM84.878 25.0614V24.8115C84.878 24.6364 84.9165 24.4762 84.9934 24.3309C85.0703 24.1857 85.1803 24.0693 85.3234 23.9817C85.4665 23.8941 85.6363 23.8503 85.8328 23.8503C86.0336 23.8503 86.2044 23.8941 86.3454 23.9817C86.4885 24.0693 86.5985 24.1857 86.6754 24.3309C86.7523 24.4762 86.7908 24.6364 86.7908 24.8115V25.0614C86.7908 25.2366 86.7523 25.3968 86.6754 25.542C86.6007 25.6873 86.4917 25.8037 86.3486 25.8912C86.2076 25.9788 86.0378 26.0226 85.8392 26.0226C85.6406 26.0226 85.4697 25.9788 85.3266 25.8912C85.1835 25.8037 85.0724 25.6873 84.9934 25.542C84.9165 25.3968 84.878 25.2366 84.878 25.0614ZM85.3234 24.8115V25.0614C85.3234 25.1597 85.3415 25.2537 85.3778 25.3434C85.4163 25.4309 85.4739 25.5025 85.5508 25.558C85.6277 25.6114 85.7239 25.6381 85.8392 25.6381C85.9545 25.6381 86.0496 25.6114 86.1243 25.558C86.2012 25.5025 86.2578 25.4309 86.2942 25.3434C86.3305 25.2558 86.3486 25.1618 86.3486 25.0614V24.8115C86.3486 24.7111 86.3294 24.6172 86.2909 24.5296C86.2546 24.442 86.198 24.3715 86.1211 24.3181C86.0464 24.2626 85.9503 24.2348 85.8328 24.2348C85.7196 24.2348 85.6245 24.2626 85.5476 24.3181C85.4729 24.3715 85.4163 24.442 85.3778 24.5296C85.3415 24.6172 85.3234 24.7111 85.3234 24.8115ZM85.9802 21.9536L83.7022 25.5997L83.369 25.3882L85.647 21.7422L85.9802 21.9536Z" fill="#0088F0"/>
<path d="M75.7644 30.0032V29.9696C75.7644 29.8555 75.781 29.7497 75.8142 29.6522C75.8473 29.5537 75.8951 29.4684 75.9575 29.3962C76.0199 29.3231 76.0955 29.2665 76.1842 29.2266C76.273 29.1856 76.3724 29.1651 76.4826 29.1651C76.5938 29.1651 76.6937 29.1856 76.7825 29.2266C76.8722 29.2665 76.9482 29.3231 77.0106 29.3962C77.074 29.4684 77.1223 29.5537 77.1554 29.6522C77.1886 29.7497 77.2052 29.8555 77.2052 29.9696V30.0032C77.2052 30.1173 77.1886 30.2231 77.1554 30.3206C77.1223 30.4181 77.074 30.5035 77.0106 30.5766C76.9482 30.6488 76.8727 30.7053 76.7839 30.7463C76.6962 30.7862 76.5967 30.8062 76.4855 30.8062C76.3744 30.8062 76.2744 30.7862 76.1857 30.7463C76.097 30.7053 76.0209 30.6488 75.9575 30.5766C75.8951 30.5035 75.8473 30.4181 75.8142 30.3206C75.781 30.2231 75.7644 30.1173 75.7644 30.0032ZM76.035 29.9696V30.0032C76.035 30.0822 76.0443 30.1568 76.0628 30.227C76.0814 30.2962 76.1091 30.3577 76.1462 30.4113C76.1842 30.4649 76.2315 30.5074 76.2881 30.5386C76.3446 30.5688 76.4105 30.5839 76.4855 30.5839C76.5596 30.5839 76.6245 30.5688 76.6801 30.5386C76.7366 30.5074 76.7834 30.4649 76.8205 30.4113C76.8575 30.3577 76.8853 30.2962 76.9039 30.227C76.9234 30.1568 76.9331 30.0822 76.9331 30.0032V29.9696C76.9331 29.8916 76.9234 29.818 76.9039 29.7487C76.8853 29.6785 76.8571 29.6166 76.819 29.563C76.782 29.5084 76.7352 29.4655 76.6786 29.4343C76.623 29.4031 76.5577 29.3874 76.4826 29.3874C76.4085 29.3874 76.3432 29.4031 76.2866 29.4343C76.231 29.4655 76.1842 29.5084 76.1462 29.563C76.1091 29.6166 76.0814 29.6785 76.0628 29.7487C76.0443 29.818 76.035 29.8916 76.035 29.9696ZM77.8151 29.4986V31.3854H77.543V29.1944H77.7917L77.8151 29.4986ZM78.8814 29.9725V30.0032C78.8814 30.1183 78.8677 30.2251 78.8404 30.3236C78.8131 30.4211 78.7731 30.5059 78.7205 30.5781C78.6688 30.6502 78.6049 30.7063 78.5289 30.7463C78.4528 30.7862 78.3655 30.8062 78.2671 30.8062C78.1666 30.8062 78.0779 30.7897 78.0009 30.7565C77.9238 30.7233 77.8585 30.6751 77.8049 30.6117C77.7512 30.5483 77.7083 30.4723 77.6761 30.3835C77.6449 30.2948 77.6235 30.1948 77.6118 30.0837V29.9199C77.6235 29.8028 77.6454 29.698 77.6776 29.6054C77.7098 29.5128 77.7522 29.4338 77.8049 29.3684C77.8585 29.3021 77.9233 29.2519 77.9994 29.2178C78.0755 29.1827 78.1632 29.1651 78.2627 29.1651C78.3621 29.1651 78.4504 29.1846 78.5274 29.2236C78.6044 29.2617 78.6693 29.3163 78.7219 29.3874C78.7746 29.4586 78.8141 29.544 78.8404 29.6434C78.8677 29.7419 78.8814 29.8516 78.8814 29.9725ZM78.6093 30.0032V29.9725C78.6093 29.8935 78.601 29.8194 78.5845 29.7502C78.5679 29.68 78.542 29.6186 78.5069 29.5659C78.4728 29.5123 78.4289 29.4703 78.3753 29.4401C78.3217 29.4089 78.2578 29.3933 78.1837 29.3933C78.1154 29.3933 78.0559 29.405 78.0052 29.4284C77.9555 29.4518 77.9131 29.4835 77.878 29.5235C77.8429 29.5625 77.8141 29.6073 77.7917 29.658C77.7702 29.7078 77.7542 29.7595 77.7434 29.8131V30.1919C77.7629 30.2602 77.7902 30.3245 77.8253 30.385C77.8604 30.4445 77.9072 30.4927 77.9658 30.5298C78.0243 30.5659 78.0979 30.5839 78.1866 30.5839C78.2597 30.5839 78.3226 30.5688 78.3753 30.5386C78.4289 30.5074 78.4728 30.4649 78.5069 30.4113C78.542 30.3577 78.5679 30.2962 78.5845 30.227C78.601 30.1568 78.6093 30.0822 78.6093 30.0032ZM79.8892 29.1944V29.4021H79.0335V29.1944H79.8892ZM79.3231 28.8097H79.5937V30.385C79.5937 30.4386 79.602 30.4791 79.6186 30.5064C79.6351 30.5337 79.6566 30.5517 79.6829 30.5605C79.7092 30.5693 79.7375 30.5737 79.7678 30.5737C79.7902 30.5737 79.8136 30.5717 79.838 30.5678C79.8633 30.5629 79.8823 30.559 79.895 30.5561L79.8965 30.777C79.875 30.7838 79.8467 30.7901 79.8116 30.796C79.7775 30.8028 79.7361 30.8062 79.6873 30.8062C79.621 30.8062 79.5601 30.7931 79.5045 30.7667C79.4489 30.7404 79.4045 30.6965 79.3714 30.6351C79.3392 30.5727 79.3231 30.4888 79.3231 30.3835V28.8097ZM80.5005 29.1944V30.777H80.2285V29.1944H80.5005ZM80.208 28.7746C80.208 28.7307 80.2212 28.6937 80.2475 28.6634C80.2748 28.6332 80.3148 28.6181 80.3674 28.6181C80.4191 28.6181 80.4586 28.6332 80.4859 28.6634C80.5142 28.6937 80.5283 28.7307 80.5283 28.7746C80.5283 28.8165 80.5142 28.8526 80.4859 28.8828C80.4586 28.9121 80.4191 28.9267 80.3674 28.9267C80.3148 28.9267 80.2748 28.9121 80.2475 28.8828C80.2212 28.8526 80.208 28.8165 80.208 28.7746ZM80.8633 30.0032V29.9696C80.8633 29.8555 80.8799 29.7497 80.913 29.6522C80.9462 29.5537 80.9939 29.4684 81.0564 29.3962C81.1188 29.3231 81.1943 29.2665 81.2831 29.2266C81.3718 29.1856 81.4713 29.1651 81.5814 29.1651C81.6926 29.1651 81.7926 29.1856 81.8813 29.2266C81.971 29.2665 82.0471 29.3231 82.1095 29.3962C82.1729 29.4684 82.2211 29.5537 82.2543 29.6522C82.2874 29.7497 82.304 29.8555 82.304 29.9696V30.0032C82.304 30.1173 82.2874 30.2231 82.2543 30.3206C82.2211 30.4181 82.1729 30.5035 82.1095 30.5766C82.0471 30.6488 81.9715 30.7053 81.8828 30.7463C81.795 30.7862 81.6955 30.8062 81.5844 30.8062C81.4732 30.8062 81.3733 30.7862 81.2845 30.7463C81.1958 30.7053 81.1197 30.6488 81.0564 30.5766C80.9939 30.5035 80.9462 30.4181 80.913 30.3206C80.8799 30.2231 80.8633 30.1173 80.8633 30.0032ZM81.1339 29.9696V30.0032C81.1339 30.0822 81.1431 30.1568 81.1617 30.227C81.1802 30.2962 81.208 30.3577 81.245 30.4113C81.2831 30.4649 81.3304 30.5074 81.3869 30.5386C81.4435 30.5688 81.5093 30.5839 81.5844 30.5839C81.6585 30.5839 81.7233 30.5688 81.7789 30.5386C81.8355 30.5074 81.8823 30.4649 81.9193 30.4113C81.9564 30.3577 81.9842 30.2962 82.0027 30.227C82.0222 30.1568 82.0319 30.0822 82.0319 30.0032V29.9696C82.0319 29.8916 82.0222 29.818 82.0027 29.7487C81.9842 29.6785 81.9559 29.6166 81.9179 29.563C81.8808 29.5084 81.834 29.4655 81.7774 29.4343C81.7219 29.4031 81.6565 29.3874 81.5814 29.3874C81.5073 29.3874 81.442 29.4031 81.3855 29.4343C81.3299 29.4655 81.2831 29.5084 81.245 29.563C81.208 29.6166 81.1802 29.6785 81.1617 29.7487C81.1431 29.818 81.1339 29.8916 81.1339 29.9696ZM82.9139 29.5323V30.777H82.6433V29.1944H82.8993L82.9139 29.5323ZM82.8496 29.9257L82.737 29.9213C82.7379 29.8131 82.754 29.7131 82.7852 29.6215C82.8164 29.5288 82.8603 29.4484 82.9169 29.3801C82.9734 29.3119 83.0407 29.2592 83.1187 29.2222C83.1977 29.1841 83.285 29.1651 83.3805 29.1651C83.4585 29.1651 83.5287 29.1759 83.5911 29.1973C83.6536 29.2178 83.7067 29.2509 83.7506 29.2968C83.7954 29.3426 83.8296 29.4021 83.853 29.4752C83.8764 29.5474 83.8881 29.6356 83.8881 29.74V30.777H83.616V29.737C83.616 29.6541 83.6038 29.5878 83.5794 29.5381C83.5551 29.4874 83.5195 29.4508 83.4727 29.4284C83.4259 29.405 83.3683 29.3933 83.3001 29.3933C83.2328 29.3933 83.1714 29.4074 83.1158 29.4357C83.0612 29.464 83.0139 29.503 82.9739 29.5527C82.9349 29.6025 82.9042 29.6595 82.8818 29.7239C82.8603 29.7872 82.8496 29.8545 82.8496 29.9257ZM85.9021 28.6356V30.777H85.6316V28.9735L85.086 29.1724V28.9282L85.8597 28.6356H85.9021Z" fill="#8794BA"/>
<path d="M78.2171 43.3318C78.2171 43.6159 78.1508 43.8572 78.0184 44.0559C77.8881 44.2524 77.7108 44.4019 77.4866 44.5044C77.2644 44.6069 77.0135 44.6582 76.7336 44.6582C76.4538 44.6582 76.2018 44.6069 75.9775 44.5044C75.7532 44.4019 75.576 44.2524 75.4457 44.0559C75.3154 43.8572 75.2502 43.6159 75.2502 43.3318C75.2502 43.1459 75.2855 42.9761 75.356 42.8223C75.4286 42.6664 75.53 42.5308 75.6603 42.4154C75.7928 42.3001 75.9487 42.2115 76.1281 42.1495C76.3097 42.0854 76.5094 42.0534 76.7272 42.0534C77.0135 42.0534 77.2687 42.1089 77.493 42.22C77.7172 42.3289 77.8935 42.4795 78.0216 42.6718C78.1519 42.864 78.2171 43.084 78.2171 43.3318ZM77.6211 43.319C77.6211 43.1459 77.5838 42.9932 77.509 42.8608C77.4342 42.7262 77.3296 42.6216 77.195 42.5468C77.0604 42.4721 76.9045 42.4347 76.7272 42.4347C76.5457 42.4347 76.3887 42.4721 76.2563 42.5468C76.126 42.6216 76.0245 42.7262 75.9519 42.8608C75.8793 42.9932 75.843 43.1459 75.843 43.319C75.843 43.4984 75.8782 43.6522 75.9487 43.7803C76.0213 43.9063 76.1238 44.0035 76.2563 44.0719C76.3908 44.1381 76.55 44.1712 76.7336 44.1712C76.9173 44.1712 77.0754 44.1381 77.2078 44.0719C77.3403 44.0035 77.4417 43.9063 77.5122 43.7803C77.5848 43.6522 77.6211 43.4984 77.6211 43.319ZM78.1081 41.1435C78.1081 41.3699 78.0483 41.5739 77.9287 41.7554C77.8091 41.937 77.6457 42.0801 77.4385 42.1848C77.2313 42.2894 76.9964 42.3418 76.7336 42.3418C76.4666 42.3418 76.2285 42.2894 76.0192 42.1848C75.812 42.0801 75.6496 41.937 75.5322 41.7554C75.4147 41.5739 75.356 41.3699 75.356 41.1435C75.356 40.8722 75.4147 40.6415 75.5322 40.4514C75.6518 40.2613 75.8152 40.1161 76.0224 40.0157C76.2296 39.9153 76.4656 39.8651 76.7304 39.8651C76.9974 39.8651 77.2345 39.9153 77.4417 40.0157C77.6489 40.1161 77.8112 40.2613 77.9287 40.4514C78.0483 40.6415 78.1081 40.8722 78.1081 41.1435ZM77.5154 41.1531C77.5154 40.9972 77.4823 40.8594 77.4161 40.7398C77.3499 40.6202 77.258 40.5262 77.1405 40.4579C77.0231 40.3874 76.8864 40.3521 76.7304 40.3521C76.5745 40.3521 76.4378 40.3852 76.3203 40.4514C76.205 40.5155 76.1142 40.6074 76.048 40.727C75.9839 40.8466 75.9519 40.9886 75.9519 41.1531C75.9519 41.3133 75.9839 41.4532 76.048 41.5728C76.1142 41.6924 76.2061 41.7853 76.3235 41.8516C76.441 41.9178 76.5777 41.9509 76.7336 41.9509C76.8896 41.9509 77.0252 41.9178 77.1405 41.8516C77.258 41.7853 77.3499 41.6924 77.4161 41.5728C77.4823 41.4532 77.5154 41.3133 77.5154 41.1531ZM81.9817 39.9292V40.2624L80.0497 44.5941H79.4249L81.3537 40.4162H78.829V39.9292H81.9817ZM82.6064 41.073V40.8263C82.6064 40.649 82.6449 40.4878 82.7218 40.3425C82.7987 40.1973 82.9087 40.0809 83.0518 39.9933C83.1949 39.9057 83.3647 39.8619 83.5612 39.8619C83.762 39.8619 83.9329 39.9057 84.0738 39.9933C84.2169 40.0809 84.3269 40.1973 84.4038 40.3425C84.4807 40.4878 84.5192 40.649 84.5192 40.8263V41.073C84.5192 41.246 84.4807 41.4051 84.4038 41.5504C84.3291 41.6956 84.2201 41.812 84.077 41.8996C83.9361 41.9872 83.7663 42.031 83.5676 42.031C83.369 42.031 83.197 41.9872 83.0518 41.8996C82.9087 41.812 82.7987 41.6956 82.7218 41.5504C82.6449 41.4051 82.6064 41.246 82.6064 41.073ZM83.0518 40.8263V41.073C83.0518 41.1713 83.0699 41.2642 83.1062 41.3517C83.1447 41.4393 83.2024 41.5109 83.2793 41.5664C83.3562 41.6198 83.4523 41.6465 83.5676 41.6465C83.683 41.6465 83.778 41.6198 83.8528 41.5664C83.9275 41.5109 83.9831 41.4393 84.0194 41.3517C84.0557 41.2642 84.0738 41.1713 84.0738 41.073V40.8263C84.0738 40.7259 84.0546 40.6319 84.0162 40.5444C83.9798 40.4546 83.9232 40.3831 83.8464 40.3297C83.7716 40.2742 83.6765 40.2464 83.5612 40.2464C83.448 40.2464 83.3529 40.2742 83.2761 40.3297C83.2013 40.3831 83.1447 40.4546 83.1062 40.5444C83.0699 40.6319 83.0518 40.7259 83.0518 40.8263ZM84.878 43.7002V43.4503C84.878 43.2752 84.9165 43.115 84.9934 42.9697C85.0703 42.8245 85.1803 42.7081 85.3234 42.6205C85.4665 42.5329 85.6363 42.4891 85.8328 42.4891C86.0336 42.4891 86.2044 42.5329 86.3454 42.6205C86.4885 42.7081 86.5985 42.8245 86.6754 42.9697C86.7523 43.115 86.7908 43.2752 86.7908 43.4503V43.7002C86.7908 43.8754 86.7523 44.0356 86.6754 44.1808C86.6007 44.3261 86.4917 44.4425 86.3486 44.53C86.2076 44.6176 86.0378 44.6614 85.8392 44.6614C85.6406 44.6614 85.4697 44.6176 85.3266 44.53C85.1835 44.4425 85.0724 44.3261 84.9934 44.1808C84.9165 44.0356 84.878 43.8754 84.878 43.7002ZM85.3234 43.4503V43.7002C85.3234 43.7985 85.3415 43.8925 85.3778 43.9822C85.4163 44.0697 85.4739 44.1413 85.5508 44.1968C85.6277 44.2502 85.7239 44.2769 85.8392 44.2769C85.9545 44.2769 86.0496 44.2502 86.1243 44.1968C86.2012 44.1413 86.2578 44.0697 86.2942 43.9822C86.3305 43.8946 86.3486 43.8006 86.3486 43.7002V43.4503C86.3486 43.3499 86.3294 43.2559 86.2909 43.1684C86.2546 43.0808 86.198 43.0103 86.1211 42.9569C86.0464 42.9014 85.9503 42.8736 85.8328 42.8736C85.7196 42.8736 85.6245 42.9014 85.5476 42.9569C85.4729 43.0103 85.4163 43.0808 85.3778 43.1684C85.3415 43.2559 85.3234 43.3499 85.3234 43.4503ZM85.9802 40.5924L83.7022 44.2385L83.369 44.027L85.647 40.381L85.9802 40.5924Z" fill="#EF2A82"/>
<path d="M75.7644 48.642V48.6084C75.7644 48.4943 75.781 48.3885 75.8142 48.291C75.8473 48.1925 75.8951 48.1072 75.9575 48.035C76.0199 47.9619 76.0955 47.9053 76.1842 47.8654C76.273 47.8244 76.3724 47.8039 76.4826 47.8039C76.5938 47.8039 76.6937 47.8244 76.7825 47.8654C76.8722 47.9053 76.9482 47.9619 77.0106 48.035C77.074 48.1072 77.1223 48.1925 77.1554 48.291C77.1886 48.3885 77.2052 48.4943 77.2052 48.6084V48.642C77.2052 48.7561 77.1886 48.8619 77.1554 48.9594C77.1223 49.0569 77.074 49.1423 77.0106 49.2154C76.9482 49.2875 76.8727 49.3441 76.7839 49.3851C76.6962 49.425 76.5967 49.445 76.4855 49.445C76.3744 49.445 76.2744 49.425 76.1857 49.3851C76.097 49.3441 76.0209 49.2875 75.9575 49.2154C75.8951 49.1423 75.8473 49.0569 75.8142 48.9594C75.781 48.8619 75.7644 48.7561 75.7644 48.642ZM76.035 48.6084V48.642C76.035 48.721 76.0443 48.7956 76.0628 48.8658C76.0814 48.935 76.1091 48.9965 76.1462 49.0501C76.1842 49.1037 76.2315 49.1462 76.2881 49.1774C76.3446 49.2076 76.4105 49.2227 76.4855 49.2227C76.5596 49.2227 76.6245 49.2076 76.6801 49.1774C76.7366 49.1462 76.7834 49.1037 76.8205 49.0501C76.8575 48.9965 76.8853 48.935 76.9039 48.8658C76.9234 48.7956 76.9331 48.721 76.9331 48.642V48.6084C76.9331 48.5304 76.9234 48.4568 76.9039 48.3875C76.8853 48.3173 76.8571 48.2554 76.819 48.2018C76.782 48.1472 76.7352 48.1043 76.6786 48.073C76.623 48.0418 76.5577 48.0262 76.4826 48.0262C76.4085 48.0262 76.3432 48.0418 76.2866 48.073C76.231 48.1043 76.1842 48.1472 76.1462 48.2018C76.1091 48.2554 76.0814 48.3173 76.0628 48.3875C76.0443 48.4568 76.035 48.5304 76.035 48.6084ZM77.8151 48.1374V50.0242H77.543V47.8332H77.7917L77.8151 48.1374ZM78.8814 48.6113V48.642C78.8814 48.7571 78.8677 48.8639 78.8404 48.9623C78.8131 49.0599 78.7731 49.1447 78.7205 49.2168C78.6688 49.289 78.6049 49.3451 78.5289 49.3851C78.4528 49.425 78.3655 49.445 78.2671 49.445C78.1666 49.445 78.0779 49.4284 78.0009 49.3953C77.9238 49.3621 77.8585 49.3139 77.8049 49.2505C77.7512 49.1871 77.7083 49.1111 77.6761 49.0223C77.6449 48.9336 77.6235 48.8336 77.6118 48.7225V48.5587C77.6235 48.4416 77.6454 48.3368 77.6776 48.2442C77.7098 48.1515 77.7522 48.0726 77.8049 48.0072C77.8585 47.9409 77.9233 47.8907 77.9994 47.8566C78.0755 47.8215 78.1632 47.8039 78.2627 47.8039C78.3621 47.8039 78.4504 47.8234 78.5274 47.8624C78.6044 47.9005 78.6693 47.9551 78.7219 48.0262C78.7746 48.0974 78.8141 48.1827 78.8404 48.2822C78.8677 48.3807 78.8814 48.4904 78.8814 48.6113ZM78.6093 48.642V48.6113C78.6093 48.5323 78.601 48.4582 78.5845 48.389C78.5679 48.3188 78.542 48.2573 78.5069 48.2047C78.4728 48.1511 78.4289 48.1091 78.3753 48.0789C78.3217 48.0477 78.2578 48.0321 78.1837 48.0321C78.1154 48.0321 78.0559 48.0438 78.0052 48.0672C77.9555 48.0906 77.9131 48.1223 77.878 48.1623C77.8429 48.2013 77.8141 48.2461 77.7917 48.2968C77.7702 48.3466 77.7542 48.3982 77.7434 48.4519V48.8307C77.7629 48.899 77.7902 48.9633 77.8253 49.0238C77.8604 49.0833 77.9072 49.1315 77.9658 49.1686C78.0243 49.2047 78.0979 49.2227 78.1866 49.2227C78.2597 49.2227 78.3226 49.2076 78.3753 49.1774C78.4289 49.1462 78.4728 49.1037 78.5069 49.0501C78.542 48.9965 78.5679 48.935 78.5845 48.8658C78.601 48.7956 78.6093 48.721 78.6093 48.642ZM79.8892 47.8332V48.0409H79.0335V47.8332H79.8892ZM79.3231 47.4485H79.5937V49.0238C79.5937 49.0774 79.602 49.1179 79.6186 49.1452C79.6351 49.1725 79.6566 49.1905 79.6829 49.1993C79.7092 49.2081 79.7375 49.2125 79.7678 49.2125C79.7902 49.2125 79.8136 49.2105 79.838 49.2066C79.8633 49.2017 79.8823 49.1978 79.895 49.1949L79.8965 49.4158C79.875 49.4226 79.8467 49.4289 79.8116 49.4348C79.7775 49.4416 79.7361 49.445 79.6873 49.445C79.621 49.445 79.5601 49.4319 79.5045 49.4055C79.4489 49.3792 79.4045 49.3353 79.3714 49.2739C79.3392 49.2115 79.3231 49.1276 79.3231 49.0223V47.4485ZM80.5005 47.8332V49.4158H80.2285V47.8332H80.5005ZM80.208 47.4134C80.208 47.3695 80.2212 47.3325 80.2475 47.3022C80.2748 47.272 80.3148 47.2569 80.3674 47.2569C80.4191 47.2569 80.4586 47.272 80.4859 47.3022C80.5142 47.3325 80.5283 47.3695 80.5283 47.4134C80.5283 47.4553 80.5142 47.4914 80.4859 47.5216C80.4586 47.5509 80.4191 47.5655 80.3674 47.5655C80.3148 47.5655 80.2748 47.5509 80.2475 47.5216C80.2212 47.4914 80.208 47.4553 80.208 47.4134ZM80.8633 48.642V48.6084C80.8633 48.4943 80.8799 48.3885 80.913 48.291C80.9462 48.1925 80.9939 48.1072 81.0564 48.035C81.1188 47.9619 81.1943 47.9053 81.2831 47.8654C81.3718 47.8244 81.4713 47.8039 81.5814 47.8039C81.6926 47.8039 81.7926 47.8244 81.8813 47.8654C81.971 47.9053 82.0471 47.9619 82.1095 48.035C82.1729 48.1072 82.2211 48.1925 82.2543 48.291C82.2874 48.3885 82.304 48.4943 82.304 48.6084V48.642C82.304 48.7561 82.2874 48.8619 82.2543 48.9594C82.2211 49.0569 82.1729 49.1423 82.1095 49.2154C82.0471 49.2875 81.9715 49.3441 81.8828 49.3851C81.795 49.425 81.6955 49.445 81.5844 49.445C81.4732 49.445 81.3733 49.425 81.2845 49.3851C81.1958 49.3441 81.1197 49.2875 81.0564 49.2154C80.9939 49.1423 80.9462 49.0569 80.913 48.9594C80.8799 48.8619 80.8633 48.7561 80.8633 48.642ZM81.1339 48.6084V48.642C81.1339 48.721 81.1431 48.7956 81.1617 48.8658C81.1802 48.935 81.208 48.9965 81.245 49.0501C81.2831 49.1037 81.3304 49.1462 81.3869 49.1774C81.4435 49.2076 81.5093 49.2227 81.5844 49.2227C81.6585 49.2227 81.7233 49.2076 81.7789 49.1774C81.8355 49.1462 81.8823 49.1037 81.9193 49.0501C81.9564 48.9965 81.9842 48.935 82.0027 48.8658C82.0222 48.7956 82.0319 48.721 82.0319 48.642V48.6084C82.0319 48.5304 82.0222 48.4568 82.0027 48.3875C81.9842 48.3173 81.9559 48.2554 81.9179 48.2018C81.8808 48.1472 81.834 48.1043 81.7774 48.073C81.7219 48.0418 81.6565 48.0262 81.5814 48.0262C81.5073 48.0262 81.442 48.0418 81.3855 48.073C81.3299 48.1043 81.2831 48.1472 81.245 48.2018C81.208 48.2554 81.1802 48.3173 81.1617 48.3875C81.1431 48.4568 81.1339 48.5304 81.1339 48.6084ZM82.9139 48.171V49.4158H82.6433V47.8332H82.8993L82.9139 48.171ZM82.8496 48.5645L82.737 48.5601C82.7379 48.4519 82.754 48.3519 82.7852 48.2603C82.8164 48.1676 82.8603 48.0872 82.9169 48.0189C82.9734 47.9507 83.0407 47.898 83.1187 47.861C83.1977 47.8229 83.285 47.8039 83.3805 47.8039C83.4585 47.8039 83.5287 47.8146 83.5911 47.8361C83.6536 47.8566 83.7067 47.8897 83.7506 47.9356C83.7954 47.9814 83.8296 48.0409 83.853 48.114C83.8764 48.1862 83.8881 48.2744 83.8881 48.3787V49.4158H83.616V48.3758C83.616 48.2929 83.6038 48.2266 83.5794 48.1769C83.5551 48.1262 83.5195 48.0896 83.4727 48.0672C83.4259 48.0438 83.3683 48.0321 83.3001 48.0321C83.2328 48.0321 83.1714 48.0462 83.1158 48.0745C83.0612 48.1028 83.0139 48.1418 82.9739 48.1915C82.9349 48.2413 82.9042 48.2983 82.8818 48.3627C82.8603 48.426 82.8496 48.4933 82.8496 48.5645ZM86.4082 49.1934V49.4158H85.0143V49.2212L85.712 48.4446C85.7978 48.349 85.8641 48.2681 85.9109 48.2018C85.9587 48.1345 85.9919 48.0745 86.0104 48.0219C86.0299 47.9682 86.0396 47.9136 86.0396 47.858C86.0396 47.7878 86.025 47.7244 85.9958 47.6679C85.9675 47.6104 85.9256 47.5645 85.87 47.5304C85.8144 47.4963 85.7471 47.4792 85.6681 47.4792C85.5735 47.4792 85.4946 47.4977 85.4312 47.5348C85.3688 47.5709 85.322 47.6216 85.2908 47.6869C85.2596 47.7522 85.244 47.8273 85.244 47.9122H84.9734C84.9734 47.7922 84.9997 47.6825 85.0523 47.5831C85.105 47.4836 85.183 47.4046 85.2864 47.3461C85.3897 47.2866 85.517 47.2569 85.6681 47.2569C85.8027 47.2569 85.9178 47.2808 86.0133 47.3286C86.1089 47.3754 86.182 47.4417 86.2327 47.5275C86.2844 47.6123 86.3102 47.7118 86.3102 47.8259C86.3102 47.8883 86.2995 47.9516 86.2781 48.016C86.2576 48.0794 86.2288 48.1428 86.1918 48.2062C86.1557 48.2695 86.1133 48.3319 86.0645 48.3934C86.0167 48.4548 85.9655 48.5153 85.9109 48.5747L85.3405 49.1934H86.4082Z" fill="#8794BA"/>
<path d="M39.3046 21.654C39.2903 21.2733 39.5875 20.9514 39.9685 20.9541C43.2871 20.9781 46.5163 22.0745 49.1687 24.0894C52.0047 26.2437 54.0059 29.3147 54.8315 32.7791C55.657 36.2435 55.2558 39.887 53.6961 43.0888C52.1365 46.2905 49.5149 48.8524 46.2782 50.338C43.0414 51.8235 39.3896 52.1408 35.9451 51.2358C32.5006 50.3307 29.4765 48.2593 27.388 45.3746C25.2996 42.4898 24.276 38.9701 24.4916 35.4152C24.6933 32.0903 25.9675 28.9271 28.1131 26.3953C28.3594 26.1046 28.7973 26.0892 29.0766 26.3483C29.356 26.6074 29.371 27.0429 29.1259 27.3347C27.1967 29.6316 26.0513 32.4926 25.869 35.4988C25.6726 38.735 26.6045 41.9392 28.5057 44.5654C30.407 47.1916 33.1601 49.0773 36.2958 49.9012C39.4315 50.7251 42.7559 50.4363 45.7026 49.0839C48.6492 47.7315 51.0358 45.3992 52.4556 42.4845C53.8755 39.5697 54.2408 36.2529 53.4892 33.099C52.7377 29.9451 50.9158 27.1494 48.3341 25.1882C45.9359 23.3664 43.0198 22.3694 40.0204 22.3345C39.6394 22.3301 39.3189 22.0348 39.3046 21.654Z" fill="#EF2A82"/>
<path d="M39.0317 15.1424C39.0103 14.5929 39.4387 14.1277 39.9886 14.131C44.2962 14.1565 48.5117 15.4342 52.1162 17.8191C55.9979 20.3874 58.975 24.1101 60.6271 28.4615C62.2793 32.813 62.523 37.5734 61.324 42.0708C60.1249 46.5682 57.5436 50.5755 53.9444 53.5269C50.3453 56.4782 45.91 58.2247 41.2649 58.5196C36.6197 58.8146 31.9992 57.6432 28.0557 55.1708C24.1121 52.6983 21.0447 49.0498 19.2864 44.7402C17.6537 40.7384 17.2263 36.3543 18.045 32.1251C18.1496 31.5852 18.6896 31.2563 19.2243 31.3849C19.759 31.5135 20.0856 32.0509 19.9834 32.5913C19.2608 36.4143 19.6552 40.3724 21.1303 43.9879C22.731 47.9112 25.5234 51.2327 29.1135 53.4835C32.7036 55.7343 36.9099 56.8007 41.1387 56.5322C45.3675 56.2636 49.4051 54.6738 52.6816 51.9869C55.9582 49.3001 58.3081 45.6521 59.3997 41.5578C60.4913 37.4635 60.2694 33.1298 58.7654 29.1684C57.2613 25.207 54.5511 21.8181 51.0173 19.4799C47.7608 17.3253 43.9565 16.1633 40.0661 16.1232C39.5162 16.1175 39.0531 15.6919 39.0317 15.1424Z" fill="#0088F0"/>
<path d="M37.6804 36.0907L37.5361 36.0537L37.6073 35.3467H38.3357V35.5135H37.7603L37.7174 35.8996C37.7434 35.8847 37.7763 35.8707 37.8159 35.8577C37.8562 35.8447 37.9024 35.8382 37.9544 35.8382C38.0201 35.8382 38.0789 35.8496 38.1309 35.8723C38.1829 35.8944 38.2271 35.9263 38.2635 35.9679C38.3006 36.0095 38.3288 36.0595 38.3483 36.118C38.3678 36.1765 38.3776 36.2419 38.3776 36.314C38.3776 36.3823 38.3682 36.445 38.3493 36.5022C38.3311 36.5594 38.3035 36.6095 38.2664 36.6524C38.2294 36.6946 38.1826 36.7275 38.126 36.7509C38.0701 36.7743 38.0041 36.786 37.9281 36.786C37.8709 36.786 37.8166 36.7782 37.7652 36.7626C37.7145 36.7463 37.669 36.7219 37.6287 36.6894C37.5891 36.6563 37.5565 36.6153 37.5312 36.5666C37.5065 36.5172 37.4909 36.4593 37.4844 36.393H37.656C37.6638 36.4463 37.6794 36.4912 37.7028 36.5276C37.7262 36.564 37.7568 36.5916 37.7945 36.6105C37.8328 36.6287 37.8774 36.6378 37.9281 36.6378C37.971 36.6378 38.009 36.6303 38.0422 36.6153C38.0753 36.6004 38.1033 36.5789 38.126 36.551C38.1488 36.523 38.166 36.4892 38.1777 36.4496C38.19 36.4099 38.1962 36.3654 38.1962 36.316C38.1962 36.2711 38.19 36.2295 38.1777 36.1912C38.1653 36.1528 38.1468 36.1193 38.1221 36.0907C38.0981 36.0621 38.0685 36.04 38.0334 36.0244C37.9983 36.0082 37.958 36 37.9125 36C37.852 36 37.8062 36.0082 37.775 36.0244C37.7444 36.0407 37.7129 36.0628 37.6804 36.0907ZM38.8037 36.0907L38.6594 36.0537L38.7306 35.3467H39.459V35.5135H38.8837L38.8408 35.8996C38.8668 35.8847 38.8996 35.8707 38.9393 35.8577C38.9796 35.8447 39.0257 35.8382 39.0777 35.8382C39.1434 35.8382 39.2022 35.8496 39.2542 35.8723C39.3062 35.8944 39.3504 35.9263 39.3868 35.9679C39.4239 36.0095 39.4522 36.0595 39.4717 36.118C39.4912 36.1765 39.5009 36.2419 39.5009 36.314C39.5009 36.3823 39.4915 36.445 39.4726 36.5022C39.4544 36.5594 39.4268 36.6095 39.3898 36.6524C39.3527 36.6946 39.3059 36.7275 39.2493 36.7509C39.1934 36.7743 39.1274 36.786 39.0514 36.786C38.9942 36.786 38.9399 36.7782 38.8885 36.7626C38.8378 36.7463 38.7923 36.7219 38.752 36.6894C38.7124 36.6563 38.6799 36.6153 38.6545 36.5666C38.6298 36.5172 38.6142 36.4593 38.6077 36.393H38.7793C38.7871 36.4463 38.8027 36.4912 38.8261 36.5276C38.8495 36.564 38.8801 36.5916 38.9178 36.6105C38.9562 36.6287 39.0007 36.6378 39.0514 36.6378C39.0943 36.6378 39.1323 36.6303 39.1655 36.6153C39.1986 36.6004 39.2266 36.5789 39.2493 36.551C39.2721 36.523 39.2893 36.4892 39.301 36.4496C39.3134 36.4099 39.3195 36.3654 39.3195 36.316C39.3195 36.2711 39.3134 36.2295 39.301 36.1912C39.2887 36.1528 39.2701 36.1193 39.2454 36.0907C39.2214 36.0621 39.1918 36.04 39.1567 36.0244C39.1216 36.0082 39.0813 36 39.0358 36C38.9753 36 38.9295 36.0082 38.8983 36.0244C38.8677 36.0407 38.8362 36.0628 38.8037 36.0907ZM40.0938 36.0888V36.237H39.6179V36.0888H40.0938ZM40.9431 35.3448H40.9587V35.4979H40.9431C40.8475 35.4979 40.7676 35.5135 40.7032 35.5447C40.6389 35.5752 40.5878 35.6165 40.5501 35.6685C40.5124 35.7199 40.4851 35.7777 40.4682 35.8421C40.452 35.9064 40.4438 35.9718 40.4438 36.0381V36.2467C40.4438 36.3098 40.4513 36.3657 40.4663 36.4145C40.4812 36.4626 40.5017 36.5032 40.5277 36.5364C40.5537 36.5695 40.583 36.5945 40.6155 36.6114C40.6486 36.6283 40.6831 36.6368 40.7188 36.6368C40.7604 36.6368 40.7975 36.629 40.83 36.6134C40.8625 36.5971 40.8898 36.5747 40.9119 36.5461C40.9346 36.5169 40.9519 36.4824 40.9636 36.4427C40.9753 36.4031 40.9811 36.3595 40.9811 36.3121C40.9811 36.2698 40.9759 36.2292 40.9655 36.1902C40.9551 36.1505 40.9392 36.1154 40.9177 36.0849C40.8963 36.0537 40.8693 36.0293 40.8368 36.0117C40.805 35.9935 40.7669 35.9844 40.7227 35.9844C40.6727 35.9844 40.6259 35.9968 40.5823 36.0215C40.5394 36.0456 40.504 36.0774 40.476 36.1171C40.4487 36.1561 40.4331 36.1986 40.4292 36.2448L40.3337 36.2438C40.3428 36.171 40.3597 36.1089 40.3844 36.0576C40.4097 36.0056 40.4409 35.9633 40.478 35.9308C40.5157 35.8977 40.5576 35.8736 40.6038 35.8587C40.6506 35.8431 40.7 35.8353 40.752 35.8353C40.8228 35.8353 40.8839 35.8486 40.9353 35.8752C40.9867 35.9019 41.0289 35.9376 41.0621 35.9825C41.0952 36.0267 41.1196 36.0768 41.1352 36.1327C41.1514 36.1879 41.1596 36.2448 41.1596 36.3033C41.1596 36.3703 41.1501 36.433 41.1313 36.4915C41.1124 36.55 41.0842 36.6014 41.0465 36.6456C41.0094 36.6898 40.9636 36.7242 40.909 36.7489C40.8544 36.7736 40.791 36.786 40.7188 36.786C40.6421 36.786 40.5752 36.7704 40.5179 36.7392C40.4607 36.7073 40.4133 36.6651 40.3756 36.6124C40.3379 36.5598 40.3096 36.5013 40.2907 36.4369C40.2719 36.3725 40.2625 36.3072 40.2625 36.2409V36.1561C40.2625 36.056 40.2725 35.9578 40.2927 35.8616C40.3129 35.7654 40.3476 35.6783 40.397 35.6003C40.4471 35.5222 40.5163 35.4602 40.6047 35.414C40.6931 35.3679 40.8059 35.3448 40.9431 35.3448ZM42.3336 36.2887V36.4369H41.3078V36.3306L41.9436 35.3467H42.0908L41.9328 35.6315L41.5126 36.2887H42.3336ZM42.1357 35.3467V36.7665H41.9553V35.3467H42.1357Z" fill="#8794BA"/>
<path d="M11.3073 8.91509L10.6806 10.6404H10.4245L11.1461 8.74737H11.3112L11.3073 8.91509ZM11.8325 10.6404L11.2046 8.91509L11.2007 8.74737H11.3658L12.09 10.6404H11.8325ZM11.8 9.9396V10.145H10.7365V9.9396H11.8ZM13.2185 9.23363H13.4369V10.6105C13.4369 10.7344 13.4118 10.8402 13.3615 10.9277C13.3112 11.0153 13.241 11.0816 13.1509 11.1266C13.0616 11.1726 12.9585 11.1955 12.8414 11.1955C12.7929 11.1955 12.7357 11.1877 12.6698 11.1721C12.6048 11.1574 12.5407 11.1318 12.4774 11.0954C12.415 11.0599 12.3626 11.0118 12.3201 10.9511L12.4462 10.8081C12.5051 10.8792 12.5667 10.9286 12.6308 10.9563C12.6958 10.9841 12.76 10.9979 12.8232 10.9979C12.8995 10.9979 12.9654 10.9836 13.0209 10.955C13.0763 10.9264 13.1192 10.8839 13.1496 10.8276C13.1808 10.7721 13.1964 10.7037 13.1964 10.6222V9.54306L13.2185 9.23363ZM12.2499 9.95261V9.9253C12.2499 9.81782 12.2625 9.72031 12.2876 9.63277C12.3136 9.54436 12.3504 9.46852 12.3981 9.40525C12.4466 9.34197 12.5051 9.29343 12.5736 9.25963C12.6421 9.22496 12.7192 9.20762 12.805 9.20762C12.8935 9.20762 12.9706 9.22323 13.0365 9.25443C13.1032 9.28477 13.1595 9.3294 13.2055 9.38834C13.2523 9.44642 13.2891 9.51662 13.316 9.59897C13.3429 9.68131 13.3615 9.77449 13.3719 9.8785V9.99811C13.3624 10.1013 13.3437 10.194 13.316 10.2763C13.2891 10.3587 13.2523 10.4289 13.2055 10.487C13.1595 10.545 13.1032 10.5897 13.0365 10.6209C12.9697 10.6512 12.8917 10.6664 12.8024 10.6664C12.7184 10.6664 12.6421 10.6486 12.5736 10.6131C12.506 10.5775 12.4479 10.5277 12.3994 10.4636C12.3509 10.3994 12.3136 10.324 12.2876 10.2373C12.2625 10.1498 12.2499 10.0549 12.2499 9.95261ZM12.4904 9.9253V9.95261C12.4904 10.0228 12.4973 10.0887 12.5112 10.1502C12.5259 10.2118 12.548 10.2659 12.5775 10.3127C12.6079 10.3596 12.6464 10.3964 12.6932 10.4233C12.74 10.4493 12.7959 10.4623 12.861 10.4623C12.9407 10.4623 13.0066 10.4454 13.0586 10.4116C13.1106 10.3778 13.1517 10.3331 13.1821 10.2776C13.2133 10.2222 13.2376 10.1619 13.2549 10.0969V9.78359C13.2454 9.73591 13.2306 9.68998 13.2107 9.64577C13.1916 9.6007 13.1665 9.56083 13.1353 9.52616C13.1049 9.49062 13.0672 9.46245 13.0222 9.44165C12.9771 9.42085 12.9242 9.41045 12.8636 9.41045C12.7977 9.41045 12.7409 9.42431 12.6932 9.45205C12.6464 9.47892 12.6079 9.51619 12.5775 9.56386C12.548 9.61067 12.5259 9.66527 12.5112 9.72768C12.4973 9.78922 12.4904 9.85509 12.4904 9.9253ZM14.386 10.6664C14.2881 10.6664 14.1992 10.6499 14.1195 10.617C14.0406 10.5832 13.9726 10.5359 13.9154 10.4753C13.859 10.4146 13.8157 10.3426 13.7854 10.2594C13.755 10.1762 13.7398 10.0852 13.7398 9.98641V9.9318C13.7398 9.81739 13.7567 9.71555 13.7906 9.62627C13.8244 9.53613 13.8703 9.45985 13.9284 9.39744C13.9864 9.33504 14.0523 9.2878 14.126 9.25573C14.1997 9.22366 14.2759 9.20762 14.3548 9.20762C14.4554 9.20762 14.542 9.22496 14.6148 9.25963C14.6885 9.2943 14.7488 9.34284 14.7956 9.40525C14.8424 9.46679 14.877 9.53959 14.8996 9.62367C14.9221 9.70688 14.9334 9.79789 14.9334 9.8967V10.0046H13.8829V9.80829H14.6929V9.79009C14.6894 9.72768 14.6764 9.66701 14.6538 9.60807C14.6322 9.54913 14.5975 9.50059 14.5498 9.46245C14.5022 9.42431 14.4372 9.40525 14.3548 9.40525C14.3002 9.40525 14.2499 9.41695 14.204 9.44035C14.1581 9.46288 14.1186 9.49669 14.0857 9.54176C14.0527 9.58683 14.0272 9.64187 14.009 9.70688C13.9908 9.77189 13.9817 9.84686 13.9817 9.9318V9.98641C13.9817 10.0531 13.9908 10.116 14.009 10.1749C14.028 10.233 14.0553 10.2841 14.0909 10.3283C14.1273 10.3726 14.1711 10.4072 14.2222 10.4324C14.2742 10.4575 14.3331 10.4701 14.399 10.4701C14.484 10.4701 14.5559 10.4527 14.6148 10.4181C14.6738 10.3834 14.7254 10.337 14.7696 10.2789L14.9152 10.3947C14.8848 10.4406 14.8463 10.4844 14.7995 10.526C14.7527 10.5676 14.695 10.6014 14.6265 10.6274C14.5589 10.6534 14.4788 10.6664 14.386 10.6664ZM16.0333 10.2672C16.0333 10.2326 16.0255 10.2005 16.0099 10.171C15.9952 10.1407 15.9644 10.1134 15.9176 10.0891C15.8716 10.064 15.8023 10.0423 15.7096 10.0241C15.6316 10.0076 15.5609 9.98814 15.4976 9.96561C15.4352 9.94307 15.3819 9.91577 15.3377 9.8837C15.2944 9.85163 15.261 9.81392 15.2376 9.77059C15.2142 9.72725 15.2025 9.67654 15.2025 9.61847C15.2025 9.563 15.2146 9.51056 15.2389 9.46115C15.264 9.41175 15.2992 9.36797 15.3442 9.32984C15.3902 9.2917 15.4452 9.2618 15.5093 9.24013C15.5735 9.21846 15.645 9.20762 15.7239 9.20762C15.8365 9.20762 15.9328 9.22756 16.0125 9.26743C16.0922 9.3073 16.1533 9.36061 16.1958 9.42735C16.2383 9.49322 16.2595 9.56646 16.2595 9.64707H16.019C16.019 9.60807 16.0073 9.57036 15.9839 9.53396C15.9614 9.49669 15.928 9.46592 15.8838 9.44165C15.8404 9.41738 15.7871 9.40525 15.7239 9.40525C15.6571 9.40525 15.603 9.41565 15.5613 9.43645C15.5206 9.45638 15.4907 9.48195 15.4716 9.51316C15.4534 9.54436 15.4443 9.5773 15.4443 9.61197C15.4443 9.63797 15.4487 9.66137 15.4573 9.68218C15.4669 9.70211 15.4833 9.72075 15.5067 9.73808C15.5301 9.75455 15.5631 9.77015 15.6056 9.78489C15.648 9.79962 15.7022 9.81436 15.7681 9.82909C15.8833 9.85509 15.9783 9.8863 16.0528 9.9227C16.1273 9.95911 16.1828 10.0037 16.2192 10.0566C16.2556 10.1095 16.2738 10.1736 16.2738 10.249C16.2738 10.3106 16.2608 10.3669 16.2348 10.4181C16.2097 10.4692 16.1728 10.5134 16.1243 10.5507C16.0766 10.5871 16.0194 10.6157 15.9527 10.6365C15.8868 10.6564 15.8127 10.6664 15.7304 10.6664C15.6064 10.6664 15.5015 10.6443 15.4157 10.6001C15.3299 10.5559 15.2649 10.4987 15.2207 10.4285C15.1765 10.3582 15.1544 10.2841 15.1544 10.2061H15.3962C15.3997 10.272 15.4188 10.3244 15.4534 10.3635C15.4881 10.4016 15.5306 10.4289 15.5808 10.4454C15.6311 10.461 15.681 10.4688 15.7304 10.4688C15.7962 10.4688 15.8513 10.4601 15.8955 10.4428C15.9406 10.4254 15.9748 10.4016 15.9982 10.3713C16.0216 10.3409 16.0333 10.3062 16.0333 10.2672Z" fill="#8794BA"/>
</svg>
