<svg width="101" height="69" viewBox="0 0 101 69" fill="none" xmlns="http://www.w3.org/2000/svg">
<rect x="0.65625" y="0.484375" width="99.851" height="68.2315" rx="4.99255" fill="white"/>
<rect x="17.1323" y="12.4666" width="0.166418" height="45.0994" fill="#EEEEF7"/>
<rect x="27.6167" y="12.4666" width="0.166418" height="45.0994" fill="#EEEEF7"/>
<rect x="38.1006" y="12.4666" width="0.166418" height="45.0994" fill="#EEEEF7"/>
<rect x="48.5854" y="12.4666" width="0.166418" height="45.0994" fill="#EEEEF7"/>
<rect x="59.0693" y="12.4666" width="0.166418" height="45.0994" fill="#EEEEF7"/>
<rect x="69.5537" y="12.4666" width="0.166418" height="45.0994" fill="#EEEEF7"/>
<rect x="80.0386" y="12.4666" width="0.166418" height="45.0994" fill="#EEEEF7"/>
<rect x="90.5225" y="12.4666" width="0.166418" height="45.0994" fill="#EEEEF7"/>
<path d="M10.6025 15.7879L10.4582 15.7508L10.5294 15.0439H11.2578V15.2106H10.6825L10.6396 15.5968C10.6656 15.5818 10.6984 15.5678 10.738 15.5548C10.7783 15.5418 10.8245 15.5353 10.8765 15.5353C10.9422 15.5353 11.001 15.5467 11.053 15.5694C11.105 15.5916 11.1492 15.6234 11.1856 15.665C11.2227 15.7066 11.2509 15.7567 11.2705 15.8152C11.29 15.8737 11.2997 15.939 11.2997 16.0112C11.2997 16.0794 11.2903 16.1422 11.2714 16.1994C11.2532 16.2566 11.2256 16.3066 11.1885 16.3495C11.1515 16.3918 11.1047 16.4246 11.0481 16.448C10.9922 16.4714 10.9262 16.4831 10.8502 16.4831C10.793 16.4831 10.7387 16.4753 10.6873 16.4597C10.6366 16.4435 10.5911 16.4191 10.5508 16.3866C10.5112 16.3534 10.4787 16.3125 10.4533 16.2637C10.4286 16.2143 10.413 16.1565 10.4065 16.0902H10.5781C10.5859 16.1435 10.6015 16.1883 10.6249 16.2247C10.6483 16.2611 10.6789 16.2888 10.7166 16.3076C10.7549 16.3258 10.7995 16.3349 10.8502 16.3349C10.8931 16.3349 10.9311 16.3274 10.9643 16.3125C10.9974 16.2975 11.0254 16.2761 11.0481 16.2481C11.0709 16.2202 11.0881 16.1864 11.0998 16.1467C11.1122 16.1071 11.1183 16.0625 11.1183 16.0131C11.1183 15.9683 11.1122 15.9267 11.0998 15.8883C11.0875 15.85 11.0689 15.8165 11.0442 15.7879C11.0202 15.7593 10.9906 15.7372 10.9555 15.7216C10.9204 15.7053 10.8801 15.6972 10.8346 15.6972C10.7741 15.6972 10.7283 15.7053 10.6971 15.7216C10.6665 15.7378 10.635 15.7599 10.6025 15.7879ZM12.4572 15.9858V16.134H11.4313V16.0278L12.0671 15.0439H12.2144L12.0564 15.3286L11.6361 15.9858H12.4572ZM12.2592 15.0439V16.4636H12.0788V15.0439H12.2592ZM13.0159 15.7859V15.9341H12.54V15.7859H13.0159ZM13.8652 15.0419H13.8808V15.195H13.8652C13.7697 15.195 13.6897 15.2106 13.6253 15.2418C13.561 15.2724 13.5099 15.3136 13.4722 15.3657C13.4345 15.417 13.4072 15.4749 13.3903 15.5392C13.3741 15.6036 13.366 15.6689 13.366 15.7352V15.9439C13.366 16.0069 13.3734 16.0629 13.3884 16.1116C13.4033 16.1597 13.4238 16.2003 13.4498 16.2335C13.4758 16.2667 13.5051 16.2917 13.5376 16.3086C13.5707 16.3255 13.6052 16.3339 13.6409 16.3339C13.6825 16.3339 13.7196 16.3261 13.7521 16.3105C13.7846 16.2943 13.8119 16.2719 13.834 16.2432C13.8568 16.214 13.874 16.1795 13.8857 16.1399C13.8974 16.1002 13.9032 16.0567 13.9032 16.0092C13.9032 15.967 13.898 15.9263 13.8876 15.8873C13.8772 15.8477 13.8613 15.8126 13.8399 15.782C13.8184 15.7508 13.7914 15.7264 13.7589 15.7089C13.7271 15.6907 13.689 15.6816 13.6448 15.6816C13.5948 15.6816 13.548 15.6939 13.5044 15.7186C13.4615 15.7427 13.4261 15.7745 13.3981 15.8142C13.3708 15.8532 13.3552 15.8958 13.3513 15.9419L13.2558 15.941C13.2649 15.8682 13.2818 15.8061 13.3065 15.7547C13.3318 15.7027 13.363 15.6605 13.4001 15.628C13.4378 15.5948 13.4797 15.5707 13.5259 15.5558C13.5727 15.5402 13.6221 15.5324 13.6741 15.5324C13.7449 15.5324 13.8061 15.5457 13.8574 15.5724C13.9088 15.599 13.951 15.6348 13.9842 15.6796C14.0173 15.7238 14.0417 15.7739 14.0573 15.8298C14.0736 15.8851 14.0817 15.9419 14.0817 16.0004C14.0817 16.0674 14.0723 16.1301 14.0534 16.1886C14.0346 16.2471 14.0063 16.2985 13.9686 16.3427C13.9315 16.3869 13.8857 16.4214 13.8311 16.4461C13.7765 16.4708 13.7131 16.4831 13.6409 16.4831C13.5642 16.4831 13.4973 16.4675 13.4401 16.4363C13.3829 16.4045 13.3354 16.3622 13.2977 16.3096C13.26 16.2569 13.2317 16.1984 13.2129 16.134C13.194 16.0697 13.1846 16.0043 13.1846 15.938V15.8532C13.1846 15.7531 13.1947 15.6549 13.2148 15.5587C13.235 15.4625 13.2697 15.3754 13.3192 15.2974C13.3692 15.2194 13.4384 15.1573 13.5268 15.1111C13.6153 15.065 13.728 15.0419 13.8652 15.0419ZM14.5244 15.7879L14.3801 15.7508L14.4513 15.0439H15.1797V15.2106H14.6043L14.5614 15.5968C14.5874 15.5818 14.6203 15.5678 14.6599 15.5548C14.7002 15.5418 14.7464 15.5353 14.7984 15.5353C14.864 15.5353 14.9229 15.5467 14.9749 15.5694C15.0269 15.5916 15.0711 15.6234 15.1075 15.665C15.1446 15.7066 15.1728 15.7567 15.1923 15.8152C15.2118 15.8737 15.2216 15.939 15.2216 16.0112C15.2216 16.0794 15.2122 16.1422 15.1933 16.1994C15.1751 16.2566 15.1475 16.3066 15.1104 16.3495C15.0734 16.3918 15.0266 16.4246 14.97 16.448C14.9141 16.4714 14.8481 16.4831 14.7721 16.4831C14.7149 16.4831 14.6606 16.4753 14.6092 16.4597C14.5585 16.4435 14.513 16.4191 14.4727 16.3866C14.433 16.3534 14.4005 16.3125 14.3752 16.2637C14.3505 16.2143 14.3349 16.1565 14.3284 16.0902H14.5C14.5078 16.1435 14.5234 16.1883 14.5468 16.2247C14.5702 16.2611 14.6008 16.2888 14.6385 16.3076C14.6768 16.3258 14.7214 16.3349 14.7721 16.3349C14.815 16.3349 14.853 16.3274 14.8861 16.3125C14.9193 16.2975 14.9473 16.2761 14.97 16.2481C14.9928 16.2202 15.01 16.1864 15.0217 16.1467C15.034 16.1071 15.0402 16.0625 15.0402 16.0131C15.0402 15.9683 15.034 15.9267 15.0217 15.8883C15.0093 15.85 14.9908 15.8165 14.9661 15.7879C14.9421 15.7593 14.9125 15.7372 14.8774 15.7216C14.8423 15.7053 14.802 15.6972 14.7565 15.6972C14.696 15.6972 14.6502 15.7053 14.619 15.7216C14.5884 15.7378 14.5569 15.7599 14.5244 15.7879Z" fill="#8794BA"/>
<path d="M11.3338 25.3052V25.4534H10.308V25.3471L10.9438 24.3632H11.091L10.9331 24.6479L10.5128 25.3052H11.3338ZM11.1359 24.3632V25.783H10.9555V24.3632H11.1359ZM11.7258 25.1072L11.5815 25.0702L11.6527 24.3632H12.3811V24.5299H11.8058L11.7629 24.9161C11.7889 24.9011 11.8217 24.8872 11.8614 24.8742C11.9017 24.8612 11.9478 24.8547 11.9998 24.8547C12.0655 24.8547 12.1243 24.866 12.1763 24.8888C12.2283 24.9109 12.2725 24.9427 12.3089 24.9843C12.346 25.026 12.3743 25.076 12.3938 25.1345C12.4133 25.193 12.423 25.2584 12.423 25.3305C12.423 25.3988 12.4136 25.4615 12.3948 25.5187C12.3765 25.5759 12.3489 25.626 12.3119 25.6689C12.2748 25.7111 12.228 25.744 12.1715 25.7674C12.1155 25.7908 12.0496 25.8025 11.9735 25.8025C11.9163 25.8025 11.862 25.7947 11.8107 25.7791C11.76 25.7628 11.7145 25.7384 11.6741 25.7059C11.6345 25.6728 11.602 25.6318 11.5766 25.5831C11.5519 25.5337 11.5363 25.4758 11.5298 25.4095H11.7014C11.7093 25.4628 11.7249 25.5077 11.7483 25.5441C11.7717 25.5805 11.8022 25.6081 11.8399 25.6269C11.8783 25.6451 11.9228 25.6542 11.9735 25.6542C12.0164 25.6542 12.0544 25.6468 12.0876 25.6318C12.1207 25.6169 12.1487 25.5954 12.1715 25.5675C12.1942 25.5395 12.2114 25.5057 12.2231 25.466C12.2355 25.4264 12.2417 25.3819 12.2417 25.3325C12.2417 25.2876 12.2355 25.246 12.2231 25.2076C12.2108 25.1693 12.1923 25.1358 12.1676 25.1072C12.1435 25.0786 12.1139 25.0565 12.0788 25.0409C12.0437 25.0247 12.0034 25.0165 11.9579 25.0165C11.8974 25.0165 11.8516 25.0247 11.8204 25.0409C11.7899 25.0572 11.7583 25.0793 11.7258 25.1072ZM13.0159 25.1053V25.2535H12.54V25.1053H13.0159ZM13.4011 25.1072L13.2567 25.0702L13.3279 24.3632H14.0563V24.5299H13.481L13.4381 24.9161C13.4641 24.9011 13.4969 24.8872 13.5366 24.8742C13.5769 24.8612 13.6231 24.8547 13.6751 24.8547C13.7407 24.8547 13.7996 24.866 13.8516 24.8888C13.9036 24.9109 13.9478 24.9427 13.9842 24.9843C14.0212 25.026 14.0495 25.076 14.069 25.1345C14.0885 25.193 14.0983 25.2584 14.0983 25.3305C14.0983 25.3988 14.0888 25.4615 14.07 25.5187C14.0518 25.5759 14.0242 25.626 13.9871 25.6689C13.95 25.7111 13.9032 25.744 13.8467 25.7674C13.7908 25.7908 13.7248 25.8025 13.6487 25.8025C13.5915 25.8025 13.5373 25.7947 13.4859 25.7791C13.4352 25.7628 13.3897 25.7384 13.3494 25.7059C13.3097 25.6728 13.2772 25.6318 13.2519 25.5831C13.2272 25.5337 13.2116 25.4758 13.2051 25.4095H13.3767C13.3845 25.4628 13.4001 25.5077 13.4235 25.5441C13.4469 25.5805 13.4774 25.6081 13.5151 25.6269C13.5535 25.6451 13.598 25.6542 13.6487 25.6542C13.6916 25.6542 13.7297 25.6468 13.7628 25.6318C13.796 25.6169 13.8239 25.5954 13.8467 25.5675C13.8694 25.5395 13.8867 25.5057 13.8984 25.466C13.9107 25.4264 13.9169 25.3819 13.9169 25.3325C13.9169 25.2876 13.9107 25.246 13.8984 25.2076C13.886 25.1693 13.8675 25.1358 13.8428 25.1072C13.8187 25.0786 13.7892 25.0565 13.754 25.0409C13.7189 25.0247 13.6786 25.0165 13.6331 25.0165C13.5727 25.0165 13.5268 25.0247 13.4956 25.0409C13.4651 25.0572 13.4336 25.0793 13.4011 25.1072ZM15.2557 25.3052V25.4534H14.2299V25.3471L14.8657 24.3632H15.0129L14.8549 24.6479L14.4347 25.3052H15.2557ZM15.0578 24.3632V25.783H14.8774V24.3632H15.0578Z" fill="#8794BA"/>
<path d="M10.6376 34.3038H10.7663C10.8294 34.3038 10.8814 34.2934 10.9223 34.2726C10.9639 34.2511 10.9948 34.2222 11.015 34.1858C11.0358 34.1488 11.0462 34.1072 11.0462 34.061C11.0462 34.0064 11.0371 33.9606 11.0189 33.9235C11.0007 33.8865 10.9734 33.8585 10.937 33.8397C10.9006 33.8208 10.8544 33.8114 10.7985 33.8114C10.7478 33.8114 10.7029 33.8215 10.6639 33.8416C10.6256 33.8611 10.5954 33.8891 10.5733 33.9255C10.5518 33.9619 10.5411 34.0048 10.5411 34.0542H10.3607C10.3607 33.982 10.3789 33.9164 10.4153 33.8572C10.4517 33.798 10.5027 33.7509 10.5684 33.7158C10.6347 33.6807 10.7114 33.6632 10.7985 33.6632C10.8843 33.6632 10.9594 33.6784 11.0237 33.709C11.0881 33.7389 11.1382 33.7837 11.1739 33.8436C11.2097 33.9027 11.2275 33.9765 11.2275 34.0649C11.2275 34.1007 11.2191 34.139 11.2022 34.18C11.1859 34.2203 11.1603 34.258 11.1252 34.2931C11.0907 34.3282 11.0459 34.3571 10.9906 34.3799C10.9353 34.402 10.869 34.413 10.7917 34.413H10.6376V34.3038ZM10.6376 34.452V34.3438H10.7917C10.882 34.3438 10.9568 34.3545 11.0159 34.376C11.0751 34.3974 11.1216 34.426 11.1554 34.4618C11.1898 34.4975 11.2139 34.5369 11.2275 34.5798C11.2418 34.622 11.249 34.6643 11.249 34.7065C11.249 34.7728 11.2376 34.8317 11.2149 34.883C11.1928 34.9344 11.1612 34.9779 11.1203 35.0137C11.08 35.0494 11.0325 35.0764 10.9779 35.0946C10.9233 35.1128 10.8638 35.1219 10.7995 35.1219C10.7377 35.1219 10.6795 35.1131 10.6249 35.0956C10.571 35.078 10.5232 35.0527 10.4816 35.0195C10.44 34.9857 10.4075 34.9444 10.3841 34.8957C10.3607 34.8463 10.349 34.7901 10.349 34.727H10.5294C10.5294 34.7764 10.5401 34.8196 10.5615 34.8567C10.5837 34.8937 10.6149 34.9227 10.6552 34.9435C10.6961 34.9636 10.7442 34.9737 10.7995 34.9737C10.8547 34.9737 10.9022 34.9643 10.9418 34.9454C10.9821 34.9259 11.013 34.8967 11.0345 34.8577C11.0566 34.8187 11.0676 34.7696 11.0676 34.7104C11.0676 34.6513 11.0553 34.6028 11.0306 34.5651C11.0059 34.5268 10.9708 34.4985 10.9253 34.4803C10.8804 34.4614 10.8274 34.452 10.7663 34.452H10.6376ZM11.7258 34.4267L11.5815 34.3896L11.6527 33.6827H12.3811V33.8494H11.8058L11.7629 34.2355C11.7889 34.2206 11.8217 34.2066 11.8614 34.1936C11.9017 34.1806 11.9478 34.1741 11.9998 34.1741C12.0655 34.1741 12.1243 34.1855 12.1763 34.2082C12.2283 34.2303 12.2725 34.2622 12.3089 34.3038C12.346 34.3454 12.3743 34.3955 12.3938 34.454C12.4133 34.5125 12.423 34.5778 12.423 34.65C12.423 34.7182 12.4136 34.781 12.3948 34.8382C12.3765 34.8954 12.3489 34.9454 12.3119 34.9883C12.2748 35.0306 12.228 35.0634 12.1715 35.0868C12.1155 35.1102 12.0496 35.1219 11.9735 35.1219C11.9163 35.1219 11.862 35.1141 11.8107 35.0985C11.76 35.0823 11.7145 35.0579 11.6741 35.0254C11.6345 34.9922 11.602 34.9513 11.5766 34.9025C11.5519 34.8531 11.5363 34.7953 11.5298 34.729H11.7014C11.7093 34.7823 11.7249 34.8271 11.7483 34.8635C11.7717 34.8999 11.8022 34.9275 11.8399 34.9464C11.8783 34.9646 11.9228 34.9737 11.9735 34.9737C12.0164 34.9737 12.0544 34.9662 12.0876 34.9513C12.1207 34.9363 12.1487 34.9149 12.1715 34.8869C12.1942 34.859 12.2114 34.8252 12.2231 34.7855C12.2355 34.7459 12.2417 34.7013 12.2417 34.6519C12.2417 34.6071 12.2355 34.5655 12.2231 34.5271C12.2108 34.4887 12.1923 34.4553 12.1676 34.4267C12.1435 34.3981 12.1139 34.376 12.0788 34.3604C12.0437 34.3441 12.0034 34.336 11.9579 34.336C11.8974 34.336 11.8516 34.3441 11.8204 34.3604C11.7899 34.3766 11.7583 34.3987 11.7258 34.4267ZM13.0159 34.4247V34.5729H12.54V34.4247H13.0159ZM14.1324 34.6246V34.7728H13.1066V34.6665L13.7423 33.6827H13.8896L13.7316 33.9674L13.3114 34.6246H14.1324ZM13.9344 33.6827V35.1024H13.754V33.6827H13.9344ZM15.2557 34.6246V34.7728H14.2299V34.6665L14.8657 33.6827H15.0129L14.8549 33.9674L14.4347 34.6246H15.2557ZM15.0578 33.6827V35.1024H14.8774V33.6827H15.0578Z" fill="#8794BA"/>
<path d="M11.3046 44.2737V44.4219H10.3753V44.2922L10.8404 43.7744C10.8976 43.7107 10.9418 43.6567 10.973 43.6125C11.0049 43.5677 11.027 43.5277 11.0394 43.4926C11.0524 43.4568 11.0589 43.4204 11.0589 43.3834C11.0589 43.3366 11.0491 43.2943 11.0296 43.2566C11.0107 43.2183 10.9828 43.1877 10.9457 43.165C10.9087 43.1422 10.8638 43.1308 10.8112 43.1308C10.7481 43.1308 10.6955 43.1432 10.6532 43.1679C10.6116 43.1919 10.5804 43.2257 10.5596 43.2693C10.5388 43.3129 10.5284 43.3629 10.5284 43.4195H10.348C10.348 43.3395 10.3656 43.2664 10.4007 43.2001C10.4358 43.1338 10.4878 43.0811 10.5567 43.0421C10.6256 43.0024 10.7104 42.9826 10.8112 42.9826C10.9009 42.9826 10.9776 42.9985 11.0413 43.0304C11.105 43.0616 11.1538 43.1058 11.1876 43.163C11.222 43.2196 11.2392 43.2859 11.2392 43.3619C11.2392 43.4035 11.2321 43.4458 11.2178 43.4887C11.2041 43.531 11.185 43.5732 11.1603 43.6155C11.1362 43.6577 11.1079 43.6993 11.0754 43.7403C11.0436 43.7812 11.0094 43.8215 10.973 43.8612L10.5928 44.2737H11.3046ZM11.7258 43.7461L11.5815 43.7091L11.6527 43.0021H12.3811V43.1689H11.8058L11.7629 43.555C11.7889 43.5401 11.8217 43.5261 11.8614 43.5131C11.9017 43.5001 11.9478 43.4936 11.9998 43.4936C12.0655 43.4936 12.1243 43.5049 12.1763 43.5277C12.2283 43.5498 12.2725 43.5817 12.3089 43.6233C12.346 43.6649 12.3743 43.7149 12.3938 43.7734C12.4133 43.8319 12.423 43.8973 12.423 43.9694C12.423 44.0377 12.4136 44.1004 12.3948 44.1576C12.3765 44.2148 12.3489 44.2649 12.3119 44.3078C12.2748 44.35 12.228 44.3829 12.1715 44.4063C12.1155 44.4297 12.0496 44.4414 11.9735 44.4414C11.9163 44.4414 11.862 44.4336 11.8107 44.418C11.76 44.4017 11.7145 44.3773 11.6741 44.3448C11.6345 44.3117 11.602 44.2707 11.5766 44.222C11.5519 44.1726 11.5363 44.1147 11.5298 44.0484H11.7014C11.7093 44.1017 11.7249 44.1466 11.7483 44.183C11.7717 44.2194 11.8022 44.247 11.8399 44.2659C11.8783 44.2841 11.9228 44.2932 11.9735 44.2932C12.0164 44.2932 12.0544 44.2857 12.0876 44.2707C12.1207 44.2558 12.1487 44.2343 12.1715 44.2064C12.1942 44.1784 12.2114 44.1446 12.2231 44.105C12.2355 44.0653 12.2417 44.0208 12.2417 43.9714C12.2417 43.9265 12.2355 43.8849 12.2231 43.8466C12.2108 43.8082 12.1923 43.7747 12.1676 43.7461C12.1435 43.7175 12.1139 43.6954 12.0788 43.6798C12.0437 43.6636 12.0034 43.6554 11.9579 43.6554C11.8974 43.6554 11.8516 43.6636 11.8204 43.6798C11.7899 43.6961 11.7583 43.7182 11.7258 43.7461ZM13.0159 43.7442V43.8924H12.54V43.7442H13.0159ZM13.4362 43.6233H13.5649C13.6279 43.6233 13.6799 43.6129 13.7209 43.5921C13.7625 43.5706 13.7934 43.5417 13.8135 43.5053C13.8343 43.4682 13.8447 43.4266 13.8447 43.3805C13.8447 43.3259 13.8356 43.28 13.8174 43.243C13.7992 43.2059 13.7719 43.178 13.7355 43.1591C13.6991 43.1403 13.653 43.1308 13.5971 43.1308C13.5464 43.1308 13.5015 43.1409 13.4625 43.1611C13.4241 43.1806 13.3939 43.2085 13.3718 43.2449C13.3504 43.2813 13.3396 43.3242 13.3396 43.3736H13.1592C13.1592 43.3015 13.1774 43.2358 13.2138 43.1767C13.2502 43.1175 13.3013 43.0704 13.3669 43.0353C13.4332 43.0002 13.5099 42.9826 13.5971 42.9826C13.6829 42.9826 13.758 42.9979 13.8223 43.0284C13.8867 43.0584 13.9367 43.1032 13.9725 43.163C14.0082 43.2222 14.0261 43.296 14.0261 43.3844C14.0261 43.4201 14.0177 43.4585 14.0008 43.4994C13.9845 43.5397 13.9588 43.5774 13.9237 43.6125C13.8893 43.6476 13.8444 43.6766 13.7892 43.6993C13.7339 43.7214 13.6676 43.7325 13.5902 43.7325H13.4362V43.6233ZM13.4362 43.7715V43.6632H13.5902C13.6806 43.6632 13.7553 43.674 13.8145 43.6954C13.8737 43.7169 13.9201 43.7455 13.9539 43.7812C13.9884 43.817 14.0125 43.8563 14.0261 43.8992C14.0404 43.9415 14.0476 43.9837 14.0476 44.026C14.0476 44.0923 14.0362 44.1511 14.0134 44.2025C13.9913 44.2538 13.9598 44.2974 13.9188 44.3331C13.8785 44.3689 13.8311 44.3959 13.7765 44.4141C13.7219 44.4323 13.6624 44.4414 13.598 44.4414C13.5363 44.4414 13.4781 44.4326 13.4235 44.415C13.3695 44.3975 13.3218 44.3721 13.2801 44.339C13.2385 44.3052 13.206 44.2639 13.1826 44.2152C13.1592 44.1657 13.1475 44.1095 13.1475 44.0465H13.3279C13.3279 44.0959 13.3387 44.1391 13.3601 44.1761C13.3822 44.2132 13.4134 44.2421 13.4537 44.2629C13.4947 44.2831 13.5428 44.2932 13.598 44.2932C13.6533 44.2932 13.7007 44.2837 13.7404 44.2649C13.7807 44.2454 13.8116 44.2161 13.833 44.1771C13.8551 44.1381 13.8662 44.089 13.8662 44.0299C13.8662 43.9707 13.8538 43.9223 13.8291 43.8846C13.8044 43.8462 13.7693 43.818 13.7238 43.7998C13.679 43.7809 13.626 43.7715 13.5649 43.7715H13.4362ZM15.2557 43.9441V44.0923H14.2299V43.986L14.8657 43.0021H15.0129L14.8549 43.2869L14.4347 43.9441H15.2557ZM15.0578 43.0021V44.4219H14.8774V43.0021H15.0578Z" fill="#8794BA"/>
<path d="M10.9672 52.3137V53.7412H10.7868V52.5389L10.4231 52.6715V52.5087L10.9389 52.3137H10.9672ZM12.3928 53.357C12.3928 53.4435 12.3726 53.5169 12.3323 53.5774C12.2927 53.6372 12.2387 53.6827 12.1705 53.7139C12.1029 53.7451 12.0265 53.7607 11.9413 53.7607C11.8562 53.7607 11.7795 53.7451 11.7112 53.7139C11.6429 53.6827 11.589 53.6372 11.5493 53.5774C11.5097 53.5169 11.4899 53.4435 11.4899 53.357C11.4899 53.3005 11.5006 53.2488 11.522 53.202C11.5441 53.1545 11.575 53.1132 11.6147 53.0781C11.655 53.043 11.7024 53.0161 11.757 52.9972C11.8123 52.9777 11.8731 52.968 11.9394 52.968C12.0265 52.968 12.1042 52.9849 12.1724 53.0187C12.2407 53.0518 12.2943 53.0976 12.3333 53.1561C12.373 53.2147 12.3928 53.2816 12.3928 53.357ZM12.2114 53.3531C12.2114 53.3005 12.2001 53.254 12.1773 53.2137C12.1545 53.1727 12.1227 53.1409 12.0817 53.1181C12.0408 53.0954 11.9933 53.084 11.9394 53.084C11.8841 53.084 11.8363 53.0954 11.796 53.1181C11.7564 53.1409 11.7255 53.1727 11.7034 53.2137C11.6813 53.254 11.6702 53.3005 11.6702 53.3531C11.6702 53.4077 11.681 53.4545 11.7024 53.4935C11.7245 53.5319 11.7557 53.5615 11.796 53.5823C11.837 53.6024 11.8854 53.6125 11.9413 53.6125C11.9972 53.6125 12.0453 53.6024 12.0856 53.5823C12.1259 53.5615 12.1568 53.5319 12.1783 53.4935C12.2004 53.4545 12.2114 53.4077 12.2114 53.3531ZM12.3596 52.691C12.3596 52.7599 12.3414 52.822 12.305 52.8773C12.2686 52.9325 12.2189 52.9761 12.1558 53.0079C12.0928 53.0398 12.0213 53.0557 11.9413 53.0557C11.8601 53.0557 11.7876 53.0398 11.7239 53.0079C11.6608 52.9761 11.6114 52.9325 11.5757 52.8773C11.5399 52.822 11.522 52.7599 11.522 52.691C11.522 52.6085 11.5399 52.5383 11.5757 52.4804C11.6121 52.4225 11.6618 52.3783 11.7249 52.3478C11.7879 52.3172 11.8597 52.302 11.9404 52.302C12.0216 52.302 12.0938 52.3172 12.1568 52.3478C12.2199 52.3783 12.2693 52.4225 12.305 52.4804C12.3414 52.5383 12.3596 52.6085 12.3596 52.691ZM12.1793 52.6939C12.1793 52.6465 12.1692 52.6046 12.149 52.5682C12.1289 52.5318 12.1009 52.5031 12.0652 52.4823C12.0294 52.4609 11.9878 52.4502 11.9404 52.4502C11.8929 52.4502 11.8513 52.4602 11.8155 52.4804C11.7804 52.4999 11.7528 52.5279 11.7327 52.5643C11.7132 52.6007 11.7034 52.6439 11.7034 52.6939C11.7034 52.7427 11.7132 52.7853 11.7327 52.8217C11.7528 52.8581 11.7808 52.8864 11.8165 52.9065C11.8523 52.9267 11.8939 52.9367 11.9413 52.9367C11.9888 52.9367 12.0301 52.9267 12.0652 52.9065C12.1009 52.8864 12.1289 52.8581 12.149 52.8217C12.1692 52.7853 12.1793 52.7427 12.1793 52.6939ZM13.0159 53.0635V53.2117H12.54V53.0635H13.0159ZM14.1031 53.593V53.7412H13.1739V53.6115L13.639 53.0937C13.6962 53.03 13.7404 52.9761 13.7716 52.9319C13.8035 52.887 13.8256 52.847 13.8379 52.8119C13.8509 52.7762 13.8574 52.7398 13.8574 52.7027C13.8574 52.6559 13.8477 52.6137 13.8282 52.576C13.8093 52.5376 13.7814 52.5071 13.7443 52.4843C13.7072 52.4615 13.6624 52.4502 13.6097 52.4502C13.5467 52.4502 13.494 52.4625 13.4518 52.4872C13.4102 52.5113 13.379 52.5451 13.3582 52.5886C13.3374 52.6322 13.327 52.6822 13.327 52.7388H13.1466C13.1466 52.6588 13.1641 52.5857 13.1992 52.5194C13.2343 52.4531 13.2863 52.4004 13.3552 52.3614C13.4241 52.3218 13.509 52.302 13.6097 52.302C13.6994 52.302 13.7762 52.3179 13.8399 52.3497C13.9036 52.3809 13.9523 52.4251 13.9861 52.4823C14.0206 52.5389 14.0378 52.6052 14.0378 52.6813C14.0378 52.7229 14.0307 52.7651 14.0164 52.808C14.0027 52.8503 13.9835 52.8925 13.9588 52.9348C13.9348 52.9771 13.9065 53.0187 13.874 53.0596C13.8421 53.1006 13.808 53.1409 13.7716 53.1805L13.3913 53.593H14.1031ZM15.2557 53.2634V53.4116H14.2299V53.3053L14.8657 52.3215H15.0129L14.8549 52.6062L14.4347 53.2634H15.2557ZM15.0578 52.3215V53.7412H14.8774V52.3215H15.0578Z" fill="#8794BA"/>
<path d="M17.1323 13.6315H59.8186C60.3241 13.6315 60.7339 14.0413 60.7339 14.5468C60.7339 15.0523 60.3241 15.4621 59.8186 15.4621H17.1323V13.6315Z" fill="#EF2A82"/>
<path d="M17.1323 23.1173H45.3402C45.8457 23.1173 46.2555 23.5271 46.2555 24.0326C46.2555 24.5381 45.8457 24.9479 45.3402 24.9479H17.1323V23.1173Z" fill="#EF2A82"/>
<path d="M17.1323 32.6031H18.8797C19.3852 32.6031 19.795 33.0129 19.795 33.5184C19.795 34.024 19.3852 34.4338 18.8797 34.4338H17.1323V32.6031Z" fill="#EF2A82"/>
<path d="M17.1323 42.089H24.2051C24.7106 42.089 25.1204 42.4988 25.1204 43.0043C25.1204 43.5098 24.7106 43.9196 24.2051 43.9196H17.1323V42.089Z" fill="#EF2A82"/>
<path d="M17.1323 51.5748H50.832C51.3375 51.5748 51.7473 51.9846 51.7473 52.4901C51.7473 52.9956 51.3375 53.4054 50.832 53.4054H17.1323V51.5748Z" fill="#EF2A82"/>
<path d="M17.1323 15.9613H40.8469C41.3524 15.9613 41.7622 16.3711 41.7622 16.8766C41.7622 17.3821 41.3524 17.7919 40.8469 17.7919H17.1323V15.9613Z" fill="#0088F0"/>
<path d="M17.1323 25.4471H50.832C51.3375 25.4471 51.7473 25.8569 51.7473 26.3624C51.7473 26.868 51.3375 27.2777 50.832 27.2777H17.1323V25.4471Z" fill="#0088F0"/>
<path d="M17.1323 34.933H24.2051C24.7106 34.933 25.1204 35.3428 25.1204 35.8483C25.1204 36.3538 24.7106 36.7636 24.2051 36.7636H17.1323V34.933Z" fill="#0088F0"/>
<path d="M17.1323 44.4188H72.6328C73.1383 44.4188 73.5481 44.8286 73.5481 45.3341C73.5481 45.8396 73.1383 46.2494 72.6328 46.2494H17.1323V44.4188Z" fill="#0088F0"/>
<path d="M17.1323 53.9047H82.1187C82.6242 53.9047 83.034 54.3145 83.034 54.82C83.034 55.3255 82.6242 55.7353 82.1187 55.7353H17.1323V53.9047Z" fill="#0088F0"/>
</svg>
