<svg width="101" height="69" viewBox="0 0 101 69" fill="none" xmlns="http://www.w3.org/2000/svg">
<rect x="0.480469" y="0.0441895" width="99.851" height="68.2315" rx="4.99255" fill="white"/>
<rect x="10.6318" y="57.7914" width="0.166419" height="79.5479" transform="rotate(-90 10.6318 57.7914)" fill="#EEEEF7"/>
<rect x="10.6318" y="50.9683" width="0.166419" height="79.5479" transform="rotate(-90 10.6318 50.9683)" fill="#EEEEF7"/>
<rect x="10.6318" y="44.145" width="0.166419" height="79.5479" transform="rotate(-90 10.6318 44.145)" fill="#EEEEF7"/>
<rect x="10.6318" y="37.3219" width="0.166419" height="79.5479" transform="rotate(-90 10.6318 37.3219)" fill="#EEEEF7"/>
<rect x="10.6318" y="30.4988" width="0.166419" height="79.5479" transform="rotate(-90 10.6318 30.4988)" fill="#EEEEF7"/>
<rect x="10.6318" y="23.6757" width="0.166419" height="79.5479" transform="rotate(-90 10.6318 23.6757)" fill="#EEEEF7"/>
<rect x="10.6318" y="16.8524" width="0.166419" height="79.5479" transform="rotate(-90 10.6318 16.8524)" fill="#EEEEF7"/>
<rect x="10.6318" y="10.0293" width="0.166419" height="79.5479" transform="rotate(-90 10.6318 10.0293)" fill="#EEEEF7"/>
<path d="M10.6244 59.5287V60.9563H10.444V59.754L10.0803 59.8866V59.7238L10.5961 59.5287H10.6244ZM12.05 60.5721C12.05 60.6586 12.0299 60.732 11.9896 60.7925C11.9499 60.8523 11.896 60.8978 11.8277 60.929C11.7601 60.9602 11.6837 60.9758 11.5986 60.9758C11.5134 60.9758 11.4367 60.9602 11.3684 60.929C11.3002 60.8978 11.2462 60.8523 11.2066 60.7925C11.1669 60.732 11.1471 60.6586 11.1471 60.5721C11.1471 60.5156 11.1578 60.4639 11.1793 60.4171C11.2014 60.3696 11.2322 60.3283 11.2719 60.2932C11.3122 60.2581 11.3597 60.2311 11.4143 60.2123C11.4695 60.1928 11.5303 60.183 11.5966 60.183C11.6837 60.183 11.7614 60.1999 11.8297 60.2337C11.8979 60.2669 11.9515 60.3127 11.9905 60.3712C12.0302 60.4297 12.05 60.4967 12.05 60.5721ZM11.8687 60.5682C11.8687 60.5156 11.8573 60.4691 11.8345 60.4288C11.8118 60.3878 11.7799 60.356 11.739 60.3332C11.698 60.3105 11.6506 60.2991 11.5966 60.2991C11.5413 60.2991 11.4936 60.3105 11.4533 60.3332C11.4136 60.356 11.3827 60.3878 11.3606 60.4288C11.3385 60.4691 11.3275 60.5156 11.3275 60.5682C11.3275 60.6228 11.3382 60.6696 11.3597 60.7086C11.3818 60.747 11.413 60.7766 11.4533 60.7974C11.4942 60.8175 11.5426 60.8276 11.5986 60.8276C11.6545 60.8276 11.7026 60.8175 11.7429 60.7974C11.7832 60.7766 11.8141 60.747 11.8355 60.7086C11.8576 60.6696 11.8687 60.6228 11.8687 60.5682ZM12.0169 59.9061C12.0169 59.975 11.9987 60.0371 11.9623 60.0924C11.9259 60.1476 11.8761 60.1912 11.8131 60.223C11.75 60.2549 11.6785 60.2708 11.5986 60.2708C11.5173 60.2708 11.4448 60.2549 11.3811 60.223C11.318 60.1912 11.2686 60.1476 11.2329 60.0924C11.1971 60.0371 11.1793 59.975 11.1793 59.9061C11.1793 59.8235 11.1971 59.7533 11.2329 59.6955C11.2693 59.6376 11.319 59.5934 11.3821 59.5629C11.4451 59.5323 11.517 59.517 11.5976 59.517C11.6788 59.517 11.751 59.5323 11.8141 59.5629C11.8771 59.5934 11.9265 59.6376 11.9623 59.6955C11.9987 59.7533 12.0169 59.8235 12.0169 59.9061ZM11.8365 59.909C11.8365 59.8616 11.8264 59.8196 11.8063 59.7832C11.7861 59.7468 11.7581 59.7182 11.7224 59.6974C11.6866 59.676 11.645 59.6653 11.5976 59.6653C11.5501 59.6653 11.5085 59.6753 11.4728 59.6955C11.4377 59.715 11.41 59.7429 11.3899 59.7793C11.3704 59.8157 11.3606 59.859 11.3606 59.909C11.3606 59.9578 11.3704 60.0004 11.3899 60.0368C11.41 60.0732 11.438 60.1015 11.4737 60.1216C11.5095 60.1418 11.5511 60.1518 11.5986 60.1518C11.646 60.1518 11.6873 60.1418 11.7224 60.1216C11.7581 60.1015 11.7861 60.0732 11.8063 60.0368C11.8264 60.0004 11.8365 59.9578 11.8365 59.909ZM12.6731 60.2786V60.4268H12.1973V60.2786H12.6731ZM13.7604 60.8081V60.9563H12.8311V60.8266L13.2962 60.3088C13.3534 60.2451 13.3976 60.1912 13.4288 60.147C13.4607 60.1021 13.4828 60.0621 13.4951 60.027C13.5081 59.9913 13.5146 59.9549 13.5146 59.9178C13.5146 59.871 13.5049 59.8287 13.4854 59.791C13.4665 59.7527 13.4386 59.7221 13.4015 59.6994C13.3645 59.6766 13.3196 59.6653 13.267 59.6653C13.2039 59.6653 13.1512 59.6776 13.109 59.7023C13.0674 59.7264 13.0362 59.7602 13.0154 59.8037C12.9946 59.8473 12.9842 59.8973 12.9842 59.9539H12.8038C12.8038 59.8739 12.8213 59.8008 12.8564 59.7345C12.8915 59.6682 12.9436 59.6155 13.0125 59.5765C13.0814 59.5369 13.1662 59.517 13.267 59.517C13.3567 59.517 13.4334 59.533 13.4971 59.5648C13.5608 59.596 13.6095 59.6402 13.6434 59.6974C13.6778 59.754 13.695 59.8203 13.695 59.8964C13.695 59.938 13.6879 59.9802 13.6736 60.0231C13.6599 60.0654 13.6408 60.1076 13.616 60.1499C13.592 60.1921 13.5637 60.2337 13.5312 60.2747C13.4994 60.3157 13.4652 60.356 13.4288 60.3956L13.0485 60.8081H13.7604ZM14.9129 60.4785V60.6267H13.8871V60.5204L14.5229 59.5365H14.6701L14.5122 59.8213L14.0919 60.4785H14.9129ZM14.715 59.5365V60.9563H14.5346V59.5365H14.715Z" fill="#8794BA"/>
<path d="M48.2382 60.1577H48.3669C48.43 60.1577 48.482 60.1473 48.5229 60.1265C48.5645 60.105 48.5954 60.0761 48.6156 60.0397C48.6364 60.0026 48.6468 59.961 48.6468 59.9149C48.6468 59.8603 48.6377 59.8144 48.6195 59.7774C48.6013 59.7403 48.574 59.7124 48.5376 59.6935C48.5011 59.6747 48.455 59.6653 48.3991 59.6653C48.3484 59.6653 48.3035 59.6753 48.2645 59.6955C48.2262 59.715 48.1959 59.7429 48.1738 59.7793C48.1524 59.8157 48.1417 59.8587 48.1417 59.9081H47.9613C47.9613 59.8359 47.9795 59.7702 48.0159 59.7111C48.0523 59.6519 48.1033 59.6048 48.169 59.5697C48.2353 59.5346 48.312 59.517 48.3991 59.517C48.4849 59.517 48.56 59.5323 48.6243 59.5629C48.6887 59.5928 48.7387 59.6376 48.7745 59.6974C48.8103 59.7566 48.8281 59.8304 48.8281 59.9188C48.8281 59.9545 48.8197 59.9929 48.8028 60.0338C48.7865 60.0742 48.7609 60.1119 48.7257 60.147C48.6913 60.1821 48.6464 60.211 48.5912 60.2337C48.5359 60.2558 48.4696 60.2669 48.3923 60.2669H48.2382V60.1577ZM48.2382 60.3059V60.1977H48.3923C48.4826 60.1977 48.5574 60.2084 48.6165 60.2298C48.6757 60.2513 48.7222 60.2799 48.756 60.3157C48.7904 60.3514 48.8145 60.3907 48.8281 60.4336C48.8424 60.4759 48.8496 60.5182 48.8496 60.5604C48.8496 60.6267 48.8382 60.6855 48.8155 60.7369C48.7934 60.7883 48.7618 60.8318 48.7209 60.8676C48.6806 60.9033 48.6331 60.9303 48.5785 60.9485C48.5239 60.9667 48.4644 60.9758 48.4001 60.9758C48.3383 60.9758 48.2801 60.967 48.2255 60.9495C48.1716 60.9319 48.1238 60.9066 48.0822 60.8734C48.0406 60.8396 48.0081 60.7983 47.9847 60.7496C47.9613 60.7002 47.9496 60.6439 47.9496 60.5809H48.13C48.13 60.6303 48.1407 60.6735 48.1621 60.7106C48.1842 60.7476 48.2154 60.7766 48.2557 60.7974C48.2967 60.8175 48.3448 60.8276 48.4001 60.8276C48.4553 60.8276 48.5028 60.8182 48.5424 60.7993C48.5827 60.7798 48.6136 60.7506 48.6351 60.7115C48.6572 60.6725 48.6682 60.6235 48.6682 60.5643C48.6682 60.5051 48.6559 60.4567 48.6312 60.419C48.6065 60.3807 48.5714 60.3524 48.5258 60.3342C48.481 60.3153 48.428 60.3059 48.3669 60.3059H48.2382ZM49.3264 60.2805L49.1821 60.2435L49.2533 59.5365H49.9817V59.7033H49.4064L49.3635 60.0894C49.3895 60.0745 49.4223 60.0605 49.462 60.0475C49.5023 60.0345 49.5484 60.028 49.6004 60.028C49.6661 60.028 49.7249 60.0394 49.7769 60.0621C49.8289 60.0842 49.8731 60.1161 49.9095 60.1577C49.9466 60.1993 49.9749 60.2493 49.9944 60.3079C50.0139 60.3664 50.0236 60.4317 50.0236 60.5038C50.0236 60.5721 50.0142 60.6348 49.9953 60.692C49.9771 60.7493 49.9495 60.7993 49.9125 60.8422C49.8754 60.8845 49.8286 60.9173 49.772 60.9407C49.7161 60.9641 49.6501 60.9758 49.5741 60.9758C49.5169 60.9758 49.4626 60.968 49.4112 60.9524C49.3605 60.9361 49.315 60.9118 49.2747 60.8793C49.2351 60.8461 49.2026 60.8052 49.1772 60.7564C49.1525 60.707 49.1369 60.6491 49.1304 60.5828H49.302C49.3098 60.6361 49.3254 60.681 49.3488 60.7174C49.3722 60.7538 49.4028 60.7814 49.4405 60.8003C49.4789 60.8185 49.5234 60.8276 49.5741 60.8276C49.617 60.8276 49.655 60.8201 49.6882 60.8052C49.7213 60.7902 49.7493 60.7688 49.772 60.7408C49.7948 60.7128 49.812 60.679 49.8237 60.6394C49.8361 60.5997 49.8422 60.5552 49.8422 60.5058C49.8422 60.4609 49.8361 60.4193 49.8237 60.381C49.8114 60.3426 49.7928 60.3092 49.7681 60.2805C49.7441 60.2519 49.7145 60.2298 49.6794 60.2142C49.6443 60.198 49.604 60.1899 49.5585 60.1899C49.498 60.1899 49.4522 60.198 49.421 60.2142C49.3904 60.2305 49.3589 60.2526 49.3264 60.2805ZM50.6165 60.2786V60.4268H50.1406V60.2786H50.6165ZM51.733 60.4785V60.6267H50.7072V60.5204L51.3429 59.5365H51.4902L51.3322 59.8213L50.9119 60.4785H51.733ZM51.535 59.5365V60.9563H51.3546V59.5365H51.535ZM52.8563 60.4785V60.6267H51.8305V60.5204L52.4663 59.5365H52.6135L52.4555 59.8213L52.0353 60.4785H52.8563ZM52.6584 59.5365V60.9563H52.478V59.5365H52.6584Z" fill="#8794BA"/>
<path d="M87.6104 59.5346H87.626V59.6877H87.6104C87.5149 59.6877 87.4349 59.7033 87.3706 59.7345C87.3062 59.765 87.2552 59.8063 87.2175 59.8583C87.1798 59.9097 87.1525 59.9675 87.1356 60.0319C87.1193 60.0963 87.1112 60.1616 87.1112 60.2279V60.4366C87.1112 60.4996 87.1187 60.5555 87.1336 60.6043C87.1486 60.6524 87.169 60.693 87.195 60.7262C87.221 60.7593 87.2503 60.7844 87.2828 60.8013C87.316 60.8182 87.3504 60.8266 87.3862 60.8266C87.4278 60.8266 87.4648 60.8188 87.4973 60.8032C87.5298 60.787 87.5571 60.7645 87.5792 60.7359C87.602 60.7067 87.6192 60.6722 87.6309 60.6326C87.6426 60.5929 87.6485 60.5494 87.6485 60.5019C87.6485 60.4596 87.6433 60.419 87.6329 60.38C87.6225 60.3404 87.6065 60.3053 87.5851 60.2747C87.5636 60.2435 87.5367 60.2191 87.5041 60.2016C87.4723 60.1834 87.4343 60.1743 87.3901 60.1743C87.34 60.1743 87.2932 60.1866 87.2496 60.2113C87.2067 60.2354 87.1713 60.2672 87.1434 60.3069C87.1161 60.3459 87.1005 60.3885 87.0966 60.4346L87.001 60.4336C87.0101 60.3608 87.027 60.2988 87.0517 60.2474C87.0771 60.1954 87.1083 60.1531 87.1453 60.1206C87.183 60.0875 87.2249 60.0634 87.2711 60.0485C87.3179 60.0329 87.3673 60.0251 87.4193 60.0251C87.4902 60.0251 87.5513 60.0384 87.6026 60.0651C87.654 60.0917 87.6962 60.1275 87.7294 60.1723C87.7626 60.2165 87.7869 60.2666 87.8025 60.3225C87.8188 60.3777 87.8269 60.4346 87.8269 60.4931C87.8269 60.5601 87.8175 60.6228 87.7986 60.6813C87.7798 60.7398 87.7515 60.7912 87.7138 60.8354C87.6767 60.8796 87.6309 60.914 87.5763 60.9387C87.5217 60.9634 87.4583 60.9758 87.3862 60.9758C87.3095 60.9758 87.2425 60.9602 87.1853 60.929C87.1281 60.8971 87.0806 60.8549 87.0429 60.8022C87.0052 60.7496 86.9769 60.6911 86.9581 60.6267C86.9392 60.5624 86.9298 60.497 86.9298 60.4307V60.3459C86.9298 60.2458 86.9399 60.1476 86.96 60.0514C86.9802 59.9552 87.015 59.8681 87.0644 59.7901C87.1144 59.7121 87.1837 59.65 87.2721 59.6038C87.3605 59.5577 87.4733 59.5346 87.6104 59.5346ZM88.2696 60.2805L88.1253 60.2435L88.1965 59.5365H88.9249V59.7033H88.3496L88.3067 60.0894C88.3327 60.0745 88.3655 60.0605 88.4051 60.0475C88.4455 60.0345 88.4916 60.028 88.5436 60.028C88.6093 60.028 88.6681 60.0394 88.7201 60.0621C88.7721 60.0842 88.8163 60.1161 88.8527 60.1577C88.8898 60.1993 88.9181 60.2493 88.9376 60.3079C88.9571 60.3664 88.9668 60.4317 88.9668 60.5038C88.9668 60.5721 88.9574 60.6348 88.9385 60.692C88.9203 60.7493 88.8927 60.7993 88.8556 60.8422C88.8186 60.8845 88.7718 60.9173 88.7152 60.9407C88.6593 60.9641 88.5933 60.9758 88.5173 60.9758C88.4601 60.9758 88.4058 60.968 88.3544 60.9524C88.3037 60.9361 88.2582 60.9118 88.2179 60.8793C88.1783 60.8461 88.1458 60.8052 88.1204 60.7564C88.0957 60.707 88.0801 60.6491 88.0736 60.5828H88.2452C88.253 60.6361 88.2686 60.681 88.292 60.7174C88.3154 60.7538 88.346 60.7814 88.3837 60.8003C88.422 60.8185 88.4666 60.8276 88.5173 60.8276C88.5602 60.8276 88.5982 60.8201 88.6314 60.8052C88.6645 60.7902 88.6925 60.7688 88.7152 60.7408C88.738 60.7128 88.7552 60.679 88.7669 60.6394C88.7793 60.5997 88.7854 60.5552 88.7854 60.5058C88.7854 60.4609 88.7793 60.4193 88.7669 60.381C88.7546 60.3426 88.736 60.3092 88.7113 60.2805C88.6873 60.2519 88.6577 60.2298 88.6226 60.2142C88.5875 60.198 88.5472 60.1899 88.5017 60.1899C88.4412 60.1899 88.3954 60.198 88.3642 60.2142C88.3336 60.2305 88.3021 60.2526 88.2696 60.2805ZM90.096 60.1947V60.3644H89.1228V60.1947H90.096ZM89.7001 59.7803V60.8139H89.5197V59.7803H89.7001Z" fill="#8794BA"/>
<path d="M90.3465 16.7692L81.3599 40.983L72.3733 27.3367L60.9044 33.0782L49.4354 47.4733L37.3221 45.9756L25.2088 29.0009L17.7541 25.5893L10.2993 37.8211" stroke="#EF2A82" stroke-width="0.665673"/>
<path d="M10.299 46.9741L19.2856 42.2495L28.2722 44.9122L39.7411 43.7919L51.2101 40.9831L63.3234 41.2753L75.4367 44.5874L82.8914 45.2531L90.3462 42.8664" stroke="#0088F0" stroke-width="0.665673"/>
</svg>
