<svg width="101" height="69" viewBox="0 0 101 69" fill="none" xmlns="http://www.w3.org/2000/svg">
<rect x="0.480469" y="0.604065" width="99.851" height="68.2315" rx="4.99255" fill="white"/>
<rect x="10.6318" y="58.3512" width="0.166419" height="79.5479" transform="rotate(-90 10.6318 58.3512)" fill="#EEEEF7"/>
<rect x="10.6318" y="51.5281" width="0.166419" height="79.5479" transform="rotate(-90 10.6318 51.5281)" fill="#EEEEF7"/>
<rect x="10.6318" y="44.7049" width="0.166419" height="79.5479" transform="rotate(-90 10.6318 44.7049)" fill="#EEEEF7"/>
<rect x="10.6318" y="37.8818" width="0.166419" height="79.5479" transform="rotate(-90 10.6318 37.8818)" fill="#EEEEF7"/>
<rect x="10.6318" y="31.0587" width="0.166419" height="79.5479" transform="rotate(-90 10.6318 31.0587)" fill="#EEEEF7"/>
<rect x="10.6318" y="24.2355" width="0.166419" height="79.5479" transform="rotate(-90 10.6318 24.2355)" fill="#EEEEF7"/>
<rect x="10.6318" y="17.4123" width="0.166419" height="79.5479" transform="rotate(-90 10.6318 17.4123)" fill="#EEEEF7"/>
<rect x="10.6318" y="10.5892" width="0.166419" height="79.5479" transform="rotate(-90 10.6318 10.5892)" fill="#EEEEF7"/>
<path d="M24.2783 58.1848L24.2783 32.806C24.2783 31.1976 25.5822 29.8937 27.1906 29.8937C28.7991 29.8937 30.103 31.1976 30.103 32.806L30.103 58.1848L24.2783 58.1848Z" fill="#EF2A82"/>
<path d="M45.2466 58.1848L45.2466 49.6143C45.2466 48.0058 46.5505 46.702 48.1589 46.702C49.7673 46.702 51.0712 48.0058 51.0712 49.6143L51.0712 58.1848L45.2466 58.1848Z" fill="#EF2A82"/>
<path d="M66.2158 58.1848L66.2158 37.2993C66.2158 35.6909 67.5197 34.387 69.1281 34.387C70.7366 34.387 72.0405 35.6909 72.0405 37.2993L72.0405 58.1848L66.2158 58.1848Z" fill="#EF2A82"/>
<path d="M31.7671 58.1848L31.7671 43.2904C31.7671 41.6819 33.071 40.3781 34.6794 40.3781C36.2878 40.3781 37.5917 41.6819 37.5917 43.2904L37.5917 58.1848L31.7671 58.1848Z" fill="#0088F0"/>
<path d="M52.7358 58.1848L52.7358 18.6605C52.7358 17.052 54.0397 15.7482 55.6482 15.7482C57.2566 15.7482 58.5605 17.052 58.5605 18.6605L58.5605 58.1848L52.7358 58.1848Z" fill="#0088F0"/>
<path d="M73.7041 58.1848L73.7041 57.2695C73.7041 55.6611 75.008 54.3572 76.6164 54.3572C78.2249 54.3572 79.5287 55.6611 79.5287 57.2695L79.5287 58.1848L73.7041 58.1848Z" fill="#0088F0"/>
<path d="M29.2631 60.0886V61.5161H29.0827V60.3138L28.719 60.4464V60.2836L29.2348 60.0886H29.2631ZM30.6887 61.1319C30.6887 61.2184 30.6685 61.2918 30.6282 61.3523C30.5886 61.4121 30.5346 61.4576 30.4664 61.4888C30.3988 61.52 30.3224 61.5356 30.2372 61.5356C30.1521 61.5356 30.0754 61.52 30.0071 61.4888C29.9388 61.4576 29.8849 61.4121 29.8452 61.3523C29.8056 61.2918 29.7857 61.2184 29.7857 61.1319C29.7857 61.0754 29.7965 61.0237 29.8179 60.9769C29.84 60.9294 29.8709 60.8881 29.9106 60.853C29.9509 60.8179 29.9983 60.791 30.0529 60.7721C30.1082 60.7526 30.169 60.7429 30.2353 60.7429C30.3224 60.7429 30.4001 60.7598 30.4683 60.7936C30.5366 60.8267 30.5902 60.8725 30.6292 60.931C30.6689 60.9896 30.6887 61.0565 30.6887 61.1319ZM30.5073 61.128C30.5073 61.0754 30.496 61.0289 30.4732 60.9886C30.4504 60.9476 30.4186 60.9158 30.3776 60.893C30.3367 60.8703 30.2892 60.8589 30.2353 60.8589C30.18 60.8589 30.1322 60.8703 30.0919 60.893C30.0523 60.9158 30.0214 60.9476 29.9993 60.9886C29.9772 61.0289 29.9661 61.0754 29.9661 61.128C29.9661 61.1826 29.9769 61.2294 29.9983 61.2684C30.0204 61.3068 30.0516 61.3364 30.0919 61.3572C30.1329 61.3773 30.1813 61.3874 30.2372 61.3874C30.2931 61.3874 30.3412 61.3773 30.3815 61.3572C30.4218 61.3364 30.4527 61.3068 30.4742 61.2684C30.4963 61.2294 30.5073 61.1826 30.5073 61.128ZM30.6555 60.4659C30.6555 60.5348 30.6373 60.5969 30.6009 60.6522C30.5645 60.7074 30.5148 60.751 30.4517 60.7828C30.3887 60.8147 30.3172 60.8306 30.2372 60.8306C30.156 60.8306 30.0835 60.8147 30.0198 60.7828C29.9567 60.751 29.9073 60.7074 29.8716 60.6522C29.8358 60.5969 29.8179 60.5348 29.8179 60.4659C29.8179 60.3834 29.8358 60.3132 29.8716 60.2553C29.908 60.1974 29.9577 60.1532 30.0208 60.1227C30.0838 60.0921 30.1556 60.0769 30.2362 60.0769C30.3175 60.0769 30.3897 60.0921 30.4527 60.1227C30.5158 60.1532 30.5652 60.1974 30.6009 60.2553C30.6373 60.3132 30.6555 60.3834 30.6555 60.4659ZM30.4752 60.4688C30.4752 60.4214 30.4651 60.3795 30.4449 60.3431C30.4248 60.3067 30.3968 60.2781 30.3611 60.2572C30.3253 60.2358 30.2837 60.2251 30.2362 60.2251C30.1888 60.2251 30.1472 60.2351 30.1114 60.2553C30.0763 60.2748 30.0487 60.3028 30.0286 60.3392C30.009 60.3756 29.9993 60.4188 29.9993 60.4688C29.9993 60.5176 30.009 60.5602 30.0286 60.5966C30.0487 60.633 30.0767 60.6613 30.1124 60.6814C30.1482 60.7016 30.1898 60.7116 30.2372 60.7116C30.2847 60.7116 30.326 60.7016 30.3611 60.6814C30.3968 60.6613 30.4248 60.633 30.4449 60.5966C30.4651 60.5602 30.4752 60.5176 30.4752 60.4688ZM31.3118 60.8384V60.9866H30.8359V60.8384H31.3118ZM32.399 61.3679V61.5161H31.4698V61.3864L31.9349 60.8686C31.9921 60.8049 32.0363 60.751 32.0675 60.7068C32.0994 60.6619 32.1215 60.6219 32.1338 60.5868C32.1468 60.5511 32.1533 60.5147 32.1533 60.4776C32.1533 60.4308 32.1436 60.3886 32.1241 60.3509C32.1052 60.3125 32.0773 60.282 32.0402 60.2592C32.0031 60.2364 31.9583 60.2251 31.9056 60.2251C31.8426 60.2251 31.7899 60.2374 31.7477 60.2621C31.7061 60.2862 31.6749 60.32 31.6541 60.3635C31.6333 60.4071 31.6229 60.4571 31.6229 60.5137H31.4425C31.4425 60.4337 31.46 60.3606 31.4951 60.2943C31.5302 60.228 31.5822 60.1753 31.6511 60.1363C31.72 60.0967 31.8049 60.0769 31.9056 60.0769C31.9953 60.0769 32.0721 60.0928 32.1358 60.1246C32.1995 60.1558 32.2482 60.2 32.282 60.2572C32.3165 60.3138 32.3337 60.3801 32.3337 60.4562C32.3337 60.4978 32.3266 60.54 32.3123 60.5829C32.2986 60.6252 32.2794 60.6674 32.2547 60.7097C32.2307 60.752 32.2024 60.7936 32.1699 60.8345C32.138 60.8755 32.1039 60.9158 32.0675 60.9554L31.6872 61.3679H32.399ZM33.5516 61.0383V61.1865H32.5258V61.0802L33.1616 60.0964H33.3088L33.1508 60.3811L32.7306 61.0383H33.5516ZM33.3537 60.0964V61.5161H33.1733V60.0964H33.3537Z" fill="#8794BA"/>
<path d="M50.0688 60.7175H50.1975C50.2605 60.7175 50.3125 60.7071 50.3535 60.6863C50.3951 60.6648 50.426 60.6359 50.4461 60.5995C50.4669 60.5625 50.4773 60.5209 50.4773 60.4747C50.4773 60.4201 50.4682 60.3743 50.45 60.3372C50.4318 60.3002 50.4045 60.2722 50.3681 60.2533C50.3317 60.2345 50.2856 60.2251 50.2297 60.2251C50.1789 60.2251 50.1341 60.2351 50.0951 60.2553C50.0567 60.2748 50.0265 60.3028 50.0044 60.3392C49.983 60.3756 49.9722 60.4185 49.9722 60.4679H49.7918C49.7918 60.3957 49.81 60.3301 49.8464 60.2709C49.8828 60.2117 49.9339 60.1646 49.9995 60.1295C50.0658 60.0944 50.1425 60.0769 50.2297 60.0769C50.3155 60.0769 50.3905 60.0921 50.4549 60.1227C50.5193 60.1526 50.5693 60.1974 50.6051 60.2572C50.6408 60.3164 50.6587 60.3902 50.6587 60.4786C50.6587 60.5144 50.6502 60.5527 50.6333 60.5937C50.6171 60.634 50.5914 60.6717 50.5563 60.7068C50.5219 60.7419 50.477 60.7708 50.4217 60.7936C50.3665 60.8157 50.3002 60.8267 50.2228 60.8267H50.0688V60.7175ZM50.0688 60.8657V60.7575H50.2228C50.3132 60.7575 50.3879 60.7682 50.4471 60.7897C50.5063 60.8111 50.5527 60.8397 50.5865 60.8755C50.621 60.9112 50.645 60.9506 50.6587 60.9935C50.673 61.0357 50.6802 61.078 50.6802 61.1202C50.6802 61.1865 50.6688 61.2454 50.646 61.2967C50.6239 61.3481 50.5924 61.3916 50.5514 61.4274C50.5111 61.4631 50.4637 61.4901 50.4091 61.5083C50.3545 61.5265 50.295 61.5356 50.2306 61.5356C50.1689 61.5356 50.1107 61.5268 50.0561 61.5093C50.0021 61.4917 49.9543 61.4664 49.9127 61.4332C49.8711 61.3994 49.8386 61.3581 49.8152 61.3094C49.7918 61.26 49.7801 61.2038 49.7801 61.1407H49.9605C49.9605 61.1901 49.9712 61.2333 49.9927 61.2704C50.0148 61.3074 50.046 61.3364 50.0863 61.3572C50.1273 61.3773 50.1754 61.3874 50.2306 61.3874C50.2859 61.3874 50.3333 61.378 50.373 61.3591C50.4133 61.3396 50.4442 61.3104 50.4656 61.2714C50.4877 61.2324 50.4988 61.1833 50.4988 61.1241C50.4988 61.065 50.4864 61.0165 50.4617 60.9788C50.437 60.9405 50.4019 60.9122 50.3564 60.894C50.3116 60.8751 50.2586 60.8657 50.1975 60.8657H50.0688ZM51.157 60.8404L51.0127 60.8033L51.0838 60.0964H51.8123V60.2631H51.2369L51.194 60.6492C51.22 60.6343 51.2529 60.6203 51.2925 60.6073C51.3328 60.5943 51.379 60.5878 51.431 60.5878C51.4966 60.5878 51.5555 60.5992 51.6075 60.6219C51.6595 60.644 51.7037 60.6759 51.7401 60.7175C51.7771 60.7591 51.8054 60.8092 51.8249 60.8677C51.8444 60.9262 51.8542 60.9915 51.8542 61.0637C51.8542 61.1319 51.8448 61.1947 51.8259 61.2519C51.8077 61.3091 51.7801 61.3591 51.743 61.402C51.706 61.4443 51.6592 61.4771 51.6026 61.5005C51.5467 61.5239 51.4807 61.5356 51.4047 61.5356C51.3475 61.5356 51.2932 61.5278 51.2418 61.5122C51.1911 61.496 51.1456 61.4716 51.1053 61.4391C51.0656 61.4059 51.0331 61.365 51.0078 61.3162C50.9831 61.2668 50.9675 61.209 50.961 61.1426H51.1326C51.1404 61.196 51.156 61.2408 51.1794 61.2772C51.2028 61.3136 51.2334 61.3412 51.2711 61.3601C51.3094 61.3783 51.354 61.3874 51.4047 61.3874C51.4476 61.3874 51.4856 61.3799 51.5187 61.365C51.5519 61.35 51.5799 61.3286 51.6026 61.3006C51.6254 61.2727 51.6426 61.2389 51.6543 61.1992C51.6666 61.1595 51.6728 61.115 51.6728 61.0656C51.6728 61.0208 51.6666 60.9792 51.6543 60.9408C51.6419 60.9024 51.6234 60.869 51.5987 60.8404C51.5747 60.8118 51.5451 60.7897 51.51 60.7741C51.4749 60.7578 51.4346 60.7497 51.3891 60.7497C51.3286 60.7497 51.2828 60.7578 51.2516 60.7741C51.221 60.7903 51.1895 60.8124 51.157 60.8404ZM52.447 60.8384V60.9866H51.9712V60.8384H52.447ZM53.5635 61.0383V61.1865H52.5377V61.0802L53.1735 60.0964H53.3207L53.1628 60.3811L52.7425 61.0383H53.5635ZM53.3656 60.0964V61.5161H53.1852V60.0964H53.3656ZM54.6869 61.0383V61.1865H53.6611V61.0802L54.2968 60.0964H54.4441L54.2861 60.3811L53.8658 61.0383H54.6869ZM54.4889 60.0964V61.5161H54.3085V60.0964H54.4889Z" fill="#8794BA"/>
<path d="M71.6344 60.0944H71.65V60.2475H71.6344C71.5388 60.2475 71.4588 60.2631 71.3945 60.2943C71.3301 60.3249 71.2791 60.3661 71.2414 60.4181C71.2037 60.4695 71.1764 60.5274 71.1595 60.5917C71.1432 60.6561 71.1351 60.7214 71.1351 60.7877V60.9964C71.1351 61.0594 71.1426 61.1153 71.1575 61.1641C71.1725 61.2122 71.193 61.2528 71.219 61.286C71.245 61.3191 71.2742 61.3442 71.3067 61.3611C71.3399 61.378 71.3743 61.3864 71.4101 61.3864C71.4517 61.3864 71.4887 61.3786 71.5212 61.363C71.5538 61.3468 71.5811 61.3243 71.6032 61.2957C71.6259 61.2665 71.6431 61.232 71.6548 61.1924C71.6665 61.1527 71.6724 61.1092 71.6724 61.0617C71.6724 61.0195 71.6672 60.9788 71.6568 60.9398C71.6464 60.9002 71.6305 60.8651 71.609 60.8345C71.5876 60.8033 71.5606 60.7789 71.5281 60.7614C71.4962 60.7432 71.4582 60.7341 71.414 60.7341C71.3639 60.7341 71.3171 60.7464 71.2736 60.7711C71.2307 60.7952 71.1952 60.827 71.1673 60.8667C71.14 60.9057 71.1244 60.9483 71.1205 60.9944L71.0249 60.9935C71.034 60.9206 71.0509 60.8586 71.0756 60.8072C71.101 60.7552 71.1322 60.713 71.1692 60.6804C71.2069 60.6473 71.2489 60.6232 71.295 60.6083C71.3418 60.5927 71.3912 60.5849 71.4432 60.5849C71.5141 60.5849 71.5752 60.5982 71.6266 60.6249C71.6779 60.6515 71.7202 60.6873 71.7533 60.7321C71.7865 60.7763 71.8109 60.8264 71.8265 60.8823C71.8427 60.9375 71.8508 60.9944 71.8508 61.0529C71.8508 61.1199 71.8414 61.1826 71.8226 61.2411C71.8037 61.2996 71.7754 61.351 71.7377 61.3952C71.7007 61.4394 71.6548 61.4739 71.6002 61.4986C71.5456 61.5233 71.4822 61.5356 71.4101 61.5356C71.3334 61.5356 71.2664 61.52 71.2092 61.4888C71.152 61.457 71.1046 61.4147 71.0668 61.362C71.0291 61.3094 71.0009 61.2509 70.982 61.1865C70.9632 61.1222 70.9537 61.0568 70.9537 60.9905V60.9057C70.9537 60.8056 70.9638 60.7074 70.984 60.6112C71.0041 60.515 71.0389 60.4279 71.0883 60.3499C71.1384 60.2719 71.2076 60.2098 71.296 60.1636C71.3844 60.1175 71.4972 60.0944 71.6344 60.0944ZM72.2935 60.8404L72.1492 60.8033L72.2204 60.0964H72.9488V60.2631H72.3735L72.3306 60.6492C72.3566 60.6343 72.3894 60.6203 72.4291 60.6073C72.4694 60.5943 72.5155 60.5878 72.5675 60.5878C72.6332 60.5878 72.692 60.5992 72.744 60.6219C72.796 60.644 72.8402 60.6759 72.8766 60.7175C72.9137 60.7591 72.942 60.8092 72.9615 60.8677C72.981 60.9262 72.9907 60.9915 72.9907 61.0637C72.9907 61.1319 72.9813 61.1947 72.9625 61.2519C72.9443 61.3091 72.9166 61.3591 72.8796 61.402C72.8425 61.4443 72.7957 61.4771 72.7392 61.5005C72.6833 61.5239 72.6173 61.5356 72.5412 61.5356C72.484 61.5356 72.4297 61.5278 72.3784 61.5122C72.3277 61.496 72.2822 61.4716 72.2419 61.4391C72.2022 61.4059 72.1697 61.365 72.1443 61.3162C72.1196 61.2668 72.104 61.209 72.0975 61.1426H72.2692C72.277 61.196 72.2926 61.2408 72.316 61.2772C72.3394 61.3136 72.3699 61.3412 72.4076 61.3601C72.446 61.3783 72.4905 61.3874 72.5412 61.3874C72.5841 61.3874 72.6221 61.3799 72.6553 61.365C72.6885 61.35 72.7164 61.3286 72.7392 61.3006C72.7619 61.2727 72.7791 61.2389 72.7908 61.1992C72.8032 61.1595 72.8094 61.115 72.8094 61.0656C72.8094 61.0208 72.8032 60.9792 72.7908 60.9408C72.7785 60.9024 72.76 60.869 72.7353 60.8404C72.7112 60.8118 72.6816 60.7897 72.6465 60.7741C72.6114 60.7578 72.5711 60.7497 72.5256 60.7497C72.4652 60.7497 72.4193 60.7578 72.3881 60.7741C72.3576 60.7903 72.326 60.8124 72.2935 60.8404ZM74.1199 60.7546V60.9242H73.1468V60.7546H74.1199ZM73.724 60.3401V61.3737H73.5436V60.3401H73.724Z" fill="#8794BA"/>
</svg>
