<svg width="101" height="69" viewBox="0 0 101 69" fill="none" xmlns="http://www.w3.org/2000/svg">
<rect x="0.832031" y="0.604065" width="99.851" height="68.2315" rx="4.99255" fill="white"/>
<rect x="10.9829" y="58.3512" width="0.166419" height="79.5479" transform="rotate(-90 10.9829 58.3512)" fill="#EEEEF7"/>
<rect x="10.9829" y="51.5281" width="0.166419" height="79.5479" transform="rotate(-90 10.9829 51.5281)" fill="#EEEEF7"/>
<rect x="10.9829" y="44.7049" width="0.166419" height="79.5479" transform="rotate(-90 10.9829 44.7049)" fill="#EEEEF7"/>
<rect x="10.9829" y="37.8818" width="0.166419" height="79.5479" transform="rotate(-90 10.9829 37.8818)" fill="#EEEEF7"/>
<rect x="10.9829" y="31.0586" width="0.166419" height="79.5479" transform="rotate(-90 10.9829 31.0586)" fill="#EEEEF7"/>
<rect x="10.9829" y="24.2355" width="0.166419" height="79.5479" transform="rotate(-90 10.9829 24.2355)" fill="#EEEEF7"/>
<rect x="10.9829" y="17.4123" width="0.166419" height="79.5479" transform="rotate(-90 10.9829 17.4123)" fill="#EEEEF7"/>
<rect x="10.9829" y="10.5892" width="0.166419" height="79.5479" transform="rotate(-90 10.9829 10.5892)" fill="#EEEEF7"/>
<path d="M29.6147 60.0886V61.5161H29.4343V60.3138L29.0705 60.4464V60.2836L29.5864 60.0886H29.6147ZM31.0403 61.1319C31.0403 61.2184 31.0201 61.2918 30.9798 61.3523C30.9402 61.4121 30.8862 61.4576 30.8179 61.4888C30.7503 61.52 30.6739 61.5356 30.5888 61.5356C30.5036 61.5356 30.4269 61.52 30.3587 61.4888C30.2904 61.4576 30.2364 61.4121 30.1968 61.3523C30.1571 61.2918 30.1373 61.2184 30.1373 61.1319C30.1373 61.0754 30.148 61.0237 30.1695 60.9769C30.1916 60.9294 30.2225 60.8881 30.2621 60.853C30.3024 60.8179 30.3499 60.791 30.4045 60.7721C30.4597 60.7526 30.5205 60.7429 30.5868 60.7429C30.6739 60.7429 30.7516 60.7598 30.8199 60.7936C30.8881 60.8267 30.9418 60.8725 30.9808 60.931C31.0204 60.9896 31.0403 61.0565 31.0403 61.1319ZM30.8589 61.128C30.8589 61.0754 30.8475 61.0289 30.8248 60.9886C30.802 60.9476 30.7702 60.9158 30.7292 60.893C30.6882 60.8703 30.6408 60.8589 30.5868 60.8589C30.5316 60.8589 30.4838 60.8703 30.4435 60.893C30.4038 60.9158 30.373 60.9476 30.3509 60.9886C30.3288 61.0289 30.3177 61.0754 30.3177 61.128C30.3177 61.1826 30.3284 61.2294 30.3499 61.2684C30.372 61.3068 30.4032 61.3364 30.4435 61.3572C30.4845 61.3773 30.5329 61.3874 30.5888 61.3874C30.6447 61.3874 30.6928 61.3773 30.7331 61.3572C30.7734 61.3364 30.8043 61.3068 30.8257 61.2684C30.8478 61.2294 30.8589 61.1826 30.8589 61.128ZM31.0071 60.4659C31.0071 60.5348 30.9889 60.5969 30.9525 60.6522C30.9161 60.7074 30.8664 60.751 30.8033 60.7828C30.7403 60.8147 30.6687 60.8306 30.5888 60.8306C30.5075 60.8306 30.435 60.8147 30.3713 60.7828C30.3083 60.751 30.2589 60.7074 30.2231 60.6522C30.1874 60.5969 30.1695 60.5348 30.1695 60.4659C30.1695 60.3834 30.1874 60.3132 30.2231 60.2553C30.2595 60.1974 30.3093 60.1532 30.3723 60.1227C30.4354 60.0921 30.5072 60.0769 30.5878 60.0769C30.6691 60.0769 30.7412 60.0921 30.8043 60.1227C30.8673 60.1532 30.9167 60.1974 30.9525 60.2553C30.9889 60.3132 31.0071 60.3834 31.0071 60.4659ZM30.8267 60.4688C30.8267 60.4214 30.8166 60.3795 30.7965 60.3431C30.7763 60.3067 30.7484 60.2781 30.7126 60.2572C30.6769 60.2358 30.6353 60.2251 30.5878 60.2251C30.5404 60.2251 30.4988 60.2351 30.463 60.2553C30.4279 60.2748 30.4003 60.3028 30.3801 60.3392C30.3606 60.3756 30.3509 60.4188 30.3509 60.4688C30.3509 60.5176 30.3606 60.5602 30.3801 60.5966C30.4003 60.633 30.4282 60.6613 30.464 60.6814C30.4997 60.7016 30.5413 60.7116 30.5888 60.7116C30.6362 60.7116 30.6775 60.7016 30.7126 60.6814C30.7484 60.6613 30.7763 60.633 30.7965 60.5966C30.8166 60.5602 30.8267 60.5176 30.8267 60.4688ZM31.6634 60.8384V60.9866H31.1875V60.8384H31.6634ZM32.7506 61.3679V61.5161H31.8213V61.3864L32.2864 60.8686C32.3437 60.8049 32.3879 60.751 32.4191 60.7068C32.4509 60.6619 32.473 60.6219 32.4854 60.5868C32.4984 60.5511 32.5049 60.5147 32.5049 60.4776C32.5049 60.4308 32.4951 60.3886 32.4756 60.3509C32.4568 60.3125 32.4288 60.282 32.3918 60.2592C32.3547 60.2364 32.3099 60.2251 32.2572 60.2251C32.1941 60.2251 32.1415 60.2374 32.0992 60.2621C32.0576 60.2862 32.0264 60.32 32.0056 60.3635C31.9848 60.4071 31.9744 60.4571 31.9744 60.5137H31.794C31.794 60.4337 31.8116 60.3606 31.8467 60.2943C31.8818 60.228 31.9338 60.1753 32.0027 60.1363C32.0716 60.0967 32.1564 60.0769 32.2572 60.0769C32.3469 60.0769 32.4236 60.0928 32.4873 60.1246C32.551 60.1558 32.5998 60.2 32.6336 60.2572C32.668 60.3138 32.6853 60.3801 32.6853 60.4562C32.6853 60.4978 32.6781 60.54 32.6638 60.5829C32.6502 60.6252 32.631 60.6674 32.6063 60.7097C32.5822 60.752 32.554 60.7936 32.5214 60.8345C32.4896 60.8755 32.4555 60.9158 32.4191 60.9554L32.0388 61.3679H32.7506ZM33.9032 61.0383V61.1865H32.8774V61.0802L33.5131 60.0964H33.6604L33.5024 60.3811L33.0821 61.0383H33.9032ZM33.7052 60.0964V61.5161H33.5248V60.0964H33.7052Z" fill="#8794BA"/>
<path d="M50.4203 60.7175H50.549C50.6121 60.7175 50.6641 60.7071 50.7051 60.6863C50.7467 60.6648 50.7775 60.6359 50.7977 60.5995C50.8185 60.5625 50.8289 60.5209 50.8289 60.4747C50.8289 60.4201 50.8198 60.3743 50.8016 60.3372C50.7834 60.3002 50.7561 60.2722 50.7197 60.2533C50.6833 60.2345 50.6371 60.2251 50.5812 60.2251C50.5305 60.2251 50.4857 60.2351 50.4467 60.2553C50.4083 60.2748 50.3781 60.3028 50.356 60.3392C50.3345 60.3756 50.3238 60.4185 50.3238 60.4679H50.1434C50.1434 60.3957 50.1616 60.3301 50.198 60.2709C50.2344 60.2117 50.2854 60.1646 50.3511 60.1295C50.4174 60.0944 50.4941 60.0769 50.5812 60.0769C50.667 60.0769 50.7421 60.0921 50.8065 60.1227C50.8708 60.1526 50.9209 60.1974 50.9566 60.2572C50.9924 60.3164 51.0103 60.3902 51.0103 60.4786C51.0103 60.5144 51.0018 60.5527 50.9849 60.5937C50.9687 60.634 50.943 60.6717 50.9079 60.7068C50.8734 60.7419 50.8286 60.7708 50.7733 60.7936C50.7181 60.8157 50.6517 60.8267 50.5744 60.8267H50.4203V60.7175ZM50.4203 60.8657V60.7575H50.5744C50.6647 60.7575 50.7395 60.7682 50.7987 60.7897C50.8578 60.8111 50.9043 60.8397 50.9381 60.8755C50.9726 60.9112 50.9966 60.9506 51.0103 60.9935C51.0246 61.0357 51.0317 61.078 51.0317 61.1202C51.0317 61.1865 51.0203 61.2454 50.9976 61.2967C50.9755 61.3481 50.944 61.3916 50.903 61.4274C50.8627 61.4631 50.8152 61.4901 50.7606 61.5083C50.706 61.5265 50.6465 61.5356 50.5822 61.5356C50.5204 61.5356 50.4623 61.5268 50.4076 61.5093C50.3537 61.4917 50.3059 61.4664 50.2643 61.4332C50.2227 61.3994 50.1902 61.3581 50.1668 61.3094C50.1434 61.26 50.1317 61.2038 50.1317 61.1407H50.3121C50.3121 61.1901 50.3228 61.2333 50.3443 61.2704C50.3664 61.3074 50.3976 61.3364 50.4379 61.3572C50.4788 61.3773 50.5269 61.3874 50.5822 61.3874C50.6374 61.3874 50.6849 61.378 50.7246 61.3591C50.7649 61.3396 50.7957 61.3104 50.8172 61.2714C50.8393 61.2324 50.8503 61.1833 50.8503 61.1241C50.8503 61.065 50.838 61.0165 50.8133 60.9788C50.7886 60.9405 50.7535 60.9122 50.708 60.894C50.6631 60.8751 50.6101 60.8657 50.549 60.8657H50.4203ZM51.5085 60.8404L51.3642 60.8033L51.4354 60.0964H52.1638V60.2631H51.5885L51.5456 60.6492C51.5716 60.6343 51.6044 60.6203 51.6441 60.6073C51.6844 60.5943 51.7305 60.5878 51.7825 60.5878C51.8482 60.5878 51.907 60.5992 51.959 60.6219C52.011 60.644 52.0553 60.6759 52.0917 60.7175C52.1287 60.7591 52.157 60.8092 52.1765 60.8677C52.196 60.9262 52.2057 60.9915 52.2057 61.0637C52.2057 61.1319 52.1963 61.1947 52.1775 61.2519C52.1593 61.3091 52.1316 61.3591 52.0946 61.402C52.0575 61.4443 52.0107 61.4771 51.9542 61.5005C51.8983 61.5239 51.8323 61.5356 51.7562 61.5356C51.699 61.5356 51.6447 61.5278 51.5934 61.5122C51.5427 61.496 51.4972 61.4716 51.4569 61.4391C51.4172 61.4059 51.3847 61.365 51.3594 61.3162C51.3346 61.2668 51.319 61.209 51.3125 61.1426H51.4842C51.492 61.196 51.5076 61.2408 51.531 61.2772C51.5544 61.3136 51.5849 61.3412 51.6226 61.3601C51.661 61.3783 51.7055 61.3874 51.7562 61.3874C51.7991 61.3874 51.8372 61.3799 51.8703 61.365C51.9035 61.35 51.9314 61.3286 51.9542 61.3006C51.9769 61.2727 51.9941 61.2389 52.0058 61.1992C52.0182 61.1595 52.0244 61.115 52.0244 61.0656C52.0244 61.0208 52.0182 60.9792 52.0058 60.9408C51.9935 60.9024 51.975 60.869 51.9503 60.8404C51.9262 60.8118 51.8966 60.7897 51.8615 60.7741C51.8264 60.7578 51.7861 60.7497 51.7406 60.7497C51.6802 60.7497 51.6343 60.7578 51.6031 60.7741C51.5726 60.7903 51.541 60.8124 51.5085 60.8404ZM52.7986 60.8384V60.9866H52.3228V60.8384H52.7986ZM53.9151 61.0383V61.1865H52.8893V61.0802L53.5251 60.0964H53.6723L53.5143 60.3811L53.0941 61.0383H53.9151ZM53.7172 60.0964V61.5161H53.5368V60.0964H53.7172ZM55.0384 61.0383V61.1865H54.0126V61.0802L54.6484 60.0964H54.7956L54.6377 60.3811L54.2174 61.0383H55.0384ZM54.8405 60.0964V61.5161H54.6601V60.0964H54.8405Z" fill="#8794BA"/>
<path d="M71.9859 60.0944H72.0015V60.2475H71.9859C71.8904 60.2475 71.8104 60.2631 71.746 60.2943C71.6817 60.3249 71.6307 60.3661 71.593 60.4181C71.5553 60.4695 71.5279 60.5274 71.511 60.5917C71.4948 60.6561 71.4867 60.7214 71.4867 60.7877V60.9964C71.4867 61.0594 71.4941 61.1153 71.5091 61.1641C71.524 61.2122 71.5445 61.2528 71.5705 61.286C71.5965 61.3191 71.6258 61.3442 71.6583 61.3611C71.6914 61.378 71.7259 61.3864 71.7616 61.3864C71.8033 61.3864 71.8403 61.3786 71.8728 61.363C71.9053 61.3468 71.9326 61.3243 71.9547 61.2957C71.9775 61.2665 71.9947 61.232 72.0064 61.1924C72.0181 61.1527 72.024 61.1092 72.024 61.0617C72.024 61.0195 72.0188 60.9788 72.0084 60.9398C71.9979 60.9002 71.982 60.8651 71.9606 60.8345C71.9391 60.8033 71.9121 60.7789 71.8796 60.7614C71.8478 60.7432 71.8098 60.7341 71.7655 60.7341C71.7155 60.7341 71.6687 60.7464 71.6251 60.7711C71.5822 60.7952 71.5468 60.827 71.5188 60.8667C71.4915 60.9057 71.4759 60.9483 71.472 60.9944L71.3765 60.9935C71.3856 60.9206 71.4025 60.8586 71.4272 60.8072C71.4525 60.7552 71.4837 60.713 71.5208 60.6804C71.5585 60.6473 71.6004 60.6232 71.6466 60.6083C71.6934 60.5927 71.7428 60.5849 71.7948 60.5849C71.8657 60.5849 71.9268 60.5982 71.9781 60.6249C72.0295 60.6515 72.0717 60.6873 72.1049 60.7321C72.138 60.7763 72.1624 60.8264 72.178 60.8823C72.1943 60.9375 72.2024 60.9944 72.2024 61.0529C72.2024 61.1199 72.193 61.1826 72.1741 61.2411C72.1553 61.2996 72.127 61.351 72.0893 61.3952C72.0522 61.4394 72.0064 61.4739 71.9518 61.4986C71.8972 61.5233 71.8338 61.5356 71.7616 61.5356C71.6849 61.5356 71.618 61.52 71.5608 61.4888C71.5036 61.457 71.4561 61.4147 71.4184 61.362C71.3807 61.3094 71.3524 61.2509 71.3336 61.1865C71.3147 61.1222 71.3053 61.0568 71.3053 60.9905V60.9057C71.3053 60.8056 71.3154 60.7074 71.3355 60.6112C71.3557 60.515 71.3905 60.4279 71.4399 60.3499C71.4899 60.2719 71.5592 60.2098 71.6476 60.1636C71.736 60.1175 71.8488 60.0944 71.9859 60.0944ZM72.6451 60.8404L72.5008 60.8033L72.572 60.0964H73.3004V60.2631H72.7251L72.6821 60.6492C72.7082 60.6343 72.741 60.6203 72.7806 60.6073C72.8209 60.5943 72.8671 60.5878 72.9191 60.5878C72.9848 60.5878 73.0436 60.5992 73.0956 60.6219C73.1476 60.644 73.1918 60.6759 73.2282 60.7175C73.2653 60.7591 73.2935 60.8092 73.313 60.8677C73.3325 60.9262 73.3423 60.9915 73.3423 61.0637C73.3423 61.1319 73.3329 61.1947 73.314 61.2519C73.2958 61.3091 73.2682 61.3591 73.2311 61.402C73.1941 61.4443 73.1473 61.4771 73.0907 61.5005C73.0348 61.5239 72.9688 61.5356 72.8928 61.5356C72.8356 61.5356 72.7813 61.5278 72.7299 61.5122C72.6792 61.496 72.6337 61.4716 72.5934 61.4391C72.5538 61.4059 72.5213 61.365 72.4959 61.3162C72.4712 61.2668 72.4556 61.209 72.4491 61.1426H72.6207C72.6285 61.196 72.6441 61.2408 72.6675 61.2772C72.6909 61.3136 72.7215 61.3412 72.7592 61.3601C72.7975 61.3783 72.8421 61.3874 72.8928 61.3874C72.9357 61.3874 72.9737 61.3799 73.0069 61.365C73.04 61.35 73.068 61.3286 73.0907 61.3006C73.1135 61.2727 73.1307 61.2389 73.1424 61.1992C73.1548 61.1595 73.1609 61.115 73.1609 61.0656C73.1609 61.0208 73.1548 60.9792 73.1424 60.9408C73.13 60.9024 73.1115 60.869 73.0868 60.8404C73.0628 60.8118 73.0332 60.7897 72.9981 60.7741C72.963 60.7578 72.9227 60.7497 72.8772 60.7497C72.8167 60.7497 72.7709 60.7578 72.7397 60.7741C72.7091 60.7903 72.6776 60.8124 72.6451 60.8404ZM74.4715 60.7546V60.9242H73.4983V60.7546H74.4715ZM74.0756 60.3401V61.3737H73.8952V60.3401H74.0756Z" fill="#8794BA"/>
<g style="mix-blend-mode:multiply" opacity="0.45">
<circle cx="26.6271" cy="25.4004" r="8.32091" fill="#0088F0"/>
</g>
<g style="mix-blend-mode:multiply">
<circle cx="32.368" cy="33.6381" r="5.57501" fill="#EF2A82"/>
</g>
<g style="mix-blend-mode:multiply">
<circle cx="70.9773" cy="32.3068" r="12.2317" fill="#EF2A82"/>
</g>
<g style="mix-blend-mode:multiply" opacity="0.6">
<circle cx="58.9955" cy="41.127" r="6.4071" fill="#0088F0"/>
</g>
<g style="mix-blend-mode:multiply">
<circle cx="50.6745" cy="17.9948" r="2.91232" fill="#0088F0"/>
</g>
<g style="mix-blend-mode:multiply">
<circle cx="24.547" cy="51.4449" r="1.24814" fill="#EF2A82"/>
</g>
<g style="mix-blend-mode:multiply">
<circle cx="80.1302" cy="44.4553" r="5.57501" fill="#0088F0"/>
</g>
</svg>
